<mxfile host="app.diagrams.net" modified="2022-09-24T04:20:16.220Z" agent="5.0 (Windows NT 10.0; WOW64) AppleWebKit/537.36 (KHTML, like Gecko) Chrome/80.0.3987.87 Safari/537.36 SE 2.X MetaSr 1.0" etag="ayrjF59JKYTnflk14cSX" version="20.2.3" type="github">
  <diagram id="RWJzDXAFJEhH3sgsX20e" name="第 1 页">
    <mxGraphModel dx="1820" dy="2164" grid="1" gridSize="10" guides="1" tooltips="1" connect="1" arrows="1" fold="1" page="1" pageScale="1" pageWidth="827" pageHeight="1169" math="0" shadow="0">
      <root>
        <mxCell id="0" />
        <mxCell id="1" parent="0" />
        <mxCell id="SVzCEJU157vRpgFHD0QC-1" value="" style="rounded=0;whiteSpace=wrap;html=1;fillColor=#E5F0FF;shadow=1;strokeWidth=2;dashed=1;" vertex="1" parent="1">
          <mxGeometry x="832" y="-985" width="564" height="170.2" as="geometry" />
        </mxCell>
        <mxCell id="SVzCEJU157vRpgFHD0QC-2" value="" style="rounded=0;whiteSpace=wrap;html=1;fillColor=#E5F0FF;shadow=1;strokeWidth=2;dashed=1;" vertex="1" parent="1">
          <mxGeometry x="278" y="-729" width="502" height="288" as="geometry" />
        </mxCell>
        <mxCell id="SVzCEJU157vRpgFHD0QC-3" value="" style="group" vertex="1" connectable="0" parent="1">
          <mxGeometry x="556" y="-702.2" width="260.75" height="416.13" as="geometry" />
        </mxCell>
        <mxCell id="SVzCEJU157vRpgFHD0QC-4" value="" style="group" vertex="1" connectable="0" parent="SVzCEJU157vRpgFHD0QC-3">
          <mxGeometry x="59" y="-1" width="186" height="252.83" as="geometry" />
        </mxCell>
        <mxCell id="SVzCEJU157vRpgFHD0QC-5" value="" style="rounded=0;whiteSpace=wrap;html=1;strokeWidth=2;strokeColor=none;" vertex="1" parent="SVzCEJU157vRpgFHD0QC-4">
          <mxGeometry width="119" height="252.83" as="geometry" />
        </mxCell>
        <mxCell id="SVzCEJU157vRpgFHD0QC-6" style="vsdxID=780;fillColor=#e51400;shape=stencil(lVjRdtsgDP2avOoAAmw/d9t/9KzpmrOu6Unbrf37kWM7CAmQ/RYcCa6kq2vhA969Pd2/Hg/OvL1fzr+P/04P708H/HZw7vTydLyc3tOvA34/4N3j+XL8dTl/vDzM69f7q+X115/z3+sOn7NfMFcXZ77m5bz6MVv+/LjMpnb+0wWY7GJuqb35dMXya1lGwLAYYGmwLJ0BtPTI59MLAVdiGyaIUw+fKbFNCNGX+GgEyyNrTAkxMIyrQePQwYOZyoPzlvyM9VAKDbkNNsItc5PtG6nkQLODFdVxOZaxRKokx7QB9phVcnByMMZ9paYuy6NxAM/jSWkeROaH0I8pm7T6IGUOBdcGfjhYX55NEaIw2lZ24rBUcQTTr7uH4Eq0qc5rXla06ABdCXcYwWI/VdmkcXgcII7scLLtmpgAnvGOQkRZc2wEXyZrA7F2O2jUjQYm3z/B9x1qXPdlDq8+rIAUySq/Vk+gBdMtYKXRUtIF12WjaV22u8X0/qLAmv2lRkxcLMtjPplnmtQDhRFuYobs7J32fgIXdypBSC9EpypBmADHfjmzyXYloNu2lYBCbBNZBK819oY+VRw0JfAOrKI1vu+wQQmSj2MFrCjB1SroOUxW3RpWxCCwUaeiBCGKwwV7bibb9YBu25SEwOYXqQdq0FIPaDabkkAL05QEhSKyxXfao10njpYkRAhlcDisL7ysCKmmPDoDUZkNsklLEVJNeWbJtqsi4A2hkwjbZBaha/29oV0Vh+7NCr0ikBWKZ58Oxd14G9rbLFdvB5Ll1kHg1ycC8XbF03pba22qGFZs2tY0iq9NAzXwiqbRjLZljRanEbqoefeGJKxLPqW5OQyFw2i11BKX9dEEgXeYAcuHNzn6j05eVbTpf/Rg2QeD+vQ/sEs5RYnSCjfGT33sLYyJzxwEZX7Ea1uJf9RammbWyp2drJKTKFFateJnbwOdMBrDooO9BEtj0sATLAlWmSgrCVaHygrB6kMlJxhF2SaYFn6FX9GLeazCrxjE67MSfrbazi+6c5tfFGWbXzx8jV7cXmOX1z60VOiVXrpG16/KeFLJrzqhVOhVm1AkvSjKNr3U+Cv88vmC1OGXjzDq7ZWttvOL7tzmF0XZ5peIXyOYcEg/8oftx9Pz8/xdnP7PP4SnR/NHdPz+Hw==);strokeColor=#B20000;strokeWidth=0;shadow=0;spacingTop=-3;spacingBottom=-3;spacingLeft=-3;spacingRight=-3;labelBackgroundColor=none;rounded=0;html=1;whiteSpace=wrap;fontColor=#ffffff;" vertex="1" parent="SVzCEJU157vRpgFHD0QC-4">
          <mxGeometry x="35.37000000000012" y="142.0017241379311" width="50" height="61.862068965517246" as="geometry" />
        </mxCell>
        <mxCell id="SVzCEJU157vRpgFHD0QC-7" value="" style="shape=image;verticalLabelPosition=bottom;labelBackgroundColor=default;verticalAlign=top;aspect=fixed;imageAspect=0;image=data:image/png,iVBORw0KGgoAAAANSUhEUgAAAJYAAACGCAMAAAF/DrPdAAAAAXNSR0IArs4c6QAAAARnQU1BAACxjwv8YQUAAAF0UExURQAAAICAgICAgIWFhYCAgICAgHx8fICAgH19fYCAgH19fYCAgICAgICAgH5+foCAgICAgIGBgYCAgICAgICAgICAgICAgICAgH5+foCAgICAgIGBgYCAgIGBgYCAgICAgH9/f39/f39/f39/f4CAgH5+foCAgH9/f4CAgH9/f39/f35+fn9/f4CAgH9/f4CAgH9/f35+fn9/f35+fn9/f4CAgH9/f39/f39/f39/f39/f39/f35+fn5+fn9/f4CAgH5+fn9/f39/f4CAgH9/f39/f4CAgH9/f39/f39/f39/f35+foCAgH9/f39/f35+fn9/f4CAgH9/f4CAgH9/f35+foCAgH9/f35+foCAgH9/f4J8fIN7e4d3d4tzc49vb5Nra5dnZ5tjY59fX6NbW6dXV6tTU69PT7NLS7dHR7tDQ79AQMM8PMc4OMs0NM8wMNMsLNcoKNskJN8gIOMcHOcYGOsUFO8QEPMMDPcICPsEBP8AAN/IF90AAABadFJOUwAIEBcYICcoLzA1OD5AQ0hQVVhgYmRoam9wdnd4fYCEhYePl5qenp+ipaeqq66vsre4uby/wMXHycvP0dLW19ja29/g4eXm5+nt7/Dw8/X29/j5+vv8/P3+/gehoukAAAAJcEhZcwAAFxEAABcRAcom8z8AAA+USURBVGhDxZuLXx1HFccvCMZbjImgaCqiQDWKiqgoikoVtdSr1mvro45p3jamaVpbahNy/3l/v985Mzv7uLubS0K/n7C78zgzs/M4c+bszSCx5feMMJkEf0xM6nHhPuJSZOAjLrjh33oIcybEO5MRyyJ2GHcQpcL7KjZMbu9dQo7JfWYrqmcUiyhqUdxDxS1beGQVKo89DgYfKYOlz1l5+yzImsIiThinF91Dzgdhl6KKQyovqhcPe5sMGk8sQwlIL/ljwZ7fC44+aBBFHa/5s8O2TsKKh/RS+hfG46FCFHqImJjM7NZYH8gw73GoEPmXA5+3L/ImFsLYMwwGFywqFvTKSmxiCBg/RQ/e+GKq93oYWGdY9n2v14SOYkiXHfRwCDtheE/1XuDFGjvPJwoYjFv354QqnMIYiS3JTriNclGbD/gU1CJmC7UmYAyv2l31nSpX+Ee4pLi1vYu6q4BHaA7/7SNirAwMLy6E6xJCSakaSkhQHCmMmRjTHvPplipE8nJ80N3KCMcxjN4nyMT4U1YZfhg42wFLT6jo7E3XysnOVcmFgDnOxmBVlYoJ4d5kco3TwqPHQV3A8AZLP2X8dqpmTtVGRngOXLZKQyP19CFkMVGUhg7D1LTmK1HiDOlhXg+Mv8sHdvWBomprr3hTj5iC5evKBY5Qiz+2MdxrmENV1OQND0xDLbsZ0uJs5CDrpel4ZzxqzYUmKdfjtsK47JSLb+BxibgcNGmY7V74Vsrm60gzh+vxKKyEoU3Tg0G4rGwK4SGtmYOwvsWEdQ01IvQPabbY2BC25CrjIxfxiDilUUXGhbWL6EwPcK17LmoqbEB8QDn7RVFeZZEr1ciMqkZ3m5a+bL1YRXGdhvCIIUwNi/pgMrkdsDPEJQpFHMJWLPmYkbtWMt8ZaAaEMGKkckGlriOgxDIbiFzzXFqJjblCWL0c3izeZVoubDe4ItODsKqgpwiGuVAXGY0LiErJJgDXAaXRDjKmkI2jC7sqUSZvSTIICApCFPZwbTlJbSBLWPAsAE2LJXCE4mgzV1HYOh6lnpSY1zhYQtKmnqzC31jahwHjhQYiExMWaBmEk38zC4KLXgQTCwWkBwy2lYwkj9IT1L+bEFuIYabJOzEJG6M/5KT2NphmBZ7rTkMBOeGBiuIQtQAl91ZqVAvI06W+GrC1D7Lhmw2V8s7JyR3eM8vs6eEq1BQjNxHw+FmAtBdE7lEvzQrfy8sRCM5YGEsqlfUfRfTYpaqYyQVoGwgsByNZqk3MR8Edj5B++GYIsBXBrY8nk/f4gG0AWg5/Zlw1CGIJI//JybuKZQx35RXKxYCAShisUOWwAKrPuiBSbvhbqHcv0/7HnMa1YXaiVVIzIbBNZUEWfsfDhLnU4p3sjXOQ7Lea4ADqXwrE4WLkyywwrQkoDiWw2yqCNBzf8iBBDhKrJ9J7YWS7NjVUuLqqqKqgaTkPT/6rLMaaJGU1Rmja++u9Rlu5LMgtmK8Drus61lBd0jNEcb3l2Z/gGfuFtVLtrgg63uaRKjZ17BltTzZMKBxqLpglUBJsgqmcjZwc1fWITcAycIB6QO2HG14WeDHkoSKwHtkwy9qJRNhlIxhORWHaULgKvoy/on+qLNpCMYWCB25tyi2T5GZcj9ortJXjcoWBkiBR0DkYoJzv8ynOp0PFAwkDD+It/UEcMImDHCcwNGeBBOtse7NFLkgDMFzzCMBJpOipa4h2GW7KVhFkZ6I7EtcQp5mDsTrivQplCNdlRZD7Pg2KCHIAzi7TLmS4tZfOD0ikJrIurwgq9W0PK2ZDug6DiCtaiGsEOghrYpPdYnZjVXAAkxfAvnqsU5X0H+dVuII/Fusb5G08fgUxXlOzoIuSzNjQNAL3rSTiMdF/A5oEGzFL2sshOLNglnrqU1Mu6+MQXvGEGcCk5NnFQckePxO0FG2zgcl/tqIAS3PObICB9b29q3Gln4k5zifSauf2wnwlhkfNioq6mZsMM0O16hsqJtd0vdwHGAhJR1FDDT1+FiDuJYH7Z2oYdtK4a5Mz9divdUZOnKUs7rm5WUQbwJOeFu3bdro0GJ6tMDMB7no5RBGzFGZmUz6O73uMZ+hPLMp9psQjOgvLty1C/Qy777u4+Vv6LkzyWVYVdFsP0LgiLIr6wbRX2mrmYJGx+FRYTbCyBQI5KWyzh2meoMPRjSllqwtazIMTHv/lRzI7lFszG1/etnCfS4UpOhfULp1tp0PzHSknk/HCtDX9SEsjR7MFtkZNUDZGmtzsFZlvNpAmn8NEs3gPa4JSK/WtGVKotelsh0T0M1fXG1XBBSZ6kNAmtfb4rQpGjhagDaALEQjKD+ZBom2e9hdPDBKugnTedB5xIQJBurLyKLZVZeAeD5xlkECvjobXZQSClbKo1dUjTGpkTbNDx4iKoA7B6URNR45YR+dGC7NqduNZ0wGUBdfr5kfE3cjRDrOZC7wcUrNbcJXXiOAZK/pPzOevqEdHJnxp980FuS4qpgzXokY8fT2QhXtKA1st09nhM/hrsoGsP3g4BksUNw/sdv0c4YeasIoZvl4VFGWzCKGfW0D+1uQa4taxLxPaqAk6VoN7x/S4LSO56UwSuBCjtVsSTCRtZgM150dW84UaikB71GPJHCgEG5Cqx129Vj3fcCzVMGXtBjlluFGkcX/E7Tu89wBZMYbWb/WzkqX09IMtmQSvwMsB/NpEUif0QE75IUeA20f5+KRdRYMz1YtQgjnDP/E31N4W35KxttuJ+pdjx9SkuWzSxkP9VT+KqTBOZuYtCYpstSKEN1j5Gx4vK82cKIYtE/bWH/GHeVUWJBX3Dy6azZ5aO9bFLjts8BupcC1gGKRYtiGwVVnnXsj2R6ChIRVBpuGWu5KMn6XvKjWQ6h6hmg+Ka91j0hcNzERcXLYCTs7Hyd/tYiaoampuKUxqdIh1fhUkY1nb+JUF9VXGg0QakmZGswkQjYD6/gjBw0pZnJHpY43uFTAOXKuDwZ/rgpWy1GFatxBqWr8U8XtNsFKWuctoXcWXAWvFWdRfXcu/KrjPTs50JzL8irkwuXCl7iy7nBFYdj3/elVwSfPaw+560+xZtsEvvnYA88j49tsgaG/um/kDPK66ctbn/ar7Gg06UCpVNe9lQdvxym48qxmL5eu4+Ub/iFHgC7zIAdUkaJ/2jLiAC/O55Ap3fDNsEqy7BOWuM7wgYGNcsvEaBNHFGKD9kg/CNvu6P77iia8LNiItVtvTuuUaqZ5FaYXIlzgLPwr+xdpAUZ4wA9CcNXf/zEC60FG3spGfgeo3h5l7i0De3Qo8Pk3dX3vR/BliRnzKkmkb01PgG9j0TxrPlIVNN1vJ8dZZnFHPjKVkEhSMCifzJwPOf83snGlSnw1ZtOTu/7QwwGMZT6T1k+7zhB8dwI3UJuPUD8ZlRX5ueKtypet8zENTtIXOGd9jK11lPLZ2NduUzxcz65MLoIx9PTaPwbniBllxpC9jqd/2zOdFUgz5MTzHk5/Bx5H+mINa5J6GjHiKBiX/7XMkHSPJtewglHHDk0VuKT4vLkUV6jS164nZCQXPW7UmvU78+e3MUyh4WAA8vCWa/aB9WMwNgVHTd8Ghux7/YreLrlDDjexbz0c0zci2KzbzN4ZxQ8O6a1wunJ0F5dnqnlVoSTtfbMAcK35WALs4H7qjxWhejT7rvToqWzw9aix5PHIOksWWGrViBz8czUWj6K6JWaO303zMGtajxuTRuZcOKKf3bfuI7Z+PLiEE/cRWuBivZEOBujdTwf5pFxM+qhR2IuhRo3s8wq380ASe+M9DYCznjRrMmd1XX/WL9Z9Qmy4Z86SaN6y7xuT1bdhFTm2y/DROIHN0WPf3PG/kmaP/4OAbdp9eI9plQ9KsFUv6x70v1v/jvqcE61r7rVfJsdFa4yo/YIEpe4i8VWLXjWD3vvQ21t3JE8e3mOmtNR66r33ajuvTcD9Z5vbZpslvNQXroeIHQt9TuKtGc+GW/A0Z0emIhljDTIEeP835wZaLO09Nt5D2Gn3G5+74jOiqISOoafuk0eAjGa5t7YGr6/UkV/aQXsoVSWuN+1G3NA51Zp6IHbn5Kh9X5jddWSZ2CpVGTNn/4SXdCtpqXEp2SvGVIGGfQmu4ejfyxZVROibmO1TG9Br13vHbwr2yJeB2QPiBrr+1uU5eUF2imCq3HpyAd9MPf+2jtvGpv3tcOLCZbEVOrdF/8zbn38dCuPlQC+Txe/qEQY4XfPFtDz7/ph6Aa/gFH73rJcX4KJoQvgEupzF+0V/jqKvGyGL+FSTjmF9E5myrv2IazjiEIrpg9d2obCHAq8B5bCHVD/Z9vrDe1hoz3FrJOI7bnqtE8To/2IhNU+DZl/oCX8FftRs2BXuzv+oaVXFLjWUurO9ZD+xvlhZ6NPfA8mDON1Ejd9ZmlFbLznz+ZqVf/E+rsR/JlW3qfVgooClaUb9BEP4tLa3YZ3qkdSdW4T79sUWUXMg5/lE7vOT5fTfpv8f34nNW6Jc8WBwUGxwjxH4ZIdyqe8FCL1roGeGjZu+anV7DW9Vjj+G+JEMT2ft7/DTbaRduTmpmJMP8J7pdb7Kb7L98Hmf2f5qdz9Drlf2IYSc2CsrSVU/NaeM/9qedseidlDHDUbbZEHB9+oauwg99UVXk58STqOTdrI5ny4JCi4MW00O0GAKm3nf1WwFSnEQXclOldE4cF9p6KRb8NXuN6ODvND3aDQGb4eNPFxMlo6xcI/ulHhn4b1zC6He6aW32MD1aDQHfkF/VldRcoqt5n4XRRlU1FcU7wz6mR4ch8Au/F7jhUaXhnCjS4Cdeba9RpkenIVCw4Vtb2ZnQgb/1cm3YWk0P13NthoDD/fBsR4xSw9pqXPBR7jYEXA2aWsxMzy5sScQNujgntta467ZnlyEQT6+VY3I3tUN4bFhrjWOvpsMQGBez3M9XPa2jWu7LUbu21+ij0m0IHERV52qsn4FiL+1GxGC+OKe013jkvdzHEIill3U1mO5r9P3BAquuFozWGlGTneLaDIFCkx9JNZSO722+xmzdFkeKnfnuGincwxDIvrFuzUVNRO1SrKwK9DX6ARSvkjTDSF+n+tTYzxDIbK7ji663F9p9jW54rA7TCWc7rud+NfYyBLAfpPJ/qevvdZ3qa7RWvawrKJ0Ae9bYyxAA2dEsMt3XmFM6hpG+NXYaAkbpnNzLu2ln8Cb61WhMMwQK8pXe6d0stNZUumvsSaEXp/ka/+XpSQufE5ftd5ztvsYpltnzxKZsh6/x/Onh3aw4hc6HTu9m5Qfs50WHd/MTmFhGT1/j+dPX13j+9PY1nj9n8zXWGAz+D6u2rljHskdDAAAAAElFTkSuQmCC;" vertex="1" parent="SVzCEJU157vRpgFHD0QC-4">
          <mxGeometry x="20.629999999999995" y="11" width="79.48" height="71" as="geometry" />
        </mxCell>
        <mxCell id="SVzCEJU157vRpgFHD0QC-8" value="" style="endArrow=classic;html=1;rounded=1;strokeColor=#000000;strokeWidth=2;fontFamily=Helvetica;fontSize=14;fillColor=default;gradientColor=#A9C4EB;entryX=0.5;entryY=1;entryDx=0;entryDy=0;" edge="1" parent="SVzCEJU157vRpgFHD0QC-4" target="SVzCEJU157vRpgFHD0QC-7">
          <mxGeometry width="50" height="50" relative="1" as="geometry">
            <mxPoint x="60" y="141" as="sourcePoint" />
            <mxPoint x="100.75" y="120" as="targetPoint" />
          </mxGeometry>
        </mxCell>
        <mxCell id="SVzCEJU157vRpgFHD0QC-9" value="&lt;font style=&quot;direction: ltr; letter-spacing: 0px; line-height: 120%; opacity: 1;&quot;&gt;&lt;b&gt;&lt;font style=&quot;font-size: 20px&quot; color=&quot;#d6b656&quot;&gt;Client M&lt;/font&gt;&lt;br&gt;&lt;/b&gt;&lt;/font&gt;" style="verticalAlign=middle;align=center;vsdxID=100;fillColor=none;gradientColor=none;shape=stencil(nZBLDoAgDERP0z3SIyjew0SURgSD+Lu9kMZoXLhwN9O+tukAlrNpJg1SzDH4QW/URgNYgZTkjA4UkwJUgGXng+6DX1zLfmoymdXo17xh5zmRJ6Q42BWCfc2oJfdAr+Yv+AP9Cb7OJ3H/2JG1HNGz/84klThPVCc=);strokeColor=none;labelBackgroundColor=none;rounded=0;html=1;whiteSpace=wrap;fontFamily=Verdana;" vertex="1" parent="SVzCEJU157vRpgFHD0QC-4">
          <mxGeometry x="11" y="213.86" width="98" height="32" as="geometry" />
        </mxCell>
        <mxCell id="SVzCEJU157vRpgFHD0QC-10" value="" style="shape=image;verticalLabelPosition=bottom;labelBackgroundColor=default;verticalAlign=top;aspect=fixed;imageAspect=0;image=data:image/svg+xml,PHN2ZyB4bWxuczp4bGluaz0iaHR0cDovL3d3dy53My5vcmcvMTk5OS94bGluayIgeG1sbnM9Imh0dHA6Ly93d3cudzMub3JnLzIwMDAvc3ZnIiBoZWlnaHQ9IjEyOCIgd2lkdGg9IjEyOCIgdmVyc2lvbj0iMS4xIiB2aWV3Qm94PSIwIDAgMTAyNCAxMDI0IiBjbGFzcz0iaWNvbiI+PHBhdGggZmlsbD0iI2Q4MWUwNiIgZD0iTTMzMC42NTYgMjA5LjE1MkE5MC42NTYgOTAuNjU2IDAgMCAwIDI0MCAyOTkuODA4djYzMy41MDRBOTAuNjU2IDkwLjY1NiAwIDAgMCAzMzAuNjU2IDEwMjRoNDg5LjQwOGE5MC42ODggOTAuNjg4IDAgMCAwIDkwLjY4OC05MC42NTZWMjk5LjgwOGE5MC42NTYgOTAuNjU2IDAgMCAwLTkwLjY4OC05MC42NTZIMzMwLjY1NnogbTQ3Ni41NzYgNjIyLjU5MmMwIDI5LjA4OC0yMy41ODQgNTIuNzA0LTUyLjY3MiA1Mi43MDRIMzk2LjE5MmE1Mi42NCA1Mi42NCAwIDAgMS01Mi42NC01Mi43MDRWNDA1LjkyYzAtMjkuMTIgMjMuNTUyLTUyLjY3MiA1Mi42NC01Mi42NzJoMzU4LjMzNmMyOS4wODggMCA1Mi42NzIgMjMuNTg0IDUyLjY3MiA1Mi42NzJ2NDI1LjgyNHoiLz48cGF0aCBmaWxsPSIjZDgxZTA2IiBkPSJNNDU3Ljk1MiA3MDAuNDE2bDIwLjYwOC0zOS40ODh2OTEuMjY0YzAgMTEuMTM2IDYuOTQ0IDIxLjMxMiAxNi44MzIgMjYuMjQgMTcuNzI4IDguNzA0IDQ5LjcyOCAyMC4zMiA5My4xODQgMjAuMzIgMzguOTc2IDAgNjcuNzEyLTkuMzQ0IDg1LjU2OC0xNy42IDEyLjU0NC01Ljc5MiAyMC41NDQtMTguMzA0IDIwLjU0NC0zMi4wMzJ2LTg4LjE5MmwxLjEyIDIuMDE2IDE5LjU1MiAzNi41MTJjMzIuNjQtMjkuNDQgNTIuNzA0LTY5Ljk1MiA1Mi43MDQtMTE0LjY4OCAwLTg5Ljg1Ni04MS4zNDQtMTYyLjc1Mi0xODEuNjY0LTE2Mi43NTItMTAwLjM4NCAwLTE4Mi4wMTYgNzIuODk2LTE4Mi4wMTYgMTYyLjc1MiAwLjA2NCA0NS4yNDggMjAuMzIgODYuMjA4IDUzLjU2OCAxMTUuNjQ4eiBtMTUxLjE2OC05NS44NzJjMC01LjU2OCA0Ljk2LTguMjI0IDEwLjU2LTguMjI0aDY0Ljg5NmM1LjYgMCAxMC4wOCAyLjY1NiAxMC4wOCA4LjIyNHYwLjAzMmMwIDI4LjA5Ni0xOS4zMjggNTEuMDA4LTQyLjg0OCA1MS4wMDgtMjMuNDU2IDAtNDIuNjg4LTIyLjk0NC00Mi42ODgtNTEuMDR6IG0tMjIuNjI0IDQ3LjEzNmMzLjEzNiAwIDYuMTEyIDEuMzQ0IDguMjI0IDMuNjhsMjUuNTA0IDI4LjcwNC0xMi4zODQgMTAuOTQ0LTE0LjE0NC03LjJhMTUuMTY4IDE1LjE2OCAwIDAgMC0xNC4wMTYgMC4wNjRsLTEzLjQ3MiA3LjA3Mi0xMi41MTItMTAuODE2IDI0LjY3Mi0yOC42NzJhMTAuOTEyIDEwLjkxMiAwIDAgMSA4LjEyOC0zLjc3NnogbS0xMDMuMzYtNDcuMTM2YzAtNS41NjggMy43MTItOC4yMjQgOS4zMTItOC4yMjRoNjQuOTI4YzUuNjMyIDAgMTEuMjMyIDIuNjU2IDExLjIzMiA4LjI1NiAwIDI4LjA5Ni0xOS4yNjQgNTEuMDA4LTQyLjc4NCA1MS4wMDgtMjMuNDg4IDAtNDIuNzItMjIuOTQ0LTQyLjcyLTUxLjAwOHYtMC4wMzJ6TTczNS4yMzIgNTQuNzUyYzAtMjkuMTItMjMuNTg0LTUyLjY3Mi01Mi42NzItNTIuNjcyaC0yMTQuMzM2Yy0yOS4wODggMC01Mi42NCAyMy41ODQtNTIuNjQgNTIuNjcydjEyMi45MTJoMzE5LjY4VjU0Ljc1MnoiLz48L3N2Zz4=;rotation=-60;" vertex="1" parent="SVzCEJU157vRpgFHD0QC-4">
          <mxGeometry x="88.35" y="132.17000000000002" width="44.37" height="44.37" as="geometry" />
        </mxCell>
        <mxCell id="SVzCEJU157vRpgFHD0QC-11" value="…" style="text;html=1;resizable=0;autosize=1;align=center;verticalAlign=middle;points=[];fillColor=none;strokeColor=none;rounded=0;fontFamily=Helvetica;fontSize=24;fontStyle=1" vertex="1" parent="SVzCEJU157vRpgFHD0QC-4">
          <mxGeometry x="-39.000000000000114" y="200.86" width="50" height="40" as="geometry" />
        </mxCell>
        <mxCell id="SVzCEJU157vRpgFHD0QC-12" value="&lt;span style=&quot;font-size: 19px;&quot;&gt;&lt;span style=&quot;font-size: 19px;&quot;&gt;data &lt;br style=&quot;font-size: 19px;&quot;&gt;poisoning&lt;/span&gt;&lt;/span&gt;" style="text;html=1;align=center;verticalAlign=middle;resizable=0;points=[];autosize=1;fontSize=19;fillColor=none;gradientColor=#ffd966;strokeColor=none;fontColor=#000000;fontStyle=3;fontFamily=Helvetica;" vertex="1" parent="SVzCEJU157vRpgFHD0QC-4">
          <mxGeometry x="62" y="165" width="109" height="58" as="geometry" />
        </mxCell>
        <mxCell id="SVzCEJU157vRpgFHD0QC-13" value="" style="shape=image;verticalLabelPosition=bottom;labelBackgroundColor=default;verticalAlign=top;aspect=fixed;imageAspect=0;image=data:image/png,iVBORw0KGgoAAAANSUhEUgAAAJYAAACGCAMAAAF/DrPdAAAAAXNSR0IArs4c6QAAAARnQU1BAACxjwv8YQUAAAEUUExURQAAAICAgICAgIWFhYCAgICAgHx8fICAgH19fYCAgH19fYCAgICAgICAgH5+foCAgICAgIGBgYCAgICAgICAgICAgICAgICAgH5+foCAgICAgIGBgYCAgIGBgYCAgICAgH9/f39/f39/f39/f4CAgH5+foCAgH9/f4CAgH9/f39/f35+fn9/f4CAgH9/f4CAgH9/f35+fn9/f35+fn9/f4CAgH9/f39/f39/f39/f39/f39/f35+fn5+fn9/f4CAgH5+fn9/f39/f4CAgH9/f39/f4CAgH9/f39/f39/f39/f35+foCAgH9/f39/f35+fn9/f35+foCAgH9/f4CAgH9/f35+foCAgH9/f35+foCAgH9/f3yWWIkAAABbdFJOUwAIEBcYICcoLzA1OD5AQ0hQVVhgYmRoam9wdnd4fYCEhYePl5qenp+ipaeqq66vsre4uby/wMXHycvP0dLW19ja29/g4eXm5+nt7/Dw8/X29/j4+fr7/Pz9/v7Jqjp4AAAACXBIWXMAABcRAAAXEQHKJvM/AAAO+UlEQVRoQ8VaC3tk2RRNoqLVRHRLCD1akWQIQQRFKATBhMIopj3G+f//w1pr7/O671TSmfVV7j2vfZ77dfbNTsK5vwsE/VpoloUz/KXCwCQeeOG3CGHXi/2tpmHniulVpArHLMPvZvkSLXbO2EwFVq2E+kxA2WuVHVl+bQMamZI7OwdqYPW7qti5QdKnwi4O+dRviZaLcE1SFejPEnwsscgIkKuyBKgxWgNLf2fcveogxd9HlozQkNwUAxehX9hs5sqR6LWm6tUssacdZNjzMgyI6iPWhsvDSLIzC5tE9MKKkFNHHx57G+Rxflb89stWi989zser2fBGXcaO73IOjyvscAhXYX6h4heq02NPrRKYXFgyw/rvxgaVA9WOwOPGyw+8B7EfLNcSJZYX9tZ4mnUI/w0vVfZmCf4B1ME+nvxxyI0aML8/C/feYpmGcQrHnfK5pzBjaqUBkTiKCb2NzvsEsPsEGrEch47MjwO5HWBRArOxiCt9U1c7LkRn0ooEpKrqJgRsx4Zs4cUbmzjzpyza4+PSSdhNSb5GOlBsAZTvWtVL0IJRVIcNA2va9FWpF3NKoHdL7EBQufi4Ty3Zc/L07oPVj7UC7jCKJ4cwX3bwUBOa8qln+qDhbkMSzk64Bh2ZmlfvD7aK65sNdUaxU4IrUKJAFAcxDWsvwndSM5cjcQ656y4ch7mx6QpaSs2UQyLJzCoszlmx0FGjwH5J2AhQQLtYmoCOY5nSVJFRsK7xKPQAZT1SoZXpWtLd5K7UIvYlcbaEEBN4G1u62IooNsI6yNIqmlvRK6jMAMsQRRSKOAStks3uWXht1Ka8TD2HsGahCqBSF+qxhVMUvvEaSWJnqxBOXoVPrIbj9LWCubGqRTixhgWYp6DyJHgcQFRKxgCUA9bZ5qArwM7RiV2VqJGXJYeAQDmKJNkwOUltoIlttQFTiz3whOJps1XubIGk1BNRnePOAdJnSrE4hN9bHdyQOSeotjhbegbh8IpNkN1XsVVmBaQEDttTKWE9LuknEeexBDOyBAyjJ0rEstDhmmWk3vXqhY7D7MYAoOR4dp7rB9qMqa8OmOwDxfFtB/VyenhIpy1u63agFCbjcYuMJ7dBTQ1L6q7DFuC6PCkgu2Vn7Knqi+zX6emMwVwuIGlRiIMheapd2IuE9PkF8ti3Q4CvCKyg306UYJZV5lx1EFJgwurwECoOYAmt8jHpYkaAStg5psphB1SfbULU3PEtoOwVWQk8jWcHd2JWUjPwAFuE7Lx09NlKM8bupBWXQLW/WoRQdKZAHNwNLgY2uTzCDCgOVbBhg5CO49qzBFoQcXhCei+sTWdSh4QLnUSL0LSc590jNbxRibzGCDrJPtxH9JVrQjIPlwPI1uGUeFR0AkWK58paSzZhL2yWmkaD0BHnrIFNHXvD8iyNKNyKF4yHK8IusJbcKD1jRQbmud9884AmgNoPLyzWEhGvVQB5zOZgFCLhlq3hOGUi9UAp+Cr+8v40sW+CYgoFCfnSbC2X5DbKo2wFGYtCKetbERLKOlb0yX/IVOQnqlPBTHdu3iQEeMiRgStu8rImLn3aQkko96hYurlZKO6VIfpleKlZg5CbWTrg/0CZOAc7nbVAAdIQlMuSEFqDirfU4WgBkLuwvc5D8/Nluj+gktzb3HIfA49LzytzKl2H6eOJGeIZAR0EmTjjtpjf2CSkPwrgkGbaUskM+SqQNdmtG0g2+xpKfCQvaRA6KVE4G2IjoLDVXhLjN0AXYSfMk/YMIXEvddaDUPeFo/vQk1sAG1HMvu75waCpNjbT4Sm1PczwCx0m7sFYLJcXUdIfhV3yEzHo505CaZm8aFuoq9vSZdga1CTOnNQLhY55OGDFEj37nXt6G1TrggJ+xMRgMKLVJh61Y7/THTnhMX3R5pZuEX0ATz4UstslvzO/XWfmAlx7jlDBNp2Z21SSWudbdBa7imEHwAtGOyvNFkH9DL/v+3j5Kt0KEyWXNQnd1wPiqbEr6gfTXsnU7MIjY/epsxZhnnx0wxWkMGOfLi4AA47uTKlZm9BKFoe8/tuKZG9omjn52mzhvZs6U3FJKCtdmNO5hUfU0krn9DXdTNLJ0YHCCLQIpUvSarkr2mQ7SC8tIHdGjt1ti1CC0TbNSGHUrrsdKtEBpettk3CWlyKYu81UXZ6Ak6PqsAO0IgGEioN5ltC20//CnnQrK29vUewMEDKUVY2PrPrAO144a6CCG67jtRIDs3URN1Q7UhcXgBUBd+ga0SDUJVg+pcHahAU2N3qYTbcbabEDUBMu2u5HhDuj0Q8zzgW8H6Llt+CZhBNpSPTf2M4XoKTDdH9pfUtCdtxwZSiLOnFpVCa0Ot34Raq7w+fw1+UD2X74Wg5IbkFGOLbsNPK2XQdM9ZyAwxdNQqF2i5D7pWUUb/U2AOhvNAMDSmpCh43g0TElL+UkVwwbtaHxje17RZiQxNQOatevrPFCRagA89GOJXcgE3ZAqh5v7VrjmqKz1MSsaBRoKceNJJ32Ea/vqWQcaMrLiUjbdyVLlOUDODAKPpWIiGYubcIE0G0Ic24OzUd9fZJV0eH0RhEqsGX4H/7msm1xNSw1aye0vxw7TE1ayCYZHuqv9lVMnZGZ2bYiFAppRQ4rOP43kuZ5WRDFYCLA3for/sBXNSHRCP/gIW722ta1Lm7ZbZMQUOdiXk0Y7M5ZFZv7orCPgI6GaBAygVd0SrP/8YvSwamBWhMvoCREe8q6l6QvGjg7PLysAdyc71O828uMUMMU9y9bANgAG1K6vRmohljb+dWE+irjWUL6iW5GtwsQnYC2fQThbXMxyKaPNXo3gHMwSfh7m7BBow0Tp4OoS35jc7ZrEjb6snAZvau4GOBNvov60iX+TcIbbnKhO9Hgt2wF5sKTurMOOSNz5Hr+4ybhgfja8x56E/cc2eHnrx2ARWTc/HYQ2srdmJPwxDdNn/fNh8rha0xopVoyKd81oTF7HcazkcEy30wl/tEuhC/xoQBUF2FsRUQBzu5zdFFsHgbn0S7CdkjQmZbwPGBnXJnMDkIsGAd0U9ocW0FHPL4RiW8TdkJarGymrsbpOsHTKa0yT6Rw3x6Gn9R+Obry1BaA5ixDZ4/qi9RZR8GMpJPfAs1vDlvvFgF616+0lL32dRJ0D8Ha9Oy+iEyHsyzRZ5geADdg/Z80nhSzM3dbifvzxwSjngwHySXIWOcg86cD09wduHoUUz8O8miJ63RwM3MzgMFPuu8SrvzvGsy05xfjWpE/G3xWHbvywnYx3wqeEW5jO+VuZvPq9infLcytTyGAGnZ9iP71M8Idsnylr2G13/XccyEphvIaXsKrn+DjyHTEGDJQulsF4i0a6DnmJ0e6RhKb4iJUoLBGvVN/UryMKtTRNa/dpkF616o16XXC05dNO+PSwMtbQnccdAr2S0dg3fVdcO5Rt3/a6zD6+HeFgjrwUFm4dMVm8caw6ZjY+IhHPmKFmls9sgotafeLU5yW4ieOdXl0d/Dezb1af953dV1r3gkjVhGPEqvksaVJHXvw/NbKO0mvjcwmfZn4sZjYhBFNJQMX6YKydxaZyOa/F0NCyPqNLV9mXldytz5LHfunXTB8VCncRGDCiB7xCKs8jrDrC4KzXE4qillb6vfbqtV0iYS1nNj4iCnq22FF9mwCP48MZIEOo5143ygbu4CG1bfs3T8i5mVH0q0VK/3j0Rfb/83UW4L1YP/rlSZGDI54wg9YQI8iThf/cO3KyaMvk511D/LE882cPjjirZuJPovrbHiTNKZ5nl1xqx7YDuXYyA+UHxvRQrh94QUFfIQLm5gp0PuH3B9MXDx4arqFGB7ROb5n+VGNE2uoafuk0dHl/M35ErhYtKtc2YP6oFQkgyPeRN3SedSFeyJcKczX+LiSFU7EVS34puz/8oFeGUMjQkjdT+m4D+Qdr+Dq3VAKV4HqmlhaqAL9I2rd8duCs09EHPBHev7Bb1nAe94AyBNfLQ6BNzkA6N/3ic/8x8vCyjjZuuwd0f/nbTca/XD7WgIyO0kLvJ+58F3ufPETJQDff7/fhPtKMe7H3twAHqUzft+XcTc2YsR+tC4NaMBdM/WvTcMZGDn126CbuRI+BNydWRofuHF+4biDIxZwb6XAfWRKV4nCx/xgI5yZQi6+1Ge4BH/dXlDptrJ/6RlV8cCINV4slrYDN2eVoBd64mhn142oocc2VtJytVeurFpH34jTkDjZtM08K6Cezjz2B/i3tCSxT3qldZudw6c/tYIqhFwiup4feN6tyXQbPwlfsE6/4tl8Uey507g5INyre89y71vuieCnZmstbq9h3W0es5YDxMi+35uHmNMxpFgaOCM55j/Tq1AzGSb994X/n7jzCaNe2e0KV3FSUJauevyUMtxTp5+x75tUYIurbLcj4Pr0rZ7Cxi59UVWU98TDqEBddcS7ZUa1vQOuhzDgCJh6v07+hE8KmJWuSnVP3GRtfRA7/oYtIwb4R12PYUfAOHzz2cwoBWrlGnFTM5z/j0tY/1EvnfoE12PQEXCD/Cc9iZZDclLuWVifNlVTpfKJ+RTXY8QR+JW/M9zxaKLjnig0nUkscXhEuR6jjkDGqZu2OpgwAl/1UevYBl0P13NDjoCD9tBKtr1iVBMbGnHmpzzuCLgaNB4oXM8xmEhEA53viYMjXruZGHME4u21cU0eR+sSHic2OOLGhxlxBDaZy/1+1dNrE63Wr6J2HR7RT2XcEUjhFVdj0xwUW3Q0T/FrEDE44p3v8hRHIPZe62qgP9bo9sEyJ64WDIMjYiQTyiFHIGty+xhWyBaYp2XzAF9AIbf5SnG1Nz5iTqadTigcgeIb6/lu+aEpS1YDjDX6BRRLSZphLaM+ZcRpjkDhc90fut6eeTdQaYmBi1ijOx4n83TDSaHyaSNOcgTAjqn/X+v5Zz17Y402q9/oCVSWZuKIkxwBoNb7QmXXDB5rLNHS6VNHHHUEDNU9GYvrYtzm1xXewbswbURDnyOQUUp69z24dLPbnN3E+IgTkfViX48fe32T8d41Xtn/cfYYIY819nhm7xLGsiOxxufHhOhmh5C+e4xGNxv/wP5cGIlufgqMZZgYa3x+TI01Pj8mxxqfH4+LNbaws/N/lEy/skWA9XgAAAAASUVORK5CYII=;fontSize=19;fontStyle=0" vertex="1" parent="SVzCEJU157vRpgFHD0QC-3">
          <mxGeometry x="30.650000000000276" y="290.99999999999994" width="62.69" height="56" as="geometry" />
        </mxCell>
        <mxCell id="SVzCEJU157vRpgFHD0QC-14" value="&lt;span style=&quot;font-size: 19px;&quot;&gt;&lt;span style=&quot;font-size: 19px;&quot;&gt;benign&lt;/span&gt;&lt;/span&gt;" style="text;html=1;align=center;verticalAlign=middle;resizable=0;points=[];autosize=1;fontSize=19;fontStyle=0" vertex="1" parent="SVzCEJU157vRpgFHD0QC-3">
          <mxGeometry x="25.000000000000185" y="347" width="75" height="35" as="geometry" />
        </mxCell>
        <mxCell id="SVzCEJU157vRpgFHD0QC-15" value="" style="shape=image;verticalLabelPosition=bottom;labelBackgroundColor=default;verticalAlign=top;aspect=fixed;imageAspect=0;image=data:image/png,iVBORw0KGgoAAAANSUhEUgAAAJYAAACGCAMAAAF/DrPdAAAAAXNSR0IArs4c6QAAAARnQU1BAACxjwv8YQUAAAF0UExURQAAAICAgICAgIWFhYCAgICAgHx8fICAgH19fYCAgH19fYCAgICAgICAgH5+foCAgICAgIGBgYCAgICAgICAgICAgICAgICAgH5+foCAgICAgIGBgYCAgIGBgYCAgICAgH9/f39/f39/f39/f4CAgH5+foCAgH9/f4CAgH9/f39/f35+fn9/f4CAgH9/f4CAgH9/f35+fn9/f35+fn9/f4CAgH9/f39/f39/f39/f39/f39/f35+fn5+fn9/f4CAgH5+fn9/f39/f4CAgH9/f39/f4CAgH9/f39/f39/f39/f35+foCAgH9/f39/f35+fn9/f4CAgH9/f4CAgH9/f35+foCAgH9/f35+foCAgH9/f4J8fIN7e4d3d4tzc49vb5Nra5dnZ5tjY59fX6NbW6dXV6tTU69PT7NLS7dHR7tDQ79AQMM8PMc4OMs0NM8wMNMsLNcoKNskJN8gIOMcHOcYGOsUFO8QEPMMDPcICPsEBP8AAN/IF90AAABadFJOUwAIEBcYICcoLzA1OD5AQ0hQVVhgYmRoam9wdnd4fYCEhYePl5qenp+ipaeqq66vsre4uby/wMXHycvP0dLW19ja29/g4eXm5+nt7/Dw8/X29/j5+vv8/P3+/gehoukAAAAJcEhZcwAAFxEAABcRAcom8z8AAA+USURBVGhDxZuLXx1HFccvCMZbjImgaCqiQDWKiqgoikoVtdSr1mvro45p3jamaVpbahNy/3l/v985Mzv7uLubS0K/n7C78zgzs/M4c+bszSCx5feMMJkEf0xM6nHhPuJSZOAjLrjh33oIcybEO5MRyyJ2GHcQpcL7KjZMbu9dQo7JfWYrqmcUiyhqUdxDxS1beGQVKo89DgYfKYOlz1l5+yzImsIiThinF91Dzgdhl6KKQyovqhcPe5sMGk8sQwlIL/ljwZ7fC44+aBBFHa/5s8O2TsKKh/RS+hfG46FCFHqImJjM7NZYH8gw73GoEPmXA5+3L/ImFsLYMwwGFywqFvTKSmxiCBg/RQ/e+GKq93oYWGdY9n2v14SOYkiXHfRwCDtheE/1XuDFGjvPJwoYjFv354QqnMIYiS3JTriNclGbD/gU1CJmC7UmYAyv2l31nSpX+Ee4pLi1vYu6q4BHaA7/7SNirAwMLy6E6xJCSakaSkhQHCmMmRjTHvPplipE8nJ80N3KCMcxjN4nyMT4U1YZfhg42wFLT6jo7E3XysnOVcmFgDnOxmBVlYoJ4d5kco3TwqPHQV3A8AZLP2X8dqpmTtVGRngOXLZKQyP19CFkMVGUhg7D1LTmK1HiDOlhXg+Mv8sHdvWBomprr3hTj5iC5evKBY5Qiz+2MdxrmENV1OQND0xDLbsZ0uJs5CDrpel4ZzxqzYUmKdfjtsK47JSLb+BxibgcNGmY7V74Vsrm60gzh+vxKKyEoU3Tg0G4rGwK4SGtmYOwvsWEdQ01IvQPabbY2BC25CrjIxfxiDilUUXGhbWL6EwPcK17LmoqbEB8QDn7RVFeZZEr1ciMqkZ3m5a+bL1YRXGdhvCIIUwNi/pgMrkdsDPEJQpFHMJWLPmYkbtWMt8ZaAaEMGKkckGlriOgxDIbiFzzXFqJjblCWL0c3izeZVoubDe4ItODsKqgpwiGuVAXGY0LiErJJgDXAaXRDjKmkI2jC7sqUSZvSTIICApCFPZwbTlJbSBLWPAsAE2LJXCE4mgzV1HYOh6lnpSY1zhYQtKmnqzC31jahwHjhQYiExMWaBmEk38zC4KLXgQTCwWkBwy2lYwkj9IT1L+bEFuIYabJOzEJG6M/5KT2NphmBZ7rTkMBOeGBiuIQtQAl91ZqVAvI06W+GrC1D7Lhmw2V8s7JyR3eM8vs6eEq1BQjNxHw+FmAtBdE7lEvzQrfy8sRCM5YGEsqlfUfRfTYpaqYyQVoGwgsByNZqk3MR8Edj5B++GYIsBXBrY8nk/f4gG0AWg5/Zlw1CGIJI//JybuKZQx35RXKxYCAShisUOWwAKrPuiBSbvhbqHcv0/7HnMa1YXaiVVIzIbBNZUEWfsfDhLnU4p3sjXOQ7Lea4ADqXwrE4WLkyywwrQkoDiWw2yqCNBzf8iBBDhKrJ9J7YWS7NjVUuLqqqKqgaTkPT/6rLMaaJGU1Rmja++u9Rlu5LMgtmK8Drus61lBd0jNEcb3l2Z/gGfuFtVLtrgg63uaRKjZ17BltTzZMKBxqLpglUBJsgqmcjZwc1fWITcAycIB6QO2HG14WeDHkoSKwHtkwy9qJRNhlIxhORWHaULgKvoy/on+qLNpCMYWCB25tyi2T5GZcj9ortJXjcoWBkiBR0DkYoJzv8ynOp0PFAwkDD+It/UEcMImDHCcwNGeBBOtse7NFLkgDMFzzCMBJpOipa4h2GW7KVhFkZ6I7EtcQp5mDsTrivQplCNdlRZD7Pg2KCHIAzi7TLmS4tZfOD0ikJrIurwgq9W0PK2ZDug6DiCtaiGsEOghrYpPdYnZjVXAAkxfAvnqsU5X0H+dVuII/Fusb5G08fgUxXlOzoIuSzNjQNAL3rSTiMdF/A5oEGzFL2sshOLNglnrqU1Mu6+MQXvGEGcCk5NnFQckePxO0FG2zgcl/tqIAS3PObICB9b29q3Gln4k5zifSauf2wnwlhkfNioq6mZsMM0O16hsqJtd0vdwHGAhJR1FDDT1+FiDuJYH7Z2oYdtK4a5Mz9divdUZOnKUs7rm5WUQbwJOeFu3bdro0GJ6tMDMB7no5RBGzFGZmUz6O73uMZ+hPLMp9psQjOgvLty1C/Qy777u4+Vv6LkzyWVYVdFsP0LgiLIr6wbRX2mrmYJGx+FRYTbCyBQI5KWyzh2meoMPRjSllqwtazIMTHv/lRzI7lFszG1/etnCfS4UpOhfULp1tp0PzHSknk/HCtDX9SEsjR7MFtkZNUDZGmtzsFZlvNpAmn8NEs3gPa4JSK/WtGVKotelsh0T0M1fXG1XBBSZ6kNAmtfb4rQpGjhagDaALEQjKD+ZBom2e9hdPDBKugnTedB5xIQJBurLyKLZVZeAeD5xlkECvjobXZQSClbKo1dUjTGpkTbNDx4iKoA7B6URNR45YR+dGC7NqduNZ0wGUBdfr5kfE3cjRDrOZC7wcUrNbcJXXiOAZK/pPzOevqEdHJnxp980FuS4qpgzXokY8fT2QhXtKA1st09nhM/hrsoGsP3g4BksUNw/sdv0c4YeasIoZvl4VFGWzCKGfW0D+1uQa4taxLxPaqAk6VoN7x/S4LSO56UwSuBCjtVsSTCRtZgM150dW84UaikB71GPJHCgEG5Cqx129Vj3fcCzVMGXtBjlluFGkcX/E7Tu89wBZMYbWb/WzkqX09IMtmQSvwMsB/NpEUif0QE75IUeA20f5+KRdRYMz1YtQgjnDP/E31N4W35KxttuJ+pdjx9SkuWzSxkP9VT+KqTBOZuYtCYpstSKEN1j5Gx4vK82cKIYtE/bWH/GHeVUWJBX3Dy6azZ5aO9bFLjts8BupcC1gGKRYtiGwVVnnXsj2R6ChIRVBpuGWu5KMn6XvKjWQ6h6hmg+Ka91j0hcNzERcXLYCTs7Hyd/tYiaoampuKUxqdIh1fhUkY1nb+JUF9VXGg0QakmZGswkQjYD6/gjBw0pZnJHpY43uFTAOXKuDwZ/rgpWy1GFatxBqWr8U8XtNsFKWuctoXcWXAWvFWdRfXcu/KrjPTs50JzL8irkwuXCl7iy7nBFYdj3/elVwSfPaw+560+xZtsEvvnYA88j49tsgaG/um/kDPK66ctbn/ar7Gg06UCpVNe9lQdvxym48qxmL5eu4+Ub/iFHgC7zIAdUkaJ/2jLiAC/O55Ap3fDNsEqy7BOWuM7wgYGNcsvEaBNHFGKD9kg/CNvu6P77iia8LNiItVtvTuuUaqZ5FaYXIlzgLPwr+xdpAUZ4wA9CcNXf/zEC60FG3spGfgeo3h5l7i0De3Qo8Pk3dX3vR/BliRnzKkmkb01PgG9j0TxrPlIVNN1vJ8dZZnFHPjKVkEhSMCifzJwPOf83snGlSnw1ZtOTu/7QwwGMZT6T1k+7zhB8dwI3UJuPUD8ZlRX5ueKtypet8zENTtIXOGd9jK11lPLZ2NduUzxcz65MLoIx9PTaPwbniBllxpC9jqd/2zOdFUgz5MTzHk5/Bx5H+mINa5J6GjHiKBiX/7XMkHSPJtewglHHDk0VuKT4vLkUV6jS164nZCQXPW7UmvU78+e3MUyh4WAA8vCWa/aB9WMwNgVHTd8Ghux7/YreLrlDDjexbz0c0zci2KzbzN4ZxQ8O6a1wunJ0F5dnqnlVoSTtfbMAcK35WALs4H7qjxWhejT7rvToqWzw9aix5PHIOksWWGrViBz8czUWj6K6JWaO303zMGtajxuTRuZcOKKf3bfuI7Z+PLiEE/cRWuBivZEOBujdTwf5pFxM+qhR2IuhRo3s8wq380ASe+M9DYCznjRrMmd1XX/WL9Z9Qmy4Z86SaN6y7xuT1bdhFTm2y/DROIHN0WPf3PG/kmaP/4OAbdp9eI9plQ9KsFUv6x70v1v/jvqcE61r7rVfJsdFa4yo/YIEpe4i8VWLXjWD3vvQ21t3JE8e3mOmtNR66r33ajuvTcD9Z5vbZpslvNQXroeIHQt9TuKtGc+GW/A0Z0emIhljDTIEeP835wZaLO09Nt5D2Gn3G5+74jOiqISOoafuk0eAjGa5t7YGr6/UkV/aQXsoVSWuN+1G3NA51Zp6IHbn5Kh9X5jddWSZ2CpVGTNn/4SXdCtpqXEp2SvGVIGGfQmu4ejfyxZVROibmO1TG9Br13vHbwr2yJeB2QPiBrr+1uU5eUF2imCq3HpyAd9MPf+2jtvGpv3tcOLCZbEVOrdF/8zbn38dCuPlQC+Txe/qEQY4XfPFtDz7/ph6Aa/gFH73rJcX4KJoQvgEupzF+0V/jqKvGyGL+FSTjmF9E5myrv2IazjiEIrpg9d2obCHAq8B5bCHVD/Z9vrDe1hoz3FrJOI7bnqtE8To/2IhNU+DZl/oCX8FftRs2BXuzv+oaVXFLjWUurO9ZD+xvlhZ6NPfA8mDON1Ejd9ZmlFbLznz+ZqVf/E+rsR/JlW3qfVgooClaUb9BEP4tLa3YZ3qkdSdW4T79sUWUXMg5/lE7vOT5fTfpv8f34nNW6Jc8WBwUGxwjxH4ZIdyqe8FCL1roGeGjZu+anV7DW9Vjj+G+JEMT2ft7/DTbaRduTmpmJMP8J7pdb7Kb7L98Hmf2f5qdz9Drlf2IYSc2CsrSVU/NaeM/9qedseidlDHDUbbZEHB9+oauwg99UVXk58STqOTdrI5ny4JCi4MW00O0GAKm3nf1WwFSnEQXclOldE4cF9p6KRb8NXuN6ODvND3aDQGb4eNPFxMlo6xcI/ulHhn4b1zC6He6aW32MD1aDQHfkF/VldRcoqt5n4XRRlU1FcU7wz6mR4ch8Au/F7jhUaXhnCjS4Cdeba9RpkenIVCw4Vtb2ZnQgb/1cm3YWk0P13NthoDD/fBsR4xSw9pqXPBR7jYEXA2aWsxMzy5sScQNujgntta467ZnlyEQT6+VY3I3tUN4bFhrjWOvpsMQGBez3M9XPa2jWu7LUbu21+ij0m0IHERV52qsn4FiL+1GxGC+OKe013jkvdzHEIill3U1mO5r9P3BAquuFozWGlGTneLaDIFCkx9JNZSO722+xmzdFkeKnfnuGincwxDIvrFuzUVNRO1SrKwK9DX6ARSvkjTDSF+n+tTYzxDIbK7ji663F9p9jW54rA7TCWc7rud+NfYyBLAfpPJ/qevvdZ3qa7RWvawrKJ0Ae9bYyxAA2dEsMt3XmFM6hpG+NXYaAkbpnNzLu2ln8Cb61WhMMwQK8pXe6d0stNZUumvsSaEXp/ka/+XpSQufE5ftd5ztvsYpltnzxKZsh6/x/Onh3aw4hc6HTu9m5Qfs50WHd/MTmFhGT1/j+dPX13j+9PY1nj9n8zXWGAz+D6u2rljHskdDAAAAAElFTkSuQmCC;fontSize=19;fontStyle=0" vertex="1" parent="SVzCEJU157vRpgFHD0QC-3">
          <mxGeometry x="123.00000000000001" y="290.99999999999994" width="62.69" height="56" as="geometry" />
        </mxCell>
        <mxCell id="SVzCEJU157vRpgFHD0QC-16" value="&lt;span style=&quot;font-size: 19px;&quot;&gt;&lt;span style=&quot;font-size: 19px;&quot;&gt;poisoned&lt;/span&gt;&lt;/span&gt;" style="text;html=1;align=center;verticalAlign=middle;resizable=0;points=[];autosize=1;fontSize=19;fontStyle=0" vertex="1" parent="SVzCEJU157vRpgFHD0QC-3">
          <mxGeometry x="107.34000000000013" y="347" width="95" height="35" as="geometry" />
        </mxCell>
        <mxCell id="SVzCEJU157vRpgFHD0QC-17" value="" style="rounded=0;whiteSpace=wrap;html=1;fillColor=#E5F0FF;shadow=1;strokeWidth=2;dashed=1;" vertex="1" parent="1">
          <mxGeometry x="833" y="-728" width="565" height="288" as="geometry" />
        </mxCell>
        <mxCell id="SVzCEJU157vRpgFHD0QC-18" value="" style="group;fillColor=default;" vertex="1" connectable="0" parent="1">
          <mxGeometry x="863.75" y="-704" width="226.25" height="253" as="geometry" />
        </mxCell>
        <mxCell id="SVzCEJU157vRpgFHD0QC-19" value="" style="rounded=0;whiteSpace=wrap;html=1;strokeWidth=2;strokeColor=none;" vertex="1" parent="SVzCEJU157vRpgFHD0QC-18">
          <mxGeometry y="4.85" width="215" height="248.15" as="geometry" />
        </mxCell>
        <mxCell id="SVzCEJU157vRpgFHD0QC-20" style="vsdxID=780;shape=stencil(lVjRdtsgDP2avOoAAmw/d9t/9KzpmrOu6Unbrf37kWM7CAmQ/RYcCa6kq2vhA969Pd2/Hg/OvL1fzr+P/04P708H/HZw7vTydLyc3tOvA34/4N3j+XL8dTl/vDzM69f7q+X115/z3+sOn7NfMFcXZ77m5bz6MVv+/LjMpnb+0wWY7GJuqb35dMXya1lGwLAYYGmwLJ0BtPTI59MLAVdiGyaIUw+fKbFNCNGX+GgEyyNrTAkxMIyrQePQwYOZyoPzlvyM9VAKDbkNNsItc5PtG6nkQLODFdVxOZaxRKokx7QB9phVcnByMMZ9paYuy6NxAM/jSWkeROaH0I8pm7T6IGUOBdcGfjhYX55NEaIw2lZ24rBUcQTTr7uH4Eq0qc5rXla06ABdCXcYwWI/VdmkcXgcII7scLLtmpgAnvGOQkRZc2wEXyZrA7F2O2jUjQYm3z/B9x1qXPdlDq8+rIAUySq/Vk+gBdMtYKXRUtIF12WjaV22u8X0/qLAmv2lRkxcLMtjPplnmtQDhRFuYobs7J32fgIXdypBSC9EpypBmADHfjmzyXYloNu2lYBCbBNZBK819oY+VRw0JfAOrKI1vu+wQQmSj2MFrCjB1SroOUxW3RpWxCCwUaeiBCGKwwV7bibb9YBu25SEwOYXqQdq0FIPaDabkkAL05QEhSKyxXfao10njpYkRAhlcDisL7ysCKmmPDoDUZkNsklLEVJNeWbJtqsi4A2hkwjbZBaha/29oV0Vh+7NCr0ikBWKZ58Oxd14G9rbLFdvB5Ll1kHg1ycC8XbF03pba22qGFZs2tY0iq9NAzXwiqbRjLZljRanEbqoefeGJKxLPqW5OQyFw2i11BKX9dEEgXeYAcuHNzn6j05eVbTpf/Rg2QeD+vQ/sEs5RYnSCjfGT33sLYyJzxwEZX7Ea1uJf9RammbWyp2drJKTKFFateJnbwOdMBrDooO9BEtj0sATLAlWmSgrCVaHygrB6kMlJxhF2SaYFn6FX9GLeazCrxjE67MSfrbazi+6c5tfFGWbXzx8jV7cXmOX1z60VOiVXrpG16/KeFLJrzqhVOhVm1AkvSjKNr3U+Cv88vmC1OGXjzDq7ZWttvOL7tzmF0XZ5peIXyOYcEg/8oftx9Pz8/xdnP7PP4SnR/NHdPz+Hw==);strokeWidth=0;shadow=0;spacingTop=-3;spacingBottom=-3;spacingLeft=-3;spacingRight=-3;labelBackgroundColor=none;rounded=0;html=1;whiteSpace=wrap;fillColor=#E1D5E7;strokeColor=#9673a6;" vertex="1" parent="SVzCEJU157vRpgFHD0QC-18">
          <mxGeometry x="14" y="142.49" width="50.99" height="61.51" as="geometry" />
        </mxCell>
        <mxCell id="SVzCEJU157vRpgFHD0QC-21" value="" style="shape=image;verticalLabelPosition=bottom;labelBackgroundColor=default;verticalAlign=top;aspect=fixed;imageAspect=0;image=data:image/png,iVBORw0KGgoAAAANSUhEUgAAAJYAAACGCAMAAAF/DrPdAAAAAXNSR0IArs4c6QAAAARnQU1BAACxjwv8YQUAAAEUUExURQAAAICAgICAgIWFhYCAgICAgHx8fICAgH19fYCAgH19fYCAgICAgICAgH5+foCAgICAgIGBgYCAgICAgICAgICAgICAgICAgH5+foCAgICAgIGBgYCAgIGBgYCAgICAgH9/f39/f39/f39/f4CAgH5+foCAgH9/f4CAgH9/f39/f35+fn9/f4CAgH9/f4CAgH9/f35+fn9/f35+fn9/f4CAgH9/f39/f39/f39/f39/f39/f35+fn5+fn9/f4CAgH5+fn9/f39/f4CAgH9/f39/f4CAgH9/f39/f39/f39/f35+foCAgH9/f39/f35+fn9/f35+foCAgH9/f4CAgH9/f35+foCAgH9/f35+foCAgH9/f3yWWIkAAABbdFJOUwAIEBcYICcoLzA1OD5AQ0hQVVhgYmRoam9wdnd4fYCEhYePl5qenp+ipaeqq66vsre4uby/wMXHycvP0dLW19ja29/g4eXm5+nt7/Dw8/X29/j4+fr7/Pz9/v7Jqjp4AAAACXBIWXMAABcRAAAXEQHKJvM/AAAO+UlEQVRoQ8VaC3tk2RRNoqLVRHRLCD1akWQIQQRFKATBhMIopj3G+f//w1pr7/O671TSmfVV7j2vfZ77dfbNTsK5vwsE/VpoloUz/KXCwCQeeOG3CGHXi/2tpmHniulVpArHLMPvZvkSLXbO2EwFVq2E+kxA2WuVHVl+bQMamZI7OwdqYPW7qti5QdKnwi4O+dRviZaLcE1SFejPEnwsscgIkKuyBKgxWgNLf2fcveogxd9HlozQkNwUAxehX9hs5sqR6LWm6tUssacdZNjzMgyI6iPWhsvDSLIzC5tE9MKKkFNHHx57G+Rxflb89stWi989zser2fBGXcaO73IOjyvscAhXYX6h4heq02NPrRKYXFgyw/rvxgaVA9WOwOPGyw+8B7EfLNcSJZYX9tZ4mnUI/w0vVfZmCf4B1ME+nvxxyI0aML8/C/feYpmGcQrHnfK5pzBjaqUBkTiKCb2NzvsEsPsEGrEch47MjwO5HWBRArOxiCt9U1c7LkRn0ooEpKrqJgRsx4Zs4cUbmzjzpyza4+PSSdhNSb5GOlBsAZTvWtVL0IJRVIcNA2va9FWpF3NKoHdL7EBQufi4Ty3Zc/L07oPVj7UC7jCKJ4cwX3bwUBOa8qln+qDhbkMSzk64Bh2ZmlfvD7aK65sNdUaxU4IrUKJAFAcxDWsvwndSM5cjcQ656y4ch7mx6QpaSs2UQyLJzCoszlmx0FGjwH5J2AhQQLtYmoCOY5nSVJFRsK7xKPQAZT1SoZXpWtLd5K7UIvYlcbaEEBN4G1u62IooNsI6yNIqmlvRK6jMAMsQRRSKOAStks3uWXht1Ka8TD2HsGahCqBSF+qxhVMUvvEaSWJnqxBOXoVPrIbj9LWCubGqRTixhgWYp6DyJHgcQFRKxgCUA9bZ5qArwM7RiV2VqJGXJYeAQDmKJNkwOUltoIlttQFTiz3whOJps1XubIGk1BNRnePOAdJnSrE4hN9bHdyQOSeotjhbegbh8IpNkN1XsVVmBaQEDttTKWE9LuknEeexBDOyBAyjJ0rEstDhmmWk3vXqhY7D7MYAoOR4dp7rB9qMqa8OmOwDxfFtB/VyenhIpy1u63agFCbjcYuMJ7dBTQ1L6q7DFuC6PCkgu2Vn7Knqi+zX6emMwVwuIGlRiIMheapd2IuE9PkF8ti3Q4CvCKyg306UYJZV5lx1EFJgwurwECoOYAmt8jHpYkaAStg5psphB1SfbULU3PEtoOwVWQk8jWcHd2JWUjPwAFuE7Lx09NlKM8bupBWXQLW/WoRQdKZAHNwNLgY2uTzCDCgOVbBhg5CO49qzBFoQcXhCei+sTWdSh4QLnUSL0LSc590jNbxRibzGCDrJPtxH9JVrQjIPlwPI1uGUeFR0AkWK58paSzZhL2yWmkaD0BHnrIFNHXvD8iyNKNyKF4yHK8IusJbcKD1jRQbmud9884AmgNoPLyzWEhGvVQB5zOZgFCLhlq3hOGUi9UAp+Cr+8v40sW+CYgoFCfnSbC2X5DbKo2wFGYtCKetbERLKOlb0yX/IVOQnqlPBTHdu3iQEeMiRgStu8rImLn3aQkko96hYurlZKO6VIfpleKlZg5CbWTrg/0CZOAc7nbVAAdIQlMuSEFqDirfU4WgBkLuwvc5D8/Nluj+gktzb3HIfA49LzytzKl2H6eOJGeIZAR0EmTjjtpjf2CSkPwrgkGbaUskM+SqQNdmtG0g2+xpKfCQvaRA6KVE4G2IjoLDVXhLjN0AXYSfMk/YMIXEvddaDUPeFo/vQk1sAG1HMvu75waCpNjbT4Sm1PczwCx0m7sFYLJcXUdIfhV3yEzHo505CaZm8aFuoq9vSZdga1CTOnNQLhY55OGDFEj37nXt6G1TrggJ+xMRgMKLVJh61Y7/THTnhMX3R5pZuEX0ATz4UstslvzO/XWfmAlx7jlDBNp2Z21SSWudbdBa7imEHwAtGOyvNFkH9DL/v+3j5Kt0KEyWXNQnd1wPiqbEr6gfTXsnU7MIjY/epsxZhnnx0wxWkMGOfLi4AA47uTKlZm9BKFoe8/tuKZG9omjn52mzhvZs6U3FJKCtdmNO5hUfU0krn9DXdTNLJ0YHCCLQIpUvSarkr2mQ7SC8tIHdGjt1ti1CC0TbNSGHUrrsdKtEBpettk3CWlyKYu81UXZ6Ak6PqsAO0IgGEioN5ltC20//CnnQrK29vUewMEDKUVY2PrPrAO144a6CCG67jtRIDs3URN1Q7UhcXgBUBd+ga0SDUJVg+pcHahAU2N3qYTbcbabEDUBMu2u5HhDuj0Q8zzgW8H6Llt+CZhBNpSPTf2M4XoKTDdH9pfUtCdtxwZSiLOnFpVCa0Ot34Raq7w+fw1+UD2X74Wg5IbkFGOLbsNPK2XQdM9ZyAwxdNQqF2i5D7pWUUb/U2AOhvNAMDSmpCh43g0TElL+UkVwwbtaHxje17RZiQxNQOatevrPFCRagA89GOJXcgE3ZAqh5v7VrjmqKz1MSsaBRoKceNJJ32Ea/vqWQcaMrLiUjbdyVLlOUDODAKPpWIiGYubcIE0G0Ic24OzUd9fZJV0eH0RhEqsGX4H/7msm1xNSw1aye0vxw7TE1ayCYZHuqv9lVMnZGZ2bYiFAppRQ4rOP43kuZ5WRDFYCLA3for/sBXNSHRCP/gIW722ta1Lm7ZbZMQUOdiXk0Y7M5ZFZv7orCPgI6GaBAygVd0SrP/8YvSwamBWhMvoCREe8q6l6QvGjg7PLysAdyc71O828uMUMMU9y9bANgAG1K6vRmohljb+dWE+irjWUL6iW5GtwsQnYC2fQThbXMxyKaPNXo3gHMwSfh7m7BBow0Tp4OoS35jc7ZrEjb6snAZvau4GOBNvov60iX+TcIbbnKhO9Hgt2wF5sKTurMOOSNz5Hr+4ybhgfja8x56E/cc2eHnrx2ARWTc/HYQ2srdmJPwxDdNn/fNh8rha0xopVoyKd81oTF7HcazkcEy30wl/tEuhC/xoQBUF2FsRUQBzu5zdFFsHgbn0S7CdkjQmZbwPGBnXJnMDkIsGAd0U9ocW0FHPL4RiW8TdkJarGymrsbpOsHTKa0yT6Rw3x6Gn9R+Obry1BaA5ixDZ4/qi9RZR8GMpJPfAs1vDlvvFgF616+0lL32dRJ0D8Ha9Oy+iEyHsyzRZ5geADdg/Z80nhSzM3dbifvzxwSjngwHySXIWOcg86cD09wduHoUUz8O8miJ63RwM3MzgMFPuu8SrvzvGsy05xfjWpE/G3xWHbvywnYx3wqeEW5jO+VuZvPq9infLcytTyGAGnZ9iP71M8Idsnylr2G13/XccyEphvIaXsKrn+DjyHTEGDJQulsF4i0a6DnmJ0e6RhKb4iJUoLBGvVN/UryMKtTRNa/dpkF616o16XXC05dNO+PSwMtbQnccdAr2S0dg3fVdcO5Rt3/a6zD6+HeFgjrwUFm4dMVm8caw6ZjY+IhHPmKFmls9sgotafeLU5yW4ieOdXl0d/Dezb1af953dV1r3gkjVhGPEqvksaVJHXvw/NbKO0mvjcwmfZn4sZjYhBFNJQMX6YKydxaZyOa/F0NCyPqNLV9mXldytz5LHfunXTB8VCncRGDCiB7xCKs8jrDrC4KzXE4qillb6vfbqtV0iYS1nNj4iCnq22FF9mwCP48MZIEOo5143ygbu4CG1bfs3T8i5mVH0q0VK/3j0Rfb/83UW4L1YP/rlSZGDI54wg9YQI8iThf/cO3KyaMvk511D/LE882cPjjirZuJPovrbHiTNKZ5nl1xqx7YDuXYyA+UHxvRQrh94QUFfIQLm5gp0PuH3B9MXDx4arqFGB7ROb5n+VGNE2uoafuk0dHl/M35ErhYtKtc2YP6oFQkgyPeRN3SedSFeyJcKczX+LiSFU7EVS34puz/8oFeGUMjQkjdT+m4D+Qdr+Dq3VAKV4HqmlhaqAL9I2rd8duCs09EHPBHev7Bb1nAe94AyBNfLQ6BNzkA6N/3ic/8x8vCyjjZuuwd0f/nbTca/XD7WgIyO0kLvJ+58F3ufPETJQDff7/fhPtKMe7H3twAHqUzft+XcTc2YsR+tC4NaMBdM/WvTcMZGDn126CbuRI+BNydWRofuHF+4biDIxZwb6XAfWRKV4nCx/xgI5yZQi6+1Ge4BH/dXlDptrJ/6RlV8cCINV4slrYDN2eVoBd64mhn142oocc2VtJytVeurFpH34jTkDjZtM08K6Cezjz2B/i3tCSxT3qldZudw6c/tYIqhFwiup4feN6tyXQbPwlfsE6/4tl8Uey507g5INyre89y71vuieCnZmstbq9h3W0es5YDxMi+35uHmNMxpFgaOCM55j/Tq1AzGSb994X/n7jzCaNe2e0KV3FSUJauevyUMtxTp5+x75tUYIurbLcj4Pr0rZ7Cxi59UVWU98TDqEBddcS7ZUa1vQOuhzDgCJh6v07+hE8KmJWuSnVP3GRtfRA7/oYtIwb4R12PYUfAOHzz2cwoBWrlGnFTM5z/j0tY/1EvnfoE12PQEXCD/Cc9iZZDclLuWVifNlVTpfKJ+RTXY8QR+JW/M9zxaKLjnig0nUkscXhEuR6jjkDGqZu2OpgwAl/1UevYBl0P13NDjoCD9tBKtr1iVBMbGnHmpzzuCLgaNB4oXM8xmEhEA53viYMjXruZGHME4u21cU0eR+sSHic2OOLGhxlxBDaZy/1+1dNrE63Wr6J2HR7RT2XcEUjhFVdj0xwUW3Q0T/FrEDE44p3v8hRHIPZe62qgP9bo9sEyJ64WDIMjYiQTyiFHIGty+xhWyBaYp2XzAF9AIbf5SnG1Nz5iTqadTigcgeIb6/lu+aEpS1YDjDX6BRRLSZphLaM+ZcRpjkDhc90fut6eeTdQaYmBi1ijOx4n83TDSaHyaSNOcgTAjqn/X+v5Zz17Y402q9/oCVSWZuKIkxwBoNb7QmXXDB5rLNHS6VNHHHUEDNU9GYvrYtzm1xXewbswbURDnyOQUUp69z24dLPbnN3E+IgTkfViX48fe32T8d41Xtn/cfYYIY819nhm7xLGsiOxxufHhOhmh5C+e4xGNxv/wP5cGIlufgqMZZgYa3x+TI01Pj8mxxqfH4+LNbaws/N/lEy/skWA9XgAAAAASUVORK5CYII=;" vertex="1" parent="SVzCEJU157vRpgFHD0QC-18">
          <mxGeometry x="76.98347826086956" y="80.455938697318" width="61.78481896551724" height="55.189655172413794" as="geometry" />
        </mxCell>
        <mxCell id="SVzCEJU157vRpgFHD0QC-22" value="" style="edgeStyle=orthogonalEdgeStyle;rounded=0;orthogonalLoop=1;jettySize=auto;html=1;strokeColor=#000000;strokeWidth=2;fontFamily=Helvetica;fontSize=17;endArrow=none;endFill=0;fillColor=default;gradientColor=#A9C4EB;" edge="1" parent="SVzCEJU157vRpgFHD0QC-18" source="SVzCEJU157vRpgFHD0QC-23">
          <mxGeometry relative="1" as="geometry">
            <mxPoint x="108.25" y="174" as="targetPoint" />
            <Array as="points">
              <mxPoint x="131" y="173" />
            </Array>
          </mxGeometry>
        </mxCell>
        <mxCell id="SVzCEJU157vRpgFHD0QC-23" style="vsdxID=780;fillColor=#4D4D4D;shape=stencil(lVjRdtsgDP2avOoAAmw/d9t/9KzpmrOu6Unbrf37kWM7CAmQ/RYcCa6kq2vhA969Pd2/Hg/OvL1fzr+P/04P708H/HZw7vTydLyc3tOvA34/4N3j+XL8dTl/vDzM69f7q+X115/z3+sOn7NfMFcXZ77m5bz6MVv+/LjMpnb+0wWY7GJuqb35dMXya1lGwLAYYGmwLJ0BtPTI59MLAVdiGyaIUw+fKbFNCNGX+GgEyyNrTAkxMIyrQePQwYOZyoPzlvyM9VAKDbkNNsItc5PtG6nkQLODFdVxOZaxRKokx7QB9phVcnByMMZ9paYuy6NxAM/jSWkeROaH0I8pm7T6IGUOBdcGfjhYX55NEaIw2lZ24rBUcQTTr7uH4Eq0qc5rXla06ABdCXcYwWI/VdmkcXgcII7scLLtmpgAnvGOQkRZc2wEXyZrA7F2O2jUjQYm3z/B9x1qXPdlDq8+rIAUySq/Vk+gBdMtYKXRUtIF12WjaV22u8X0/qLAmv2lRkxcLMtjPplnmtQDhRFuYobs7J32fgIXdypBSC9EpypBmADHfjmzyXYloNu2lYBCbBNZBK819oY+VRw0JfAOrKI1vu+wQQmSj2MFrCjB1SroOUxW3RpWxCCwUaeiBCGKwwV7bibb9YBu25SEwOYXqQdq0FIPaDabkkAL05QEhSKyxXfao10njpYkRAhlcDisL7ysCKmmPDoDUZkNsklLEVJNeWbJtqsi4A2hkwjbZBaha/29oV0Vh+7NCr0ikBWKZ58Oxd14G9rbLFdvB5Ll1kHg1ycC8XbF03pba22qGFZs2tY0iq9NAzXwiqbRjLZljRanEbqoefeGJKxLPqW5OQyFw2i11BKX9dEEgXeYAcuHNzn6j05eVbTpf/Rg2QeD+vQ/sEs5RYnSCjfGT33sLYyJzxwEZX7Ea1uJf9RammbWyp2drJKTKFFateJnbwOdMBrDooO9BEtj0sATLAlWmSgrCVaHygrB6kMlJxhF2SaYFn6FX9GLeazCrxjE67MSfrbazi+6c5tfFGWbXzx8jV7cXmOX1z60VOiVXrpG16/KeFLJrzqhVOhVm1AkvSjKNr3U+Cv88vmC1OGXjzDq7ZWttvOL7tzmF0XZ5peIXyOYcEg/8oftx9Pz8/xdnP7PP4SnR/NHdPz+Hw==);strokeColor=#666666;strokeWidth=0;shadow=0;spacingTop=-3;spacingBottom=-3;spacingLeft=-3;spacingRight=-3;labelBackgroundColor=none;rounded=0;html=1;whiteSpace=wrap;fontColor=#333333;" vertex="1" parent="SVzCEJU157vRpgFHD0QC-18">
          <mxGeometry x="153.80027173913047" y="143.43462148236233" width="49.18478260869566" height="59.965913594926676" as="geometry" />
        </mxCell>
        <mxCell id="SVzCEJU157vRpgFHD0QC-24" value="&lt;font style=&quot;direction: ltr; letter-spacing: 0px; line-height: 120%; opacity: 1;&quot;&gt;&lt;b&gt;&lt;font style=&quot;font-size: 20px&quot;&gt;Client 1&lt;/font&gt;&lt;br&gt;&lt;/b&gt;&lt;/font&gt;" style="verticalAlign=middle;align=center;vsdxID=100;fillColor=none;gradientColor=none;shape=stencil(nZBLDoAgDERP0z3SIyjew0SURgSD+Lu9kMZoXLhwN9O+tukAlrNpJg1SzDH4QW/URgNYgZTkjA4UkwJUgGXng+6DX1zLfmoymdXo17xh5zmRJ6Q42BWCfc2oJfdAr+Yv+AP9Cb7OJ3H/2JG1HNGz/84klThPVCc=);strokeColor=none;labelBackgroundColor=none;rounded=0;html=1;whiteSpace=wrap;fontFamily=Verdana;fontColor=#A680B8;" vertex="1" parent="SVzCEJU157vRpgFHD0QC-18">
          <mxGeometry x="-1.0991847826086971" y="211.40996168582376" width="226.25000000000003" height="31.019157088122604" as="geometry" />
        </mxCell>
        <mxCell id="SVzCEJU157vRpgFHD0QC-25" value="" style="endArrow=classic;html=1;rounded=0;strokeColor=#000000;strokeWidth=2;fontFamily=Helvetica;fontSize=17;fillColor=default;gradientColor=#A9C4EB;edgeStyle=orthogonalEdgeStyle;entryX=0.5;entryY=1;entryDx=0;entryDy=0;startArrow=none;startFill=0;endFill=1;exitX=0.95;exitY=0.535;exitDx=0;exitDy=0;exitPerimeter=0;" edge="1" parent="SVzCEJU157vRpgFHD0QC-18">
          <mxGeometry width="50" height="50" relative="1" as="geometry">
            <mxPoint x="64.52989130434798" y="173.5713370326331" as="sourcePoint" />
            <mxPoint x="107.87588774362825" y="135.6455938697319" as="targetPoint" />
            <Array as="points">
              <mxPoint x="108" y="174" />
            </Array>
          </mxGeometry>
        </mxCell>
        <mxCell id="SVzCEJU157vRpgFHD0QC-26" style="vsdxID=756;rotation=270;fillColor=none;gradientColor=none;strokeColor=none;shadow=0;labelBackgroundColor=none;rounded=0;html=1;whiteSpace=wrap;" vertex="1" parent="SVzCEJU157vRpgFHD0QC-18">
          <mxGeometry x="90.84375000000001" y="-10.662835249042145" width="33.44565217391305" height="78.51724137931035" as="geometry" />
        </mxCell>
        <mxCell id="SVzCEJU157vRpgFHD0QC-27" style="vsdxID=757;rotation=270;fillColor=#e1d5e7;shape=stencil(vVTbjoMgEP0aHiXIGBee2+5/kC0qKRUzslv798Wg2WK1T41vcznMcE5mhsChb1SnCWe9R3fRN3P2DYEj4dy0jUbjg0XgROBQOdQ1ut/2HP1OjcjRurq/scIQ3+VsfMLZfXaj/x2x1rRPWPkxrMKfkMP5DzkteYTjhC9oUcTIkBaYC8qS5mJCZGowfYbOK29cG/MT2iqsdRbaZZVVdZLqb1p3L+FVMsvmQAXfpiMoFCkboLlM2CzUYXsRWe27QfkTyFQYScWLMF9lIsyGzjtIszVe6xMLlMFyYqUg6cSubsAu4/pu94LxfwwqY228Jc/55fEIoXh44PQA);strokeColor=#9673a6;strokeWidth=2;shadow=0;labelBackgroundColor=none;rounded=0;html=1;whiteSpace=wrap;" vertex="1" parent="SVzCEJU157vRpgFHD0QC-26">
          <mxGeometry x="0.9836956521739132" y="2.9080459770114944" width="29.510869565217394" height="75.60919540229885" as="geometry" />
        </mxCell>
        <mxCell id="SVzCEJU157vRpgFHD0QC-28" style="vsdxID=758;rotation=270;fillColor=#bfbfbf;gradientColor=none;shape=stencil(vVHLDsIgEPwajiQU4hfU+h8bu7RELM2CFv9eyMZYjCcP3mZ2Zh/ZEaaPM6wotIqJwgU3N6ZZmKPQ2i0zkksFCTMI09tAOFG4LSPzFaqzomu41wmZ+1Tt0OrB7MD0xE6gc5EoN5qi1vsa1Kmvo1SWkF2UFBIkF5ZmqweaUJY10nqYGiluiOuu3P182P/OKuD9Zuu855T2+mcspcSRmuEJ);strokeColor=#000000;strokeWidth=2;shadow=1;labelBackgroundColor=none;rounded=0;html=1;whiteSpace=wrap;" vertex="1" parent="SVzCEJU157vRpgFHD0QC-26">
          <mxGeometry x="-16.722826086956523" y="31.957854406130274" width="17.706521739130434" height="16.478927203065137" as="geometry" />
        </mxCell>
        <mxCell id="SVzCEJU157vRpgFHD0QC-29" style="vsdxID=759;rotation=270;fillColor=#f2f2f2;gradientColor=none;shape=stencil(vVHLDsIgEPwajiQU4hfU+h8bu7RELM2CFv9eyMZYjCcP3mZ2Zh/ZEaaPM6wotIqJwgU3N6ZZmKPQ2i0zkksFCTMI09tAOFG4LSPzFaqzomu41wmZ+1Tt0OrB7MD0xE6gc5EoN5qi1vsa1Kmvo1SWkF2UFBIkF5ZmqweaUJY10nqYGiluiOuu3P182P/OKuD9Zuu855T2+mcspcSRmuEJ);strokeColor=#000000;strokeWidth=2;shadow=1;labelBackgroundColor=none;rounded=0;html=1;whiteSpace=wrap;" vertex="1" parent="SVzCEJU157vRpgFHD0QC-26">
          <mxGeometry x="32.46195652173913" y="31.98850574712644" width="17.706521739130434" height="16.478927203065137" as="geometry" />
        </mxCell>
        <mxCell id="SVzCEJU157vRpgFHD0QC-30" style="vsdxID=760;rotation=270;fillColor=none;gradientColor=none;shape=stencil(nZBLDoAgDERP0z3SIyjew0SURgSD+Lu9kMZoXLhwN9O+tukAlrNpJg1SzDH4QW/URgNYgZTkjA4UkwJUgGXng+6DX1zLfmoymdXo17xh5zmRJ6Q42BWCfc2oJfdAr+Yv+AP9Cb7OJ3H/2JG1HNGz/84klThPVCc=);strokeColor=none;strokeWidth=2;shadow=1;labelBackgroundColor=none;rounded=0;html=1;whiteSpace=wrap;" vertex="1" parent="SVzCEJU157vRpgFHD0QC-26">
          <mxGeometry x="5" y="18.39" width="23.45" height="31.02" as="geometry" />
        </mxCell>
        <mxCell id="SVzCEJU157vRpgFHD0QC-31" value="&lt;font style=&quot;font-size: 19px; font-family: SimSun; color: rgb(0, 0, 0); direction: ltr; letter-spacing: 0px; line-height: 120%; opacity: 1;&quot;&gt;...&lt;br style=&quot;font-size: 19px;&quot;&gt;&lt;/font&gt;" style="text;vsdxID=760;rotation=89.43;fillColor=none;gradientColor=none;strokeColor=none;strokeWidth=2;shadow=1;labelBackgroundColor=none;rounded=0;html=1;whiteSpace=wrap;verticalAlign=middle;align=center;horizontal=0;;html=1;fontSize=19;" vertex="1" parent="SVzCEJU157vRpgFHD0QC-30">
          <mxGeometry x="1.9541666666666666" y="1.9387499999999998" width="24.251208333333327" height="31.533768749999997" as="geometry" />
        </mxCell>
        <mxCell id="SVzCEJU157vRpgFHD0QC-32" value="1" style="ellipse;whiteSpace=wrap;html=1;aspect=fixed;strokeWidth=2;fontFamily=Tahoma;spacingBottom=4;spacingRight=2;strokeColor=#d3d3d3;fontSize=16;fontStyle=1" vertex="1" parent="SVzCEJU157vRpgFHD0QC-18">
          <mxGeometry x="71.84239130434783" y="144.36" width="24.899478260869564" height="24.899478260869564" as="geometry" />
        </mxCell>
        <mxCell id="SVzCEJU157vRpgFHD0QC-33" value="2" style="ellipse;whiteSpace=wrap;html=1;aspect=fixed;strokeWidth=2;fontFamily=Tahoma;spacingBottom=4;spacingRight=2;strokeColor=#d3d3d3;fontSize=16;fontStyle=1" vertex="1" parent="SVzCEJU157vRpgFHD0QC-18">
          <mxGeometry x="121.09239130434784" y="60.03" width="23.05858695652174" height="23.05858695652174" as="geometry" />
        </mxCell>
        <mxCell id="SVzCEJU157vRpgFHD0QC-34" value="2" style="ellipse;whiteSpace=wrap;html=1;aspect=fixed;strokeWidth=2;fontFamily=Tahoma;spacingBottom=4;spacingRight=2;strokeColor=#d3d3d3;fontSize=16;fontStyle=1" vertex="1" parent="SVzCEJU157vRpgFHD0QC-18">
          <mxGeometry x="121.09239130434784" y="145.31" width="24.0075" height="24.0075" as="geometry" />
        </mxCell>
        <mxCell id="SVzCEJU157vRpgFHD0QC-35" value="" style="edgeStyle=none;rounded=0;orthogonalLoop=1;jettySize=auto;html=1;strokeColor=#000000;strokeWidth=2;fontFamily=Helvetica;fontSize=17;startArrow=none;startFill=0;endArrow=classic;endFill=1;fillColor=default;gradientColor=#A9C4EB;" edge="1" parent="SVzCEJU157vRpgFHD0QC-18">
          <mxGeometry relative="1" as="geometry">
            <mxPoint x="107.69453418027406" y="80.46000000000004" as="sourcePoint" />
            <mxPoint x="107.23033655030609" y="46.460000000000036" as="targetPoint" />
          </mxGeometry>
        </mxCell>
        <mxCell id="SVzCEJU157vRpgFHD0QC-36" value="" style="group" vertex="1" connectable="0" parent="1">
          <mxGeometry x="1130" y="-715" width="239" height="418.99999999999994" as="geometry" />
        </mxCell>
        <mxCell id="SVzCEJU157vRpgFHD0QC-37" value="" style="rounded=0;whiteSpace=wrap;html=1;strokeWidth=2;strokeColor=none;" vertex="1" parent="SVzCEJU157vRpgFHD0QC-36">
          <mxGeometry x="17" y="12" width="222" height="251" as="geometry" />
        </mxCell>
        <mxCell id="SVzCEJU157vRpgFHD0QC-38" style="vsdxID=780;fillColor=#A9C4EB;shape=stencil(lVjRdtsgDP2avOoAAmw/d9t/9KzpmrOu6Unbrf37kWM7CAmQ/RYcCa6kq2vhA969Pd2/Hg/OvL1fzr+P/04P708H/HZw7vTydLyc3tOvA34/4N3j+XL8dTl/vDzM69f7q+X115/z3+sOn7NfMFcXZ77m5bz6MVv+/LjMpnb+0wWY7GJuqb35dMXya1lGwLAYYGmwLJ0BtPTI59MLAVdiGyaIUw+fKbFNCNGX+GgEyyNrTAkxMIyrQePQwYOZyoPzlvyM9VAKDbkNNsItc5PtG6nkQLODFdVxOZaxRKokx7QB9phVcnByMMZ9paYuy6NxAM/jSWkeROaH0I8pm7T6IGUOBdcGfjhYX55NEaIw2lZ24rBUcQTTr7uH4Eq0qc5rXla06ABdCXcYwWI/VdmkcXgcII7scLLtmpgAnvGOQkRZc2wEXyZrA7F2O2jUjQYm3z/B9x1qXPdlDq8+rIAUySq/Vk+gBdMtYKXRUtIF12WjaV22u8X0/qLAmv2lRkxcLMtjPplnmtQDhRFuYobs7J32fgIXdypBSC9EpypBmADHfjmzyXYloNu2lYBCbBNZBK819oY+VRw0JfAOrKI1vu+wQQmSj2MFrCjB1SroOUxW3RpWxCCwUaeiBCGKwwV7bibb9YBu25SEwOYXqQdq0FIPaDabkkAL05QEhSKyxXfao10njpYkRAhlcDisL7ysCKmmPDoDUZkNsklLEVJNeWbJtqsi4A2hkwjbZBaha/29oV0Vh+7NCr0ikBWKZ58Oxd14G9rbLFdvB5Ll1kHg1ycC8XbF03pba22qGFZs2tY0iq9NAzXwiqbRjLZljRanEbqoefeGJKxLPqW5OQyFw2i11BKX9dEEgXeYAcuHNzn6j05eVbTpf/Rg2QeD+vQ/sEs5RYnSCjfGT33sLYyJzxwEZX7Ea1uJf9RammbWyp2drJKTKFFateJnbwOdMBrDooO9BEtj0sATLAlWmSgrCVaHygrB6kMlJxhF2SaYFn6FX9GLeazCrxjE67MSfrbazi+6c5tfFGWbXzx8jV7cXmOX1z60VOiVXrpG16/KeFLJrzqhVOhVm1AkvSjKNr3U+Cv88vmC1OGXjzDq7ZWttvOL7tzmF0XZ5peIXyOYcEg/8oftx9Pz8/xdnP7PP4SnR/NHdPz+Hw==);strokeColor=#6c8ebf;strokeWidth=0;shadow=0;spacingTop=-3;spacingBottom=-3;spacingLeft=-3;spacingRight=-3;labelBackgroundColor=none;rounded=0;html=1;whiteSpace=wrap;" vertex="1" parent="SVzCEJU157vRpgFHD0QC-36">
          <mxGeometry x="30" y="157.14172413793108" width="50" height="61.862068965517246" as="geometry" />
        </mxCell>
        <mxCell id="SVzCEJU157vRpgFHD0QC-39" value="" style="shape=image;verticalLabelPosition=bottom;labelBackgroundColor=default;verticalAlign=top;aspect=fixed;imageAspect=0;image=data:image/png,iVBORw0KGgoAAAANSUhEUgAAAKMAAACECAMAAAG8HFuqAAAAAXNSR0IArs4c6QAAAARnQU1BAACxjwv8YQUAAADnUExURQAAAICAgICAgICAgICAgICAgH19fYCAgICAgICAgICAgICAgIGBgYCAgICAgICAgICAgICAgICAgICAgICAgICAgH5+foCAgICAgICAgICAgH9/f39/f4CAgH9/f35+fn9/f39/f39/f39/f39/f39/f35+foCAgH9/f39/f39/f4CAgH5+fn9/f35+fn9/f39/f4CAgH9/f39/f39/f39/f35+fn5+fn9/f39/f39/f35+fn9/f35+fn9/f35+fn9/f39/f39/f35+foCAgH9/f4CAgH9/f35+foCAgH9/f35+fn9/f+uhoo8AAABMdFJOUwAIEBggKC8wNjg8QENGSFBSWGBiaGptcHR4gIePkZeanZ+hp62vsrS3v8fIys3Oz9HS19vf4eTm5+nr7O/w8fLz9ff4+Pn6+/z8/f5tRv/wAAAACXBIWXMAABcRAAAXEQHKJvM/AAAQGUlEQVRoQ81biWIjORFtHyEELxMyBIYcGEIwxAE2SwhgwFweloVF//89vFdVkkpqdezYs5N5u27daqlUl6ozXdct8eshdNNg2Qz27Nd2E9T2qwPqQjiRNJYVm+6MWf8jwpuqNszCuAujB5mJ/61RecM2lgRhpOkR87lWE1Zxmu46zcCyQrP+J8ldVRu69Z1OwgpL75jRcoVGpXunB/dRAf36XVkz1mwGKkEVKySEcL9A09TeiHVbF25cVy0jpc4qb/CTtLsNF6E7DiB6CLeoXHM4WrowCSsdwRJTHHk4qiqRCd3bEEZM78dvb6q3P+LHVEdZ5YVmu3dduEYFzvcxnKKMysdzeztLHqiYW9YhhCfLeWANaRnPQvu82951YV1Aa80MI4TTrrsPy7BJlAjhXHMKlNHFISy6TVijXgobqQN4Hnga6RQy0k1ssDJ+ZAMtSoPNGcIjkmn4bngrZbwjKGPwREKQ/SEVUddD6sYoXyPlERJS+bkVFGfhveUU8W34/314YAFE4N6XNieeYca0I89J+o7vB5jHGB2EHNJRQW3hkDc2ihMZrBzr5piZ2Ucyl1TyCSiHSTlAd4kshSC82F0yKznFo5WxbkGgpnkeIRx3kKYWP/ZwsTQibIEsKyq756CyWmxhANZnh652ULv0FKZCz61d09vDVopK1xBIAqXpaTU/VI2KCnUPm8IjOqMsRZ6GQctTLchrV+wdwAAs5Fk1l8sEGQSjTesJRzGjZwJmy5Bx/7T36DsJKdaTTtiBIsmWOEISlXoOFAPNTPi3NIlmtiqmkBIWHqi5tRr7YSOZmlXcnpbfMMMxXbg6khrsx1T1KEANUxestNwFtVHs1Z3YMAWE2Rc7o3EIP5OnFAxlKb2dE8AsS0ExqVTqebjEE3uj+sGWRORlACgiKcavmXZP0kMV4g11hoCk1RdqWa3o0o5Kqn4rxxfCmeiBqKiLZVFbkK+Uw5Bhcs7Zpez1ubRFfpb5BVIsJqVeYgejb9x27MmyjcQPGsgGwyIatHzFJ7NY3xE7qV9yBgZJpoNNqMMp6xgkMnHMlnwbwAJIz2IR7PIsrEOc8BnEt6eFDUO67jClGqadOhJjMi2xsIpDccXJHmazC5nVKg8CVpitBuYsnYN9gDV69/5DrBPawTSogMqocGr2wFkUZAXJCVhpT8itwYD5I6hT9gZUFEH9KAoBz5HonmiY1QAJej47Ab0RkW25Va51BHLmu6nTB1AmOyr3vgMgPCiqqHZcHLgqpvfsQpnJa+uPwa0hy2gc2QecNm1RGVSNIVCzUsHaCLQXjmwGbg/akTzldY+Qo4a1EWhP/HOxXN64obARGzFoAqsEqvKtFO1mRKAkxJ5Lg0JVvtExkPRy3lIt2uWICzWHDrlH6SnetW6BPUk4e4+wEzM64a29lD0MogCQcndkABE87S0Qs8sTYKqgc8SbH97Lp+cZxz3klhHJYmXCSTWE58SyhMyj+2Au0qGGdLuyQg04GV72pK8eGnNDUwr5Ld8H2tRrJ1BYyBVirpMPDEPDn/Hz2ysg8oxZpwtmhMByBwjHURikJBCC8rgwG57K1k7ZSJlQ9x3YJNHTIllAskIbnh0GcQnSh7u3CeVwGMfIk9ZA22l+eTpN00kp3oD85/hZqWafAmgRDlSOy6RWZVTD2gi0q09bA91Em5nacJcfrahgbURe5rGKs5lx5Dijap3v46fVBArV7QpCqq8XoJ1sYARSwP7ieW2nSFeOh2JbZ2V0/BPYzySLx0xbSHpFYWMdXvtrdsuKVz1WQcsj8gpPuAqqsWEhfRVxBk590itYE5dYyH0kScOOO/23F+AJ+WPHjJY7AF5Jke3ybW5/GHnNLFjlwTAh3wzpsn1wPF8uD3JZKogGIfzRHwKbjvgwfrVMdTmbifpVm3MYaJhN21MuD+cfqppEvhxkPQBgRKdWMOPBLFSuCq7KwZQsZ4Td+tqye6OiHIo7XA6fRTmjmoTDSIkJnNe0lBm9CXk5wDDqJwh0wiFruSMwPukI5P8uMx7ElnQ89CYqlp6z/oQZLzwioOHBkadAaaWjxRPPnvIIRbQSR3du7c7Tbn6QSqTKQ/IIOWUk2svo62xsz1ICtdlX2CD1YuEG31t0mNtknGwt+2VV31iyn8jxiNt0EueULRrwFD8VrhWecTO8Bda8WvsRTVrjXXypXCYW4NDMXWC1et/FS7CL3NlBnFKCqhNwr40tCX3HxHIlUK9BArma+D5SruBuk4Mz5iCwec0JxmMFKk/HchXQTxhcJty2Rh8aQ9FyFXjOSFQU6hmdthMpa7tOtQeAljEDoYLMY2rYc0cpujdCVvR9ZGJBugFBkL+yOiDuiz7Sj/GLh0+qch9WTL6YF6MUv9XiFxAS3p0kkKGOsEwjRTqLmBwP0yq8gosYsipczWbCKiZlcgW7YVPkShNU7S9v4EpAgL5zx9Q+MlBpkREtSBFFIKsKIRLpaxpFyu5uIiskgyShAGXxFrki/QeiGJuiC2/uNjeQIu1E6S1iT+56hfrvSetEYwFZSv19Bg0PFFUfJczfUtBgOcJiTOQXyTQ1SaRKUoYl0GI5Qs9dVk9yDJnunrx7VC3saQtD7jPN9cFueZ8l0GQ5Qi9xQh+ey9AaZcahaxOaXKzANCK5UjJtOprAW6EGT96yukSddaQi3NTIEhp7P7wDDrQsTxr2QANakC38tEFrkm1Fnp/ck/2ZqgzEMIGw/D0kUzhH3mtxKW6OVt0YGFAbj02gGxeqt9yshk0r2XhB3IjsfKx3e2UVBVmQATb2iVpHGgymFsTQCpL/rF+RueorZjXgwr3dyp7SB0oQAk/drwTvku68QuneqXd2A0xHqDKzU8TPzusE2SOeYLQ0TtRrcHGZPPlMoYz+hgorWdTFcR8IUXwhy0A3cLkyUOFGSDnPIEXHRBRiy5aI1tW0mNQptKKEd4hRtFyJ3O2vHKJZgfBABS/faLdcgbjEaNI0L5ByhUpzWq4AqmWJ4koBUqkoSwC0foqoAald17JRnRyFT06SbJw/lGS5jCjPIn7rNMVNUNcgAaeLu4AdmXuh0KYCqIrsKgV6tV7KwKy6Dq5NeYsZpgDPxbIJ7B73bV3rTxD4XesnMeVD0SQLLJ6GsqG4hTig+0RWxjFI0rKR/xPribnVFZrEW78I8dgNZH7MnJk+Oywbp72zJnHS46A+IaDyjowbHN9X2ZARVe4if2ypccT7ZDwzZC1HqCVu24JdUc7Iordk+6CcEbrhK8vujXJGCE/m1z0BR8vdzDD/gIneHWSYdLIQCqc/9wV5Xn13UbBtlnsZlH+Ni/3lZH+YASL8xf8QjEXT9DXVoZheZxc+rG+qsP8ngLOkXxz8ve7VoZargYdhDfZxkT5u3aTr/Pg6eg+fBi3NBXvw8QZgZMQdcN8+KsQMN02BCefrL1L9m/aHFPlq7T2pV4JepwZCwbqBg4K6HwKqE4fuyio5f/hQqn1PqJEZUNg58DI/2IwfABUZ7+876IVTsX49wzPS42wyZIoXGm5fi5jmRTecPLlFlFi3XPuPgHi7uCmpFOMdP1QF9Ed5Asth8zg6u1wsl8u7y7f7eXjHF3MMX95c9v25UXLOHt+JgE/O081uNekmyg2XZ9E8bnxMPeLEeXiCpxeRfNpzGZaVVZn6m5jDSvoZod91Y/2WBNyXhJrUC1Q8Dam0CiOzdTWqt3SnEl72WCU5UlUu18zT5MNlKcvnsLo5n81mZzfm4WKVlRPQRIzTwWe4wvDZRb6f9/2uo8ulnuf9daloTK5ElcutU2BeiO2guonGYJELO7cRxeGhIPokHtnuhtgUpVHlJNEJnpt5dv2/INBAwrbrgm3/rq/WjAGG/iitDyVLcj0yB/1ek5Z+NQo9q/vtr4+b1Lbl7247VO5WebvH7vYzQCwGZrf4djrtgJnTQNQLfEP7PmwlQQ4ZtwMROTSzBQNxDBtvpV2g+sl/cNYwFDHgGFnrVgz5VdpqhV1gHm8UjrHXum3GThelbRi4NOn44ui2wfibvFcskGhRYpzvwy2einEConnYZuC8VTvOqhcSvGiYMgvs/qhnt4C+YM/0Ff+V56a3CRWo8A9NGoLdU2oulpvRc2x9cBPuuSY/1WRTRhhPjIiL+Jcplehb7Ty9uTrvc91hGjbKxqdCZctGP7d6uB8npr5Ou2k80838lLsanc7TifA0jGIrZ4eOdAUbnvE4KbH7C6H29Dz5BYn8yU+8TjZ8dBnf6/7k4sK2BvwgaVg54zeZ8wrYCU5syYmz7I2RSwtV62Ahf8A8gp6TbdrP1LZbILCZmJWObDiJ9jlj4QywmSVVXJFwzhRnmiRsrjPd9ZxbF2z519ZYJMx1WuDqjS7mS3mWkjI6u1Hn6WlxXk93YoeLddsBwDOtcHwVXZp56eQqs+if2/Sgi/yXPIG1iEVilraVHkB04K6M9wfMXxM6pOVZA/YxXaALJJJD/LJ4VaE6BqxfG8rOQ65okthCsfxFK7d4XT1E0YHpaB/bEFRPDQSt4x9SgEXcLkz/v+i4BCP5/Pjy4Ix6ogOjCoNybZuPS3wxIfN1fTN0bgNQUWwabtUY738hCbAm2+Ylvkhm/LUFeBkrmzvT/4MLs7dU9cfpQvbwHa39lTyrr324X98N3a+jMbJ/nhceGyyZ7td91zte6+6c3Z/GXT/Z66L9VCyixU+zHZsBTngseNytLK3WmgQ5uB2xKPkhGVxinaSPcC+KwWfgNyjaNUz2le+KBe6jpTBrEE/YeufwTXboC/Brb8a4eYl/coQVfCv9EdrjsbuGpcVvbuV+nV2Ke3mL2c0sKSY9a63IcaWHS7lfZyvhvAVifFkQcJMdjITIuorbX0qy+rYkMMZ+QCI6ONay/nY7MgaH0EUZ1JhIxDQSrSaTYDoYALElfpHurV9bSijFPKzbW2Okyme24334li6xEdAwo1mN2wJlKmqpox5rtFSlOQ+Cp94Wpl5ImprWOL5/nsPISyRy4Ido/3ly9tea6jB71u3hxqgVTz4HXaILAoxcDLUdS4h/2LIVA6EIHb/79+/eEoGT30klMGDbClo/g4HhNt4KW6EM6Jd46oW8Z6QE5RXtGbSHm2tY/ZnlYLBXNVZe4ruKQo2/bQfU9Dwb+FJzNeBi6/jMy88Ge3WJ9vc0ng9vxjZRyQQKHdVefoIKTv/iABh7WWlLsNeWyIILUGyudF06Ve+8okuyTXXY8J7km0MQN5+tbTPYm5aYY1Bh7dwybQfhs00YR7XzVAR3m4j08UH+WVTAppW2BXvNLn+W9faqYle70SuKu/JORmLihxQujcQIALMGw8Fewf8shTfRui5N7MQKrJq2toU2r6XPCjsEex3uB415N5l7ahbO6E44Lw5gfeWYRGXg2WBvxO029hfMGhL+ArRcGj2kgeuuCxb7fX1sqCM3dDDSGL7c+pHlm4We9cA1bY9g7zcBC5c0D7sR7H0dmEO8S7D39bBjsPd1sVOw99WxPdj7KWBLsPfTwWCw9zXRdf8HdDL6BnzbfjgAAAAASUVORK5CYII=;" vertex="1" parent="SVzCEJU157vRpgFHD0QC-36">
          <mxGeometry x="91" y="92" width="72.94" height="59.07" as="geometry" />
        </mxCell>
        <mxCell id="SVzCEJU157vRpgFHD0QC-40" value="&lt;font style=&quot;direction: ltr; letter-spacing: 0px; line-height: 120%; opacity: 1;&quot;&gt;&lt;b&gt;&lt;font style=&quot;font-size: 20px&quot;&gt;Client M&lt;/font&gt;&lt;br&gt;&lt;/b&gt;&lt;/font&gt;" style="verticalAlign=middle;align=center;vsdxID=100;fillColor=none;gradientColor=none;shape=stencil(nZBLDoAgDERP0z3SIyjew0SURgSD+Lu9kMZoXLhwN9O+tukAlrNpJg1SzDH4QW/URgNYgZTkjA4UkwJUgGXng+6DX1zLfmoymdXo17xh5zmRJ6Q42BWCfc2oJfdAr+Yv+AP9Cb7OJ3H/2JG1HNGz/84klThPVCc=);strokeColor=none;labelBackgroundColor=none;rounded=0;html=1;whiteSpace=wrap;fontFamily=Verdana;fontColor=#7EA6E0;" vertex="1" parent="SVzCEJU157vRpgFHD0QC-36">
          <mxGeometry x="83" y="232" width="99" height="16" as="geometry" />
        </mxCell>
        <mxCell id="SVzCEJU157vRpgFHD0QC-41" value="" style="rounded=0;orthogonalLoop=1;jettySize=auto;html=1;strokeColor=#000000;strokeWidth=2;fontFamily=Helvetica;fontSize=17;startArrow=none;startFill=0;endArrow=none;endFill=0;fillColor=default;gradientColor=#A9C4EB;exitX=0.021;exitY=0.499;exitDx=0;exitDy=0;exitPerimeter=0;" edge="1" parent="SVzCEJU157vRpgFHD0QC-36" source="SVzCEJU157vRpgFHD0QC-42">
          <mxGeometry relative="1" as="geometry">
            <mxPoint x="165.93999999999983" y="186.52280640668516" as="sourcePoint" />
            <mxPoint x="129" y="188" as="targetPoint" />
          </mxGeometry>
        </mxCell>
        <mxCell id="SVzCEJU157vRpgFHD0QC-42" style="vsdxID=780;fillColor=#4D4D4D;shape=stencil(lVjRdtsgDP2avOoAAmw/d9t/9KzpmrOu6Unbrf37kWM7CAmQ/RYcCa6kq2vhA969Pd2/Hg/OvL1fzr+P/04P708H/HZw7vTydLyc3tOvA34/4N3j+XL8dTl/vDzM69f7q+X115/z3+sOn7NfMFcXZ77m5bz6MVv+/LjMpnb+0wWY7GJuqb35dMXya1lGwLAYYGmwLJ0BtPTI59MLAVdiGyaIUw+fKbFNCNGX+GgEyyNrTAkxMIyrQePQwYOZyoPzlvyM9VAKDbkNNsItc5PtG6nkQLODFdVxOZaxRKokx7QB9phVcnByMMZ9paYuy6NxAM/jSWkeROaH0I8pm7T6IGUOBdcGfjhYX55NEaIw2lZ24rBUcQTTr7uH4Eq0qc5rXla06ABdCXcYwWI/VdmkcXgcII7scLLtmpgAnvGOQkRZc2wEXyZrA7F2O2jUjQYm3z/B9x1qXPdlDq8+rIAUySq/Vk+gBdMtYKXRUtIF12WjaV22u8X0/qLAmv2lRkxcLMtjPplnmtQDhRFuYobs7J32fgIXdypBSC9EpypBmADHfjmzyXYloNu2lYBCbBNZBK819oY+VRw0JfAOrKI1vu+wQQmSj2MFrCjB1SroOUxW3RpWxCCwUaeiBCGKwwV7bibb9YBu25SEwOYXqQdq0FIPaDabkkAL05QEhSKyxXfao10njpYkRAhlcDisL7ysCKmmPDoDUZkNsklLEVJNeWbJtqsi4A2hkwjbZBaha/29oV0Vh+7NCr0ikBWKZ58Oxd14G9rbLFdvB5Ll1kHg1ycC8XbF03pba22qGFZs2tY0iq9NAzXwiqbRjLZljRanEbqoefeGJKxLPqW5OQyFw2i11BKX9dEEgXeYAcuHNzn6j05eVbTpf/Rg2QeD+vQ/sEs5RYnSCjfGT33sLYyJzxwEZX7Ea1uJf9RammbWyp2drJKTKFFateJnbwOdMBrDooO9BEtj0sATLAlWmSgrCVaHygrB6kMlJxhF2SaYFn6FX9GLeazCrxjE67MSfrbazi+6c5tfFGWbXzx8jV7cXmOX1z60VOiVXrpG16/KeFLJrzqhVOhVm1AkvSjKNr3U+Cv88vmC1OGXjzDq7ZWttvOL7tzmF0XZ5peIXyOYcEg/8oftx9Pz8/xdnP7PP4SnR/NHdPz+Hw==);strokeWidth=0;shadow=0;spacingTop=-3;spacingBottom=-3;spacingLeft=-3;spacingRight=-3;labelBackgroundColor=none;rounded=0;html=1;whiteSpace=wrap;strokeColor=#36393d;" vertex="1" parent="SVzCEJU157vRpgFHD0QC-36">
          <mxGeometry x="171" y="157.64" width="50" height="60.36" as="geometry" />
        </mxCell>
        <mxCell id="SVzCEJU157vRpgFHD0QC-43" style="vsdxID=756;rotation=270;fillColor=none;gradientColor=none;strokeColor=none;shadow=0;labelBackgroundColor=none;rounded=0;html=1;whiteSpace=wrap;" vertex="1" parent="SVzCEJU157vRpgFHD0QC-36">
          <mxGeometry x="110.38" y="1" width="34" height="81" as="geometry" />
        </mxCell>
        <mxCell id="SVzCEJU157vRpgFHD0QC-44" style="vsdxID=757;rotation=270;fillColor=#dae8fc;shape=stencil(vVTbjoMgEP0aHiXIGBee2+5/kC0qKRUzslv798Wg2WK1T41vcznMcE5mhsChb1SnCWe9R3fRN3P2DYEj4dy0jUbjg0XgROBQOdQ1ut/2HP1OjcjRurq/scIQ3+VsfMLZfXaj/x2x1rRPWPkxrMKfkMP5DzkteYTjhC9oUcTIkBaYC8qS5mJCZGowfYbOK29cG/MT2iqsdRbaZZVVdZLqb1p3L+FVMsvmQAXfpiMoFCkboLlM2CzUYXsRWe27QfkTyFQYScWLMF9lIsyGzjtIszVe6xMLlMFyYqUg6cSubsAu4/pu94LxfwwqY228Jc/55fEIoXh44PQA);strokeColor=#6c8ebf;strokeWidth=2;shadow=0;labelBackgroundColor=none;rounded=0;html=1;whiteSpace=wrap;" vertex="1" parent="SVzCEJU157vRpgFHD0QC-43">
          <mxGeometry x="1" y="3" width="30" height="78" as="geometry" />
        </mxCell>
        <mxCell id="SVzCEJU157vRpgFHD0QC-45" style="vsdxID=758;rotation=270;fillColor=#bfbfbf;gradientColor=none;shape=stencil(vVHLDsIgEPwajiQU4hfU+h8bu7RELM2CFv9eyMZYjCcP3mZ2Zh/ZEaaPM6wotIqJwgU3N6ZZmKPQ2i0zkksFCTMI09tAOFG4LSPzFaqzomu41wmZ+1Tt0OrB7MD0xE6gc5EoN5qi1vsa1Kmvo1SWkF2UFBIkF5ZmqweaUJY10nqYGiluiOuu3P182P/OKuD9Zuu855T2+mcspcSRmuEJ);strokeColor=#000000;strokeWidth=2;shadow=1;labelBackgroundColor=none;rounded=0;html=1;whiteSpace=wrap;" vertex="1" parent="SVzCEJU157vRpgFHD0QC-43">
          <mxGeometry x="-17" y="33" width="18" height="17" as="geometry" />
        </mxCell>
        <mxCell id="SVzCEJU157vRpgFHD0QC-46" style="vsdxID=759;rotation=270;fillColor=#f2f2f2;gradientColor=none;shape=stencil(vVHLDsIgEPwajiQU4hfU+h8bu7RELM2CFv9eyMZYjCcP3mZ2Zh/ZEaaPM6wotIqJwgU3N6ZZmKPQ2i0zkksFCTMI09tAOFG4LSPzFaqzomu41wmZ+1Tt0OrB7MD0xE6gc5EoN5qi1vsa1Kmvo1SWkF2UFBIkF5ZmqweaUJY10nqYGiluiOuu3P182P/OKuD9Zuu855T2+mcspcSRmuEJ);strokeColor=#000000;strokeWidth=2;shadow=1;labelBackgroundColor=none;rounded=0;html=1;whiteSpace=wrap;" vertex="1" parent="SVzCEJU157vRpgFHD0QC-43">
          <mxGeometry x="33" y="33" width="18" height="17" as="geometry" />
        </mxCell>
        <mxCell id="SVzCEJU157vRpgFHD0QC-47" style="vsdxID=760;rotation=270;fillColor=none;gradientColor=none;shape=stencil(nZBLDoAgDERP0z3SIyjew0SURgSD+Lu9kMZoXLhwN9O+tukAlrNpJg1SzDH4QW/URgNYgZTkjA4UkwJUgGXng+6DX1zLfmoymdXo17xh5zmRJ6Q42BWCfc2oJfdAr+Yv+AP9Cb7OJ3H/2JG1HNGz/84klThPVCc=);strokeColor=none;strokeWidth=2;shadow=1;labelBackgroundColor=none;rounded=0;html=1;whiteSpace=wrap;" vertex="1" parent="SVzCEJU157vRpgFHD0QC-43">
          <mxGeometry x="5" y="19" width="24" height="32" as="geometry" />
        </mxCell>
        <mxCell id="SVzCEJU157vRpgFHD0QC-48" value="&lt;font style=&quot;font-size: 16px; font-family: SimSun; color: rgb(0, 0, 0); direction: ltr; letter-spacing: 0px; line-height: 120%; opacity: 1;&quot;&gt;...&lt;br style=&quot;font-size: 16px;&quot;&gt;&lt;/font&gt;" style="text;vsdxID=760;rotation=89.43;fillColor=none;gradientColor=none;strokeColor=none;strokeWidth=2;shadow=1;labelBackgroundColor=none;rounded=0;html=1;whiteSpace=wrap;verticalAlign=middle;align=center;horizontal=0;;html=1;fontSize=16;fontStyle=1" vertex="1" parent="SVzCEJU157vRpgFHD0QC-47">
          <mxGeometry x="1" y="3" width="24.82" height="32.53" as="geometry" />
        </mxCell>
        <mxCell id="SVzCEJU157vRpgFHD0QC-49" value="" style="endArrow=classic;html=1;rounded=0;strokeColor=#000000;strokeWidth=2;fontFamily=Helvetica;fontSize=17;fillColor=default;gradientColor=#A9C4EB;edgeStyle=orthogonalEdgeStyle;" edge="1" parent="SVzCEJU157vRpgFHD0QC-36">
          <mxGeometry width="50" height="50" relative="1" as="geometry">
            <mxPoint x="81" y="188" as="sourcePoint" />
            <mxPoint x="129" y="146" as="targetPoint" />
          </mxGeometry>
        </mxCell>
        <mxCell id="SVzCEJU157vRpgFHD0QC-50" value="" style="edgeStyle=none;rounded=0;orthogonalLoop=1;jettySize=auto;html=1;strokeColor=#000000;strokeWidth=2;fontFamily=Helvetica;fontSize=17;startArrow=none;startFill=0;endArrow=classic;endFill=1;fillColor=default;gradientColor=#A9C4EB;" edge="1" parent="SVzCEJU157vRpgFHD0QC-36" source="SVzCEJU157vRpgFHD0QC-39" target="SVzCEJU157vRpgFHD0QC-44">
          <mxGeometry relative="1" as="geometry">
            <mxPoint x="126" y="92" as="sourcePoint" />
          </mxGeometry>
        </mxCell>
        <mxCell id="SVzCEJU157vRpgFHD0QC-51" value="1" style="ellipse;whiteSpace=wrap;html=1;aspect=fixed;strokeWidth=2;fontFamily=Tahoma;spacingBottom=4;spacingRight=2;strokeColor=#d3d3d3;fontSize=16;fontStyle=1" vertex="1" parent="SVzCEJU157vRpgFHD0QC-36">
          <mxGeometry x="92" y="158" width="26" height="26" as="geometry" />
        </mxCell>
        <mxCell id="SVzCEJU157vRpgFHD0QC-52" value="2" style="ellipse;whiteSpace=wrap;html=1;aspect=fixed;strokeWidth=2;fontFamily=Tahoma;spacingBottom=4;spacingRight=2;strokeColor=#d3d3d3;fontSize=16;fontStyle=1" vertex="1" parent="SVzCEJU157vRpgFHD0QC-36">
          <mxGeometry x="136" y="69" width="25" height="25" as="geometry" />
        </mxCell>
        <mxCell id="SVzCEJU157vRpgFHD0QC-53" value="2" style="ellipse;whiteSpace=wrap;html=1;aspect=fixed;strokeWidth=2;fontFamily=Tahoma;spacingBottom=4;spacingRight=2;strokeColor=#d3d3d3;fontSize=16;fontStyle=1" vertex="1" parent="SVzCEJU157vRpgFHD0QC-36">
          <mxGeometry x="143" y="158" width="25" height="25" as="geometry" />
        </mxCell>
        <mxCell id="SVzCEJU157vRpgFHD0QC-54" value="1" style="ellipse;whiteSpace=wrap;html=1;aspect=fixed;strokeWidth=2;fontFamily=Tahoma;spacingBottom=4;spacingRight=2;strokeColor=#d3d3d3;fontSize=18;fontStyle=1" vertex="1" parent="SVzCEJU157vRpgFHD0QC-36">
          <mxGeometry x="-45" y="318" width="20" height="20" as="geometry" />
        </mxCell>
        <mxCell id="SVzCEJU157vRpgFHD0QC-55" value="&lt;span style=&quot;font-size: 18px;&quot;&gt;Local Training&lt;/span&gt;" style="text;html=1;align=center;verticalAlign=middle;resizable=0;points=[];autosize=1;fontSize=18;fontStyle=0" vertex="1" parent="SVzCEJU157vRpgFHD0QC-36">
          <mxGeometry x="-27" y="310.99999999999994" width="130" height="34" as="geometry" />
        </mxCell>
        <mxCell id="SVzCEJU157vRpgFHD0QC-56" value="2" style="ellipse;whiteSpace=wrap;html=1;aspect=fixed;strokeWidth=2;fontFamily=Tahoma;spacingBottom=4;spacingRight=2;strokeColor=#d3d3d3;fontSize=18;fontStyle=1" vertex="1" parent="SVzCEJU157vRpgFHD0QC-36">
          <mxGeometry x="118" y="318.5" width="20" height="20" as="geometry" />
        </mxCell>
        <mxCell id="SVzCEJU157vRpgFHD0QC-57" value="&lt;span style=&quot;font-size: 18px;&quot;&gt;Predicting&lt;/span&gt;" style="text;html=1;align=center;verticalAlign=middle;resizable=0;points=[];autosize=1;fontSize=18;fontStyle=0" vertex="1" parent="SVzCEJU157vRpgFHD0QC-36">
          <mxGeometry x="134.5" y="310.99999999999994" width="98" height="34" as="geometry" />
        </mxCell>
        <mxCell id="SVzCEJU157vRpgFHD0QC-58" value="3" style="ellipse;whiteSpace=wrap;html=1;aspect=fixed;strokeWidth=2;fontFamily=Tahoma;spacingBottom=4;spacingRight=2;fontSize=18;strokeColor=#D3D3D3;fontStyle=1" vertex="1" parent="SVzCEJU157vRpgFHD0QC-36">
          <mxGeometry x="-43.75" y="354.5" width="20" height="20" as="geometry" />
        </mxCell>
        <mxCell id="SVzCEJU157vRpgFHD0QC-59" value="&lt;span style=&quot;font-size: 18px;&quot;&gt;Uploading&lt;/span&gt;" style="text;html=1;align=center;verticalAlign=middle;resizable=0;points=[];autosize=1;fontSize=18;fontStyle=0" vertex="1" parent="SVzCEJU157vRpgFHD0QC-36">
          <mxGeometry x="-26.75" y="348.99999999999994" width="99" height="34" as="geometry" />
        </mxCell>
        <mxCell id="SVzCEJU157vRpgFHD0QC-60" value="4" style="ellipse;whiteSpace=wrap;html=1;aspect=fixed;strokeWidth=2;fontFamily=Tahoma;spacingBottom=4;spacingRight=2;fontSize=18;strokeColor=#D3D3D3;fontStyle=1" vertex="1" parent="SVzCEJU157vRpgFHD0QC-36">
          <mxGeometry x="118.00000000000006" y="354.5" width="20" height="20" as="geometry" />
        </mxCell>
        <mxCell id="SVzCEJU157vRpgFHD0QC-61" value="&lt;span style=&quot;font-size: 18px;&quot;&gt;Aggregating&lt;/span&gt;" style="text;html=1;align=center;verticalAlign=middle;resizable=0;points=[];autosize=1;fontSize=18;fontStyle=0" vertex="1" parent="SVzCEJU157vRpgFHD0QC-36">
          <mxGeometry x="135.50000000000006" y="347.49999999999994" width="115" height="34" as="geometry" />
        </mxCell>
        <mxCell id="SVzCEJU157vRpgFHD0QC-62" value="5" style="ellipse;whiteSpace=wrap;html=1;aspect=fixed;strokeWidth=2;fontFamily=Tahoma;spacingBottom=4;spacingRight=2;fontSize=18;strokeColor=#D3D3D3;fontStyle=1" vertex="1" parent="SVzCEJU157vRpgFHD0QC-36">
          <mxGeometry x="-42.50999999999999" y="394.49999999999994" width="20" height="20" as="geometry" />
        </mxCell>
        <mxCell id="SVzCEJU157vRpgFHD0QC-63" style="vsdxID=756;rotation=270;fillColor=none;gradientColor=none;strokeColor=none;shadow=0;labelBackgroundColor=none;rounded=0;html=1;whiteSpace=wrap;" vertex="1" parent="1">
          <mxGeometry x="870" y="-894.8" width="34" height="81" as="geometry" />
        </mxCell>
        <mxCell id="SVzCEJU157vRpgFHD0QC-64" style="vsdxID=757;rotation=270;fillColor=#e1d5e7;shape=stencil(vVTbjoMgEP0aHiXIGBee2+5/kC0qKRUzslv798Wg2WK1T41vcznMcE5mhsChb1SnCWe9R3fRN3P2DYEj4dy0jUbjg0XgROBQOdQ1ut/2HP1OjcjRurq/scIQ3+VsfMLZfXaj/x2x1rRPWPkxrMKfkMP5DzkteYTjhC9oUcTIkBaYC8qS5mJCZGowfYbOK29cG/MT2iqsdRbaZZVVdZLqb1p3L+FVMsvmQAXfpiMoFCkboLlM2CzUYXsRWe27QfkTyFQYScWLMF9lIsyGzjtIszVe6xMLlMFyYqUg6cSubsAu4/pu94LxfwwqY228Jc/55fEIoXh44PQA);strokeColor=#9673a6;strokeWidth=2;shadow=0;labelBackgroundColor=none;rounded=0;html=1;whiteSpace=wrap;" vertex="1" parent="SVzCEJU157vRpgFHD0QC-63">
          <mxGeometry x="1" y="3" width="30" height="78" as="geometry" />
        </mxCell>
        <mxCell id="SVzCEJU157vRpgFHD0QC-65" style="vsdxID=758;rotation=270;fillColor=#bfbfbf;gradientColor=none;shape=stencil(vVHLDsIgEPwajiQU4hfU+h8bu7RELM2CFv9eyMZYjCcP3mZ2Zh/ZEaaPM6wotIqJwgU3N6ZZmKPQ2i0zkksFCTMI09tAOFG4LSPzFaqzomu41wmZ+1Tt0OrB7MD0xE6gc5EoN5qi1vsa1Kmvo1SWkF2UFBIkF5ZmqweaUJY10nqYGiluiOuu3P182P/OKuD9Zuu855T2+mcspcSRmuEJ);strokeColor=#000000;strokeWidth=2;shadow=1;labelBackgroundColor=none;rounded=0;html=1;whiteSpace=wrap;" vertex="1" parent="SVzCEJU157vRpgFHD0QC-63">
          <mxGeometry x="-17" y="33" width="18" height="17" as="geometry" />
        </mxCell>
        <mxCell id="SVzCEJU157vRpgFHD0QC-66" style="vsdxID=759;rotation=270;fillColor=#f2f2f2;gradientColor=none;shape=stencil(vVHLDsIgEPwajiQU4hfU+h8bu7RELM2CFv9eyMZYjCcP3mZ2Zh/ZEaaPM6wotIqJwgU3N6ZZmKPQ2i0zkksFCTMI09tAOFG4LSPzFaqzomu41wmZ+1Tt0OrB7MD0xE6gc5EoN5qi1vsa1Kmvo1SWkF2UFBIkF5ZmqweaUJY10nqYGiluiOuu3P182P/OKuD9Zuu855T2+mcspcSRmuEJ);strokeColor=#000000;strokeWidth=2;shadow=1;labelBackgroundColor=none;rounded=0;html=1;whiteSpace=wrap;" vertex="1" parent="SVzCEJU157vRpgFHD0QC-63">
          <mxGeometry x="33" y="33" width="18" height="17" as="geometry" />
        </mxCell>
        <mxCell id="SVzCEJU157vRpgFHD0QC-67" style="vsdxID=760;rotation=270;fillColor=none;gradientColor=none;shape=stencil(nZBLDoAgDERP0z3SIyjew0SURgSD+Lu9kMZoXLhwN9O+tukAlrNpJg1SzDH4QW/URgNYgZTkjA4UkwJUgGXng+6DX1zLfmoymdXo17xh5zmRJ6Q42BWCfc2oJfdAr+Yv+AP9Cb7OJ3H/2JG1HNGz/84klThPVCc=);strokeColor=none;strokeWidth=2;shadow=1;labelBackgroundColor=none;rounded=0;html=1;whiteSpace=wrap;fontStyle=0" vertex="1" parent="SVzCEJU157vRpgFHD0QC-63">
          <mxGeometry x="5" y="20" width="24" height="32" as="geometry" />
        </mxCell>
        <mxCell id="SVzCEJU157vRpgFHD0QC-68" value="&lt;font style=&quot;font-size: 19px; font-family: SimSun; color: rgb(0, 0, 0); direction: ltr; letter-spacing: 0px; line-height: 120%; opacity: 1;&quot;&gt;...&lt;br style=&quot;font-size: 19px;&quot;&gt;&lt;/font&gt;" style="text;vsdxID=760;rotation=89.43;fillColor=none;gradientColor=none;strokeColor=none;strokeWidth=2;shadow=1;labelBackgroundColor=none;rounded=0;html=1;whiteSpace=wrap;verticalAlign=middle;align=center;horizontal=0;;html=1;fontSize=19;fontStyle=1" vertex="1" parent="SVzCEJU157vRpgFHD0QC-67">
          <mxGeometry x="2" y="2" width="24.82" height="32.53" as="geometry" />
        </mxCell>
        <mxCell id="SVzCEJU157vRpgFHD0QC-69" style="vsdxID=756;rotation=270;fillColor=none;gradientColor=none;strokeColor=none;shadow=0;labelBackgroundColor=none;rounded=0;html=1;whiteSpace=wrap;fontSize=12;" vertex="1" parent="1">
          <mxGeometry x="963" y="-894.8" width="34" height="81" as="geometry" />
        </mxCell>
        <mxCell id="SVzCEJU157vRpgFHD0QC-70" style="vsdxID=757;rotation=270;fillColor=#FFE6CC;shape=stencil(vVTbjoMgEP0aHiXIGBee2+5/kC0qKRUzslv798Wg2WK1T41vcznMcE5mhsChb1SnCWe9R3fRN3P2DYEj4dy0jUbjg0XgROBQOdQ1ut/2HP1OjcjRurq/scIQ3+VsfMLZfXaj/x2x1rRPWPkxrMKfkMP5DzkteYTjhC9oUcTIkBaYC8qS5mJCZGowfYbOK29cG/MT2iqsdRbaZZVVdZLqb1p3L+FVMsvmQAXfpiMoFCkboLlM2CzUYXsRWe27QfkTyFQYScWLMF9lIsyGzjtIszVe6xMLlMFyYqUg6cSubsAu4/pu94LxfwwqY228Jc/55fEIoXh44PQA);strokeColor=#FFCE9F;strokeWidth=2;shadow=0;labelBackgroundColor=none;rounded=0;html=1;whiteSpace=wrap;" vertex="1" parent="SVzCEJU157vRpgFHD0QC-69">
          <mxGeometry x="1" y="3" width="30" height="78" as="geometry" />
        </mxCell>
        <mxCell id="SVzCEJU157vRpgFHD0QC-71" style="vsdxID=759;rotation=270;shape=stencil(vVHLDsIgEPwajiQU4hfU+h8bu7RELM2CFv9eyMZYjCcP3mZ2Zh/ZEaaPM6wotIqJwgU3N6ZZmKPQ2i0zkksFCTMI09tAOFG4LSPzFaqzomu41wmZ+1Tt0OrB7MD0xE6gc5EoN5qi1vsa1Kmvo1SWkF2UFBIkF5ZmqweaUJY10nqYGiluiOuu3P182P/OKuD9Zuu855T2+mcspcSRmuEJ);strokeWidth=2;shadow=1;labelBackgroundColor=none;rounded=0;html=1;whiteSpace=wrap;fillColor=#B3B3B3;" vertex="1" parent="SVzCEJU157vRpgFHD0QC-69">
          <mxGeometry x="33" y="33" width="18" height="17" as="geometry" />
        </mxCell>
        <mxCell id="SVzCEJU157vRpgFHD0QC-72" style="vsdxID=760;rotation=270;fillColor=none;gradientColor=none;shape=stencil(nZBLDoAgDERP0z3SIyjew0SURgSD+Lu9kMZoXLhwN9O+tukAlrNpJg1SzDH4QW/URgNYgZTkjA4UkwJUgGXng+6DX1zLfmoymdXo17xh5zmRJ6Q42BWCfc2oJfdAr+Yv+AP9Cb7OJ3H/2JG1HNGz/84klThPVCc=);strokeColor=none;strokeWidth=2;shadow=1;labelBackgroundColor=none;rounded=0;html=1;whiteSpace=wrap;fontSize=16;fontStyle=0" vertex="1" parent="SVzCEJU157vRpgFHD0QC-69">
          <mxGeometry x="7" y="24" width="24" height="32" as="geometry" />
        </mxCell>
        <mxCell id="SVzCEJU157vRpgFHD0QC-73" value="&lt;font style=&quot;font-family: SimSun; color: rgb(0, 0, 0); direction: ltr; letter-spacing: 0px; line-height: 120%; opacity: 1;&quot;&gt;&lt;font style=&quot;font-size: 17px;&quot;&gt;...&lt;/font&gt;&lt;br style=&quot;font-size: 13px;&quot;&gt;&lt;/font&gt;" style="text;vsdxID=760;rotation=89.43;fillColor=none;gradientColor=none;strokeColor=none;strokeWidth=2;shadow=1;labelBackgroundColor=none;rounded=0;html=1;whiteSpace=wrap;verticalAlign=middle;align=center;horizontal=0;;html=1;fontSize=13;fontStyle=1" vertex="1" parent="SVzCEJU157vRpgFHD0QC-72">
          <mxGeometry x="-1" y="-1" width="24.82" height="32.53" as="geometry" />
        </mxCell>
        <mxCell id="SVzCEJU157vRpgFHD0QC-74" style="vsdxID=758;rotation=270;fillColor=#FFFFFF;gradientColor=none;shape=stencil(vVHLDsIgEPwajiQU4hfU+h8bu7RELM2CFv9eyMZYjCcP3mZ2Zh/ZEaaPM6wotIqJwgU3N6ZZmKPQ2i0zkksFCTMI09tAOFG4LSPzFaqzomu41wmZ+1Tt0OrB7MD0xE6gc5EoN5qi1vsa1Kmvo1SWkF2UFBIkF5ZmqweaUJY10nqYGiluiOuu3P182P/OKuD9Zuu855T2+mcspcSRmuEJ);strokeColor=#000000;strokeWidth=2;shadow=1;labelBackgroundColor=none;rounded=0;html=1;whiteSpace=wrap;" vertex="1" parent="SVzCEJU157vRpgFHD0QC-69">
          <mxGeometry x="-18" y="33.5" width="18" height="17" as="geometry" />
        </mxCell>
        <mxCell id="SVzCEJU157vRpgFHD0QC-75" style="vsdxID=780;fillColor=#4D4D4D;shape=stencil(lVjRdtsgDP2avOoAAmw/d9t/9KzpmrOu6Unbrf37kWM7CAmQ/RYcCa6kq2vhA969Pd2/Hg/OvL1fzr+P/04P708H/HZw7vTydLyc3tOvA34/4N3j+XL8dTl/vDzM69f7q+X115/z3+sOn7NfMFcXZ77m5bz6MVv+/LjMpnb+0wWY7GJuqb35dMXya1lGwLAYYGmwLJ0BtPTI59MLAVdiGyaIUw+fKbFNCNGX+GgEyyNrTAkxMIyrQePQwYOZyoPzlvyM9VAKDbkNNsItc5PtG6nkQLODFdVxOZaxRKokx7QB9phVcnByMMZ9paYuy6NxAM/jSWkeROaH0I8pm7T6IGUOBdcGfjhYX55NEaIw2lZ24rBUcQTTr7uH4Eq0qc5rXla06ABdCXcYwWI/VdmkcXgcII7scLLtmpgAnvGOQkRZc2wEXyZrA7F2O2jUjQYm3z/B9x1qXPdlDq8+rIAUySq/Vk+gBdMtYKXRUtIF12WjaV22u8X0/qLAmv2lRkxcLMtjPplnmtQDhRFuYobs7J32fgIXdypBSC9EpypBmADHfjmzyXYloNu2lYBCbBNZBK819oY+VRw0JfAOrKI1vu+wQQmSj2MFrCjB1SroOUxW3RpWxCCwUaeiBCGKwwV7bibb9YBu25SEwOYXqQdq0FIPaDabkkAL05QEhSKyxXfao10njpYkRAhlcDisL7ysCKmmPDoDUZkNsklLEVJNeWbJtqsi4A2hkwjbZBaha/29oV0Vh+7NCr0ikBWKZ58Oxd14G9rbLFdvB5Ll1kHg1ycC8XbF03pba22qGFZs2tY0iq9NAzXwiqbRjLZljRanEbqoefeGJKxLPqW5OQyFw2i11BKX9dEEgXeYAcuHNzn6j05eVbTpf/Rg2QeD+vQ/sEs5RYnSCjfGT33sLYyJzxwEZX7Ea1uJf9RammbWyp2drJKTKFFateJnbwOdMBrDooO9BEtj0sATLAlWmSgrCVaHygrB6kMlJxhF2SaYFn6FX9GLeazCrxjE67MSfrbazi+6c5tfFGWbXzx8jV7cXmOX1z60VOiVXrpG16/KeFLJrzqhVOhVm1AkvSjKNr3U+Cv88vmC1OGXjzDq7ZWttvOL7tzmF0XZ5peIXyOYcEg/8oftx9Pz8/xdnP7PP4SnR/NHdPz+Hw==);strokeWidth=0;shadow=0;spacingTop=-3;spacingBottom=-3;spacingLeft=-3;spacingRight=-3;labelBackgroundColor=none;rounded=0;html=1;whiteSpace=wrap;" vertex="1" parent="1">
          <mxGeometry x="1191" y="-890.82" width="50" height="63.82" as="geometry" />
        </mxCell>
        <mxCell id="SVzCEJU157vRpgFHD0QC-76" value="&lt;font style=&quot;font-size: 26px; font-family: calibri; color: rgb(0, 0, 0); direction: ltr; letter-spacing: 0px; line-height: 120%; opacity: 1;&quot;&gt;&lt;b style=&quot;font-size: 26px;&quot;&gt;Central Server&lt;br style=&quot;font-size: 26px;&quot;&gt;&lt;/b&gt;&lt;/font&gt;" style="verticalAlign=middle;align=center;vsdxID=100;fillColor=none;gradientColor=none;shape=stencil(nZBLDoAgDERP0z3SIyjew0SURgSD+Lu9kMZoXLhwN9O+tukAlrNpJg1SzDH4QW/URgNYgZTkjA4UkwJUgGXng+6DX1zLfmoymdXo17xh5zmRJ6Q42BWCfc2oJfdAr+Yv+AP9Cb7OJ3H/2JG1HNGz/84klThPVCc=);strokeColor=none;labelBackgroundColor=none;rounded=0;html=1;whiteSpace=wrap;fontSize=26;" vertex="1" parent="1">
          <mxGeometry x="820" y="-983.8" width="200.75" height="34.03" as="geometry" />
        </mxCell>
        <mxCell id="SVzCEJU157vRpgFHD0QC-77" value="&lt;span style=&quot;font-size: 21px;&quot;&gt;&lt;span style=&quot;&quot;&gt;&lt;br style=&quot;&quot;&gt;Dataset&lt;/span&gt;&lt;/span&gt;" style="text;html=1;align=center;verticalAlign=middle;resizable=0;points=[];autosize=1;fontSize=19;fontStyle=0" vertex="1" parent="1">
          <mxGeometry x="363.29" y="-352.12999999999977" width="90" height="62" as="geometry" />
        </mxCell>
        <mxCell id="SVzCEJU157vRpgFHD0QC-78" value="&lt;span style=&quot;font-size: 19px;&quot;&gt;&lt;span style=&quot;font-size: 19px;&quot;&gt;public&lt;/span&gt;&lt;/span&gt;" style="text;html=1;align=center;verticalAlign=middle;resizable=0;points=[];autosize=1;fontSize=19;fontStyle=0" vertex="1" parent="1">
          <mxGeometry x="295.93" y="-357.13000000000005" width="68" height="35" as="geometry" />
        </mxCell>
        <mxCell id="SVzCEJU157vRpgFHD0QC-79" style="vsdxID=780;fillColor=#e1d5e7;shape=stencil(lVjRdtsgDP2avOoAAmw/d9t/9KzpmrOu6Unbrf37kWM7CAmQ/RYcCa6kq2vhA969Pd2/Hg/OvL1fzr+P/04P708H/HZw7vTydLyc3tOvA34/4N3j+XL8dTl/vDzM69f7q+X115/z3+sOn7NfMFcXZ77m5bz6MVv+/LjMpnb+0wWY7GJuqb35dMXya1lGwLAYYGmwLJ0BtPTI59MLAVdiGyaIUw+fKbFNCNGX+GgEyyNrTAkxMIyrQePQwYOZyoPzlvyM9VAKDbkNNsItc5PtG6nkQLODFdVxOZaxRKokx7QB9phVcnByMMZ9paYuy6NxAM/jSWkeROaH0I8pm7T6IGUOBdcGfjhYX55NEaIw2lZ24rBUcQTTr7uH4Eq0qc5rXla06ABdCXcYwWI/VdmkcXgcII7scLLtmpgAnvGOQkRZc2wEXyZrA7F2O2jUjQYm3z/B9x1qXPdlDq8+rIAUySq/Vk+gBdMtYKXRUtIF12WjaV22u8X0/qLAmv2lRkxcLMtjPplnmtQDhRFuYobs7J32fgIXdypBSC9EpypBmADHfjmzyXYloNu2lYBCbBNZBK819oY+VRw0JfAOrKI1vu+wQQmSj2MFrCjB1SroOUxW3RpWxCCwUaeiBCGKwwV7bibb9YBu25SEwOYXqQdq0FIPaDabkkAL05QEhSKyxXfao10njpYkRAhlcDisL7ysCKmmPDoDUZkNsklLEVJNeWbJtqsi4A2hkwjbZBaha/29oV0Vh+7NCr0ikBWKZ58Oxd14G9rbLFdvB5Ll1kHg1ycC8XbF03pba22qGFZs2tY0iq9NAzXwiqbRjLZljRanEbqoefeGJKxLPqW5OQyFw2i11BKX9dEEgXeYAcuHNzn6j05eVbTpf/Rg2QeD+vQ/sEs5RYnSCjfGT33sLYyJzxwEZX7Ea1uJf9RammbWyp2drJKTKFFateJnbwOdMBrDooO9BEtj0sATLAlWmSgrCVaHygrB6kMlJxhF2SaYFn6FX9GLeazCrxjE67MSfrbazi+6c5tfFGWbXzx8jV7cXmOX1z60VOiVXrpG16/KeFLJrzqhVOhVm1AkvSjKNr3U+Cv88vmC1OGXjzDq7ZWttvOL7tzmF0XZ5peIXyOYcEg/8oftx9Pz8/xdnP7PP4SnR/NHdPz+Hw==);strokeColor=#9673a6;strokeWidth=0;shadow=0;spacingTop=-3;spacingBottom=-3;spacingLeft=-3;spacingRight=-3;labelBackgroundColor=none;rounded=0;html=1;whiteSpace=wrap;fontSize=19;fontStyle=0" vertex="1" parent="1">
          <mxGeometry x="385.02" y="-410.98999999999995" width="42.51" height="53.86" as="geometry" />
        </mxCell>
        <mxCell id="SVzCEJU157vRpgFHD0QC-80" value="&lt;font style=&quot;font-family: calibri; color: rgb(0, 0, 0); direction: ltr; letter-spacing: 0px; line-height: 120%; opacity: 1; font-size: 26px;&quot;&gt;&lt;b style=&quot;font-size: 26px;&quot;&gt;&lt;span style=&quot;font-size: 26px;&quot;&gt;Global Model&lt;/span&gt;&lt;br style=&quot;font-size: 26px;&quot;&gt;&lt;/b&gt;&lt;/font&gt;" style="verticalAlign=middle;align=center;vsdxID=100;fillColor=none;gradientColor=none;shape=stencil(nZBLDoAgDERP0z3SIyjew0SURgSD+Lu9kMZoXLhwN9O+tukAlrNpJg1SzDH4QW/URgNYgZTkjA4UkwJUgGXng+6DX1zLfmoymdXo17xh5zmRJ6Q42BWCfc2oJfdAr+Yv+AP9Cb7OJ3H/2JG1HNGz/84klThPVCc=);strokeColor=none;labelBackgroundColor=none;rounded=0;html=1;whiteSpace=wrap;fontSize=26;" vertex="1" parent="1">
          <mxGeometry x="1288.4800000000002" y="-880.3199999999999" width="95.53" height="32" as="geometry" />
        </mxCell>
        <mxCell id="SVzCEJU157vRpgFHD0QC-81" value="" style="rounded=0;whiteSpace=wrap;html=1;fillColor=#E5F0FF;shadow=1;strokeWidth=2;dashed=1;textOpacity=50;" vertex="1" parent="1">
          <mxGeometry x="279" y="-985.2" width="504" height="168.98" as="geometry" />
        </mxCell>
        <mxCell id="SVzCEJU157vRpgFHD0QC-82" value="&lt;font style=&quot;font-size: 26px; font-family: calibri; color: rgb(0, 0, 0); direction: ltr; letter-spacing: 0px; line-height: 120%; opacity: 1;&quot;&gt;&lt;b style=&quot;font-size: 26px;&quot;&gt;Central Server&lt;br style=&quot;font-size: 26px;&quot;&gt;&lt;/b&gt;&lt;/font&gt;" style="verticalAlign=middle;align=center;vsdxID=100;fillColor=none;gradientColor=none;shape=stencil(nZBLDoAgDERP0z3SIyjew0SURgSD+Lu9kMZoXLhwN9O+tukAlrNpJg1SzDH4QW/URgNYgZTkjA4UkwJUgGXng+6DX1zLfmoymdXo17xh5zmRJ6Q42BWCfc2oJfdAr+Yv+AP9Cb7OJ3H/2JG1HNGz/84klThPVCc=);strokeColor=none;labelBackgroundColor=none;rounded=0;html=1;whiteSpace=wrap;fontSize=26;" vertex="1" parent="1">
          <mxGeometry x="267" y="-999.19" width="199" height="62" as="geometry" />
        </mxCell>
        <mxCell id="SVzCEJU157vRpgFHD0QC-83" value="" style="group" vertex="1" connectable="0" parent="1">
          <mxGeometry x="247" y="-758.2" width="240" height="293.2" as="geometry" />
        </mxCell>
        <mxCell id="SVzCEJU157vRpgFHD0QC-84" value="" style="rounded=0;whiteSpace=wrap;html=1;strokeWidth=2;strokeColor=none;" vertex="1" parent="SVzCEJU157vRpgFHD0QC-83">
          <mxGeometry x="68" y="55.937042210336216" width="120.75" height="252.54575682213064" as="geometry" />
        </mxCell>
        <mxCell id="SVzCEJU157vRpgFHD0QC-85" style="vsdxID=780;shape=stencil(lVjRdtsgDP2avOoAAmw/d9t/9KzpmrOu6Unbrf37kWM7CAmQ/RYcCa6kq2vhA969Pd2/Hg/OvL1fzr+P/04P708H/HZw7vTydLyc3tOvA34/4N3j+XL8dTl/vDzM69f7q+X115/z3+sOn7NfMFcXZ77m5bz6MVv+/LjMpnb+0wWY7GJuqb35dMXya1lGwLAYYGmwLJ0BtPTI59MLAVdiGyaIUw+fKbFNCNGX+GgEyyNrTAkxMIyrQePQwYOZyoPzlvyM9VAKDbkNNsItc5PtG6nkQLODFdVxOZaxRKokx7QB9phVcnByMMZ9paYuy6NxAM/jSWkeROaH0I8pm7T6IGUOBdcGfjhYX55NEaIw2lZ24rBUcQTTr7uH4Eq0qc5rXla06ABdCXcYwWI/VdmkcXgcII7scLLtmpgAnvGOQkRZc2wEXyZrA7F2O2jUjQYm3z/B9x1qXPdlDq8+rIAUySq/Vk+gBdMtYKXRUtIF12WjaV22u8X0/qLAmv2lRkxcLMtjPplnmtQDhRFuYobs7J32fgIXdypBSC9EpypBmADHfjmzyXYloNu2lYBCbBNZBK819oY+VRw0JfAOrKI1vu+wQQmSj2MFrCjB1SroOUxW3RpWxCCwUaeiBCGKwwV7bibb9YBu25SEwOYXqQdq0FIPaDabkkAL05QEhSKyxXfao10njpYkRAhlcDisL7ysCKmmPDoDUZkNsklLEVJNeWbJtqsi4A2hkwjbZBaha/29oV0Vh+7NCr0ikBWKZ58Oxd14G9rbLFdvB5Ll1kHg1ycC8XbF03pba22qGFZs2tY0iq9NAzXwiqbRjLZljRanEbqoefeGJKxLPqW5OQyFw2i11BKX9dEEgXeYAcuHNzn6j05eVbTpf/Rg2QeD+vQ/sEs5RYnSCjfGT33sLYyJzxwEZX7Ea1uJf9RammbWyp2drJKTKFFateJnbwOdMBrDooO9BEtj0sATLAlWmSgrCVaHygrB6kMlJxhF2SaYFn6FX9GLeazCrxjE67MSfrbazi+6c5tfFGWbXzx8jV7cXmOX1z60VOiVXrpG16/KeFLJrzqhVOhVm1AkvSjKNr3U+Cv88vmC1OGXjzDq7ZWttvOL7tzmF0XZ5peIXyOYcEg/8oftx9Pz8/xdnP7PP4SnR/NHdPz+Hw==);strokeWidth=0;shadow=0;spacingTop=-3;spacingBottom=-3;spacingLeft=-3;spacingRight=-3;labelBackgroundColor=none;rounded=0;html=1;whiteSpace=wrap;fillColor=#A9C4EB;strokeColor=#23445d;" vertex="1" parent="SVzCEJU157vRpgFHD0QC-83">
          <mxGeometry x="100" y="191.27988468546366" width="50" height="61.79252076683698" as="geometry" />
        </mxCell>
        <mxCell id="SVzCEJU157vRpgFHD0QC-86" value="…" style="text;html=1;resizable=0;autosize=1;align=center;verticalAlign=middle;points=[];fillColor=none;strokeColor=none;rounded=0;fontFamily=Helvetica;fontSize=24;fontStyle=1" vertex="1" parent="SVzCEJU157vRpgFHD0QC-83">
          <mxGeometry x="178.79" y="256.71106871529315" width="50" height="40" as="geometry" />
        </mxCell>
        <mxCell id="SVzCEJU157vRpgFHD0QC-87" value="" style="endArrow=classic;html=1;rounded=0;fontFamily=Helvetica;fontSize=24;entryX=0.5;entryY=1;entryDx=0;entryDy=0;exitX=0.553;exitY=-0.003;exitDx=0;exitDy=0;exitPerimeter=0;strokeWidth=2;" edge="1" parent="SVzCEJU157vRpgFHD0QC-83" source="SVzCEJU157vRpgFHD0QC-85">
          <mxGeometry width="50" height="50" relative="1" as="geometry">
            <mxPoint x="130" y="195.77964773617688" as="sourcePoint" />
            <mxPoint x="128.3800000000001" y="142.83923278710887" as="targetPoint" />
          </mxGeometry>
        </mxCell>
        <mxCell id="SVzCEJU157vRpgFHD0QC-88" value="" style="endArrow=classic;html=1;rounded=1;strokeWidth=2;fontFamily=Helvetica;fontSize=14;shape=flexArrow;fillColor=default;gradientColor=#A9C4EB;strokeColor=#CCCCCC;" edge="1" parent="SVzCEJU157vRpgFHD0QC-83">
          <mxGeometry width="50" height="50" relative="1" as="geometry">
            <mxPoint x="130" y="48.94491193404422" as="sourcePoint" />
            <mxPoint x="130" y="-53.939290702824245" as="targetPoint" />
          </mxGeometry>
        </mxCell>
        <mxCell id="SVzCEJU157vRpgFHD0QC-89" value="" style="shape=image;verticalLabelPosition=bottom;labelBackgroundColor=default;verticalAlign=top;aspect=fixed;imageAspect=0;image=data:image/png,iVBORw0KGgoAAAANSUhEUgAAAJYAAACGCAMAAAF/DrPdAAAAAXNSR0IArs4c6QAAAARnQU1BAACxjwv8YQUAAAEUUExURQAAAICAgICAgIWFhYCAgICAgHx8fICAgH19fYCAgH19fYCAgICAgICAgH5+foCAgICAgIGBgYCAgICAgICAgICAgICAgICAgH5+foCAgICAgIGBgYCAgIGBgYCAgICAgH9/f39/f39/f39/f4CAgH5+foCAgH9/f4CAgH9/f39/f35+fn9/f4CAgH9/f4CAgH9/f35+fn9/f35+fn9/f4CAgH9/f39/f39/f39/f39/f39/f35+fn5+fn9/f4CAgH5+fn9/f39/f4CAgH9/f39/f4CAgH9/f39/f39/f39/f35+foCAgH9/f39/f35+fn9/f35+foCAgH9/f4CAgH9/f35+foCAgH9/f35+foCAgH9/f3yWWIkAAABbdFJOUwAIEBcYICcoLzA1OD5AQ0hQVVhgYmRoam9wdnd4fYCEhYePl5qenp+ipaeqq66vsre4uby/wMXHycvP0dLW19ja29/g4eXm5+nt7/Dw8/X29/j4+fr7/Pz9/v7Jqjp4AAAACXBIWXMAABcRAAAXEQHKJvM/AAAO+UlEQVRoQ8VaC3tk2RRNoqLVRHRLCD1akWQIQQRFKATBhMIopj3G+f//w1pr7/O671TSmfVV7j2vfZ77dfbNTsK5vwsE/VpoloUz/KXCwCQeeOG3CGHXi/2tpmHniulVpArHLMPvZvkSLXbO2EwFVq2E+kxA2WuVHVl+bQMamZI7OwdqYPW7qti5QdKnwi4O+dRviZaLcE1SFejPEnwsscgIkKuyBKgxWgNLf2fcveogxd9HlozQkNwUAxehX9hs5sqR6LWm6tUssacdZNjzMgyI6iPWhsvDSLIzC5tE9MKKkFNHHx57G+Rxflb89stWi989zser2fBGXcaO73IOjyvscAhXYX6h4heq02NPrRKYXFgyw/rvxgaVA9WOwOPGyw+8B7EfLNcSJZYX9tZ4mnUI/w0vVfZmCf4B1ME+nvxxyI0aML8/C/feYpmGcQrHnfK5pzBjaqUBkTiKCb2NzvsEsPsEGrEch47MjwO5HWBRArOxiCt9U1c7LkRn0ooEpKrqJgRsx4Zs4cUbmzjzpyza4+PSSdhNSb5GOlBsAZTvWtVL0IJRVIcNA2va9FWpF3NKoHdL7EBQufi4Ty3Zc/L07oPVj7UC7jCKJ4cwX3bwUBOa8qln+qDhbkMSzk64Bh2ZmlfvD7aK65sNdUaxU4IrUKJAFAcxDWsvwndSM5cjcQ656y4ch7mx6QpaSs2UQyLJzCoszlmx0FGjwH5J2AhQQLtYmoCOY5nSVJFRsK7xKPQAZT1SoZXpWtLd5K7UIvYlcbaEEBN4G1u62IooNsI6yNIqmlvRK6jMAMsQRRSKOAStks3uWXht1Ka8TD2HsGahCqBSF+qxhVMUvvEaSWJnqxBOXoVPrIbj9LWCubGqRTixhgWYp6DyJHgcQFRKxgCUA9bZ5qArwM7RiV2VqJGXJYeAQDmKJNkwOUltoIlttQFTiz3whOJps1XubIGk1BNRnePOAdJnSrE4hN9bHdyQOSeotjhbegbh8IpNkN1XsVVmBaQEDttTKWE9LuknEeexBDOyBAyjJ0rEstDhmmWk3vXqhY7D7MYAoOR4dp7rB9qMqa8OmOwDxfFtB/VyenhIpy1u63agFCbjcYuMJ7dBTQ1L6q7DFuC6PCkgu2Vn7Knqi+zX6emMwVwuIGlRiIMheapd2IuE9PkF8ti3Q4CvCKyg306UYJZV5lx1EFJgwurwECoOYAmt8jHpYkaAStg5psphB1SfbULU3PEtoOwVWQk8jWcHd2JWUjPwAFuE7Lx09NlKM8bupBWXQLW/WoRQdKZAHNwNLgY2uTzCDCgOVbBhg5CO49qzBFoQcXhCei+sTWdSh4QLnUSL0LSc590jNbxRibzGCDrJPtxH9JVrQjIPlwPI1uGUeFR0AkWK58paSzZhL2yWmkaD0BHnrIFNHXvD8iyNKNyKF4yHK8IusJbcKD1jRQbmud9884AmgNoPLyzWEhGvVQB5zOZgFCLhlq3hOGUi9UAp+Cr+8v40sW+CYgoFCfnSbC2X5DbKo2wFGYtCKetbERLKOlb0yX/IVOQnqlPBTHdu3iQEeMiRgStu8rImLn3aQkko96hYurlZKO6VIfpleKlZg5CbWTrg/0CZOAc7nbVAAdIQlMuSEFqDirfU4WgBkLuwvc5D8/Nluj+gktzb3HIfA49LzytzKl2H6eOJGeIZAR0EmTjjtpjf2CSkPwrgkGbaUskM+SqQNdmtG0g2+xpKfCQvaRA6KVE4G2IjoLDVXhLjN0AXYSfMk/YMIXEvddaDUPeFo/vQk1sAG1HMvu75waCpNjbT4Sm1PczwCx0m7sFYLJcXUdIfhV3yEzHo505CaZm8aFuoq9vSZdga1CTOnNQLhY55OGDFEj37nXt6G1TrggJ+xMRgMKLVJh61Y7/THTnhMX3R5pZuEX0ATz4UstslvzO/XWfmAlx7jlDBNp2Z21SSWudbdBa7imEHwAtGOyvNFkH9DL/v+3j5Kt0KEyWXNQnd1wPiqbEr6gfTXsnU7MIjY/epsxZhnnx0wxWkMGOfLi4AA47uTKlZm9BKFoe8/tuKZG9omjn52mzhvZs6U3FJKCtdmNO5hUfU0krn9DXdTNLJ0YHCCLQIpUvSarkr2mQ7SC8tIHdGjt1ti1CC0TbNSGHUrrsdKtEBpettk3CWlyKYu81UXZ6Ak6PqsAO0IgGEioN5ltC20//CnnQrK29vUewMEDKUVY2PrPrAO144a6CCG67jtRIDs3URN1Q7UhcXgBUBd+ga0SDUJVg+pcHahAU2N3qYTbcbabEDUBMu2u5HhDuj0Q8zzgW8H6Llt+CZhBNpSPTf2M4XoKTDdH9pfUtCdtxwZSiLOnFpVCa0Ot34Raq7w+fw1+UD2X74Wg5IbkFGOLbsNPK2XQdM9ZyAwxdNQqF2i5D7pWUUb/U2AOhvNAMDSmpCh43g0TElL+UkVwwbtaHxje17RZiQxNQOatevrPFCRagA89GOJXcgE3ZAqh5v7VrjmqKz1MSsaBRoKceNJJ32Ea/vqWQcaMrLiUjbdyVLlOUDODAKPpWIiGYubcIE0G0Ic24OzUd9fZJV0eH0RhEqsGX4H/7msm1xNSw1aye0vxw7TE1ayCYZHuqv9lVMnZGZ2bYiFAppRQ4rOP43kuZ5WRDFYCLA3for/sBXNSHRCP/gIW722ta1Lm7ZbZMQUOdiXk0Y7M5ZFZv7orCPgI6GaBAygVd0SrP/8YvSwamBWhMvoCREe8q6l6QvGjg7PLysAdyc71O828uMUMMU9y9bANgAG1K6vRmohljb+dWE+irjWUL6iW5GtwsQnYC2fQThbXMxyKaPNXo3gHMwSfh7m7BBow0Tp4OoS35jc7ZrEjb6snAZvau4GOBNvov60iX+TcIbbnKhO9Hgt2wF5sKTurMOOSNz5Hr+4ybhgfja8x56E/cc2eHnrx2ARWTc/HYQ2srdmJPwxDdNn/fNh8rha0xopVoyKd81oTF7HcazkcEy30wl/tEuhC/xoQBUF2FsRUQBzu5zdFFsHgbn0S7CdkjQmZbwPGBnXJnMDkIsGAd0U9ocW0FHPL4RiW8TdkJarGymrsbpOsHTKa0yT6Rw3x6Gn9R+Obry1BaA5ixDZ4/qi9RZR8GMpJPfAs1vDlvvFgF616+0lL32dRJ0D8Ha9Oy+iEyHsyzRZ5geADdg/Z80nhSzM3dbifvzxwSjngwHySXIWOcg86cD09wduHoUUz8O8miJ63RwM3MzgMFPuu8SrvzvGsy05xfjWpE/G3xWHbvywnYx3wqeEW5jO+VuZvPq9infLcytTyGAGnZ9iP71M8Idsnylr2G13/XccyEphvIaXsKrn+DjyHTEGDJQulsF4i0a6DnmJ0e6RhKb4iJUoLBGvVN/UryMKtTRNa/dpkF616o16XXC05dNO+PSwMtbQnccdAr2S0dg3fVdcO5Rt3/a6zD6+HeFgjrwUFm4dMVm8caw6ZjY+IhHPmKFmls9sgotafeLU5yW4ieOdXl0d/Dezb1af953dV1r3gkjVhGPEqvksaVJHXvw/NbKO0mvjcwmfZn4sZjYhBFNJQMX6YKydxaZyOa/F0NCyPqNLV9mXldytz5LHfunXTB8VCncRGDCiB7xCKs8jrDrC4KzXE4qillb6vfbqtV0iYS1nNj4iCnq22FF9mwCP48MZIEOo5143ygbu4CG1bfs3T8i5mVH0q0VK/3j0Rfb/83UW4L1YP/rlSZGDI54wg9YQI8iThf/cO3KyaMvk511D/LE882cPjjirZuJPovrbHiTNKZ5nl1xqx7YDuXYyA+UHxvRQrh94QUFfIQLm5gp0PuH3B9MXDx4arqFGB7ROb5n+VGNE2uoafuk0dHl/M35ErhYtKtc2YP6oFQkgyPeRN3SedSFeyJcKczX+LiSFU7EVS34puz/8oFeGUMjQkjdT+m4D+Qdr+Dq3VAKV4HqmlhaqAL9I2rd8duCs09EHPBHev7Bb1nAe94AyBNfLQ6BNzkA6N/3ic/8x8vCyjjZuuwd0f/nbTca/XD7WgIyO0kLvJ+58F3ufPETJQDff7/fhPtKMe7H3twAHqUzft+XcTc2YsR+tC4NaMBdM/WvTcMZGDn126CbuRI+BNydWRofuHF+4biDIxZwb6XAfWRKV4nCx/xgI5yZQi6+1Ge4BH/dXlDptrJ/6RlV8cCINV4slrYDN2eVoBd64mhn142oocc2VtJytVeurFpH34jTkDjZtM08K6Cezjz2B/i3tCSxT3qldZudw6c/tYIqhFwiup4feN6tyXQbPwlfsE6/4tl8Uey507g5INyre89y71vuieCnZmstbq9h3W0es5YDxMi+35uHmNMxpFgaOCM55j/Tq1AzGSb994X/n7jzCaNe2e0KV3FSUJauevyUMtxTp5+x75tUYIurbLcj4Pr0rZ7Cxi59UVWU98TDqEBddcS7ZUa1vQOuhzDgCJh6v07+hE8KmJWuSnVP3GRtfRA7/oYtIwb4R12PYUfAOHzz2cwoBWrlGnFTM5z/j0tY/1EvnfoE12PQEXCD/Cc9iZZDclLuWVifNlVTpfKJ+RTXY8QR+JW/M9zxaKLjnig0nUkscXhEuR6jjkDGqZu2OpgwAl/1UevYBl0P13NDjoCD9tBKtr1iVBMbGnHmpzzuCLgaNB4oXM8xmEhEA53viYMjXruZGHME4u21cU0eR+sSHic2OOLGhxlxBDaZy/1+1dNrE63Wr6J2HR7RT2XcEUjhFVdj0xwUW3Q0T/FrEDE44p3v8hRHIPZe62qgP9bo9sEyJ64WDIMjYiQTyiFHIGty+xhWyBaYp2XzAF9AIbf5SnG1Nz5iTqadTigcgeIb6/lu+aEpS1YDjDX6BRRLSZphLaM+ZcRpjkDhc90fut6eeTdQaYmBi1ijOx4n83TDSaHyaSNOcgTAjqn/X+v5Zz17Y402q9/oCVSWZuKIkxwBoNb7QmXXDB5rLNHS6VNHHHUEDNU9GYvrYtzm1xXewbswbURDnyOQUUp69z24dLPbnN3E+IgTkfViX48fe32T8d41Xtn/cfYYIY819nhm7xLGsiOxxufHhOhmh5C+e4xGNxv/wP5cGIlufgqMZZgYa3x+TI01Pj8mxxqfH4+LNbaws/N/lEy/skWA9XgAAAAASUVORK5CYII=;" vertex="1" parent="SVzCEJU157vRpgFHD0QC-83">
          <mxGeometry x="86.94999999999999" y="65.9257997478963" width="82.74686744114742" height="73.91680577794433" as="geometry" />
        </mxCell>
        <mxCell id="SVzCEJU157vRpgFHD0QC-90" value="&lt;font style=&quot;direction: ltr; letter-spacing: 0px; line-height: 120%; opacity: 1;&quot;&gt;&lt;b&gt;&lt;font style=&quot;font-size: 20px&quot;&gt;Client 1&lt;/font&gt;&lt;br&gt;&lt;/b&gt;&lt;/font&gt;" style="verticalAlign=middle;align=center;vsdxID=100;fillColor=none;gradientColor=none;shape=stencil(nZBLDoAgDERP0z3SIyjew0SURgSD+Lu9kMZoXLhwN9O+tukAlrNpJg1SzDH4QW/URgNYgZTkjA4UkwJUgGXng+6DX1zLfmoymdXo17xh5zmRJ6Q42BWCfc2oJfdAr+Yv+AP9Cb7OJ3H/2JG1HNGz/84klThPVCc=);strokeColor=none;labelBackgroundColor=none;rounded=0;html=1;whiteSpace=wrap;fontFamily=Verdana;fontColor=#7EA6E0;" vertex="1" parent="SVzCEJU157vRpgFHD0QC-83">
          <mxGeometry x="82" y="270.15593636084895" width="92" height="33.032821176711074" as="geometry" />
        </mxCell>
        <mxCell id="SVzCEJU157vRpgFHD0QC-91" value="" style="shape=image;verticalLabelPosition=bottom;labelBackgroundColor=default;verticalAlign=top;aspect=fixed;imageAspect=0;image=data:image/png,iVBORw0KGgoAAAANSUhEUgAAAJYAAACGCAMAAAF/DrPdAAAAAXNSR0IArs4c6QAAAARnQU1BAACxjwv8YQUAAAEUUExURQAAAICAgICAgIWFhYCAgICAgHx8fICAgH19fYCAgH19fYCAgICAgICAgH5+foCAgICAgIGBgYCAgICAgICAgICAgICAgICAgH5+foCAgICAgIGBgYCAgIGBgYCAgICAgH9/f39/f39/f39/f4CAgH5+foCAgH9/f4CAgH9/f39/f35+fn9/f4CAgH9/f4CAgH9/f35+fn9/f35+fn9/f4CAgH9/f39/f39/f39/f39/f39/f35+fn5+fn9/f4CAgH5+fn9/f39/f4CAgH9/f39/f4CAgH9/f39/f39/f39/f35+foCAgH9/f39/f35+fn9/f35+foCAgH9/f4CAgH9/f35+foCAgH9/f35+foCAgH9/f3yWWIkAAABbdFJOUwAIEBcYICcoLzA1OD5AQ0hQVVhgYmRoam9wdnd4fYCEhYePl5qenp+ipaeqq66vsre4uby/wMXHycvP0dLW19ja29/g4eXm5+nt7/Dw8/X29/j4+fr7/Pz9/v7Jqjp4AAAACXBIWXMAABcRAAAXEQHKJvM/AAAO+UlEQVRoQ8VaC3tk2RRNoqLVRHRLCD1akWQIQQRFKATBhMIopj3G+f//w1pr7/O671TSmfVV7j2vfZ77dfbNTsK5vwsE/VpoloUz/KXCwCQeeOG3CGHXi/2tpmHniulVpArHLMPvZvkSLXbO2EwFVq2E+kxA2WuVHVl+bQMamZI7OwdqYPW7qti5QdKnwi4O+dRviZaLcE1SFejPEnwsscgIkKuyBKgxWgNLf2fcveogxd9HlozQkNwUAxehX9hs5sqR6LWm6tUssacdZNjzMgyI6iPWhsvDSLIzC5tE9MKKkFNHHx57G+Rxflb89stWi989zser2fBGXcaO73IOjyvscAhXYX6h4heq02NPrRKYXFgyw/rvxgaVA9WOwOPGyw+8B7EfLNcSJZYX9tZ4mnUI/w0vVfZmCf4B1ME+nvxxyI0aML8/C/feYpmGcQrHnfK5pzBjaqUBkTiKCb2NzvsEsPsEGrEch47MjwO5HWBRArOxiCt9U1c7LkRn0ooEpKrqJgRsx4Zs4cUbmzjzpyza4+PSSdhNSb5GOlBsAZTvWtVL0IJRVIcNA2va9FWpF3NKoHdL7EBQufi4Ty3Zc/L07oPVj7UC7jCKJ4cwX3bwUBOa8qln+qDhbkMSzk64Bh2ZmlfvD7aK65sNdUaxU4IrUKJAFAcxDWsvwndSM5cjcQ656y4ch7mx6QpaSs2UQyLJzCoszlmx0FGjwH5J2AhQQLtYmoCOY5nSVJFRsK7xKPQAZT1SoZXpWtLd5K7UIvYlcbaEEBN4G1u62IooNsI6yNIqmlvRK6jMAMsQRRSKOAStks3uWXht1Ka8TD2HsGahCqBSF+qxhVMUvvEaSWJnqxBOXoVPrIbj9LWCubGqRTixhgWYp6DyJHgcQFRKxgCUA9bZ5qArwM7RiV2VqJGXJYeAQDmKJNkwOUltoIlttQFTiz3whOJps1XubIGk1BNRnePOAdJnSrE4hN9bHdyQOSeotjhbegbh8IpNkN1XsVVmBaQEDttTKWE9LuknEeexBDOyBAyjJ0rEstDhmmWk3vXqhY7D7MYAoOR4dp7rB9qMqa8OmOwDxfFtB/VyenhIpy1u63agFCbjcYuMJ7dBTQ1L6q7DFuC6PCkgu2Vn7Knqi+zX6emMwVwuIGlRiIMheapd2IuE9PkF8ti3Q4CvCKyg306UYJZV5lx1EFJgwurwECoOYAmt8jHpYkaAStg5psphB1SfbULU3PEtoOwVWQk8jWcHd2JWUjPwAFuE7Lx09NlKM8bupBWXQLW/WoRQdKZAHNwNLgY2uTzCDCgOVbBhg5CO49qzBFoQcXhCei+sTWdSh4QLnUSL0LSc590jNbxRibzGCDrJPtxH9JVrQjIPlwPI1uGUeFR0AkWK58paSzZhL2yWmkaD0BHnrIFNHXvD8iyNKNyKF4yHK8IusJbcKD1jRQbmud9884AmgNoPLyzWEhGvVQB5zOZgFCLhlq3hOGUi9UAp+Cr+8v40sW+CYgoFCfnSbC2X5DbKo2wFGYtCKetbERLKOlb0yX/IVOQnqlPBTHdu3iQEeMiRgStu8rImLn3aQkko96hYurlZKO6VIfpleKlZg5CbWTrg/0CZOAc7nbVAAdIQlMuSEFqDirfU4WgBkLuwvc5D8/Nluj+gktzb3HIfA49LzytzKl2H6eOJGeIZAR0EmTjjtpjf2CSkPwrgkGbaUskM+SqQNdmtG0g2+xpKfCQvaRA6KVE4G2IjoLDVXhLjN0AXYSfMk/YMIXEvddaDUPeFo/vQk1sAG1HMvu75waCpNjbT4Sm1PczwCx0m7sFYLJcXUdIfhV3yEzHo505CaZm8aFuoq9vSZdga1CTOnNQLhY55OGDFEj37nXt6G1TrggJ+xMRgMKLVJh61Y7/THTnhMX3R5pZuEX0ATz4UstslvzO/XWfmAlx7jlDBNp2Z21SSWudbdBa7imEHwAtGOyvNFkH9DL/v+3j5Kt0KEyWXNQnd1wPiqbEr6gfTXsnU7MIjY/epsxZhnnx0wxWkMGOfLi4AA47uTKlZm9BKFoe8/tuKZG9omjn52mzhvZs6U3FJKCtdmNO5hUfU0krn9DXdTNLJ0YHCCLQIpUvSarkr2mQ7SC8tIHdGjt1ti1CC0TbNSGHUrrsdKtEBpettk3CWlyKYu81UXZ6Ak6PqsAO0IgGEioN5ltC20//CnnQrK29vUewMEDKUVY2PrPrAO144a6CCG67jtRIDs3URN1Q7UhcXgBUBd+ga0SDUJVg+pcHahAU2N3qYTbcbabEDUBMu2u5HhDuj0Q8zzgW8H6Llt+CZhBNpSPTf2M4XoKTDdH9pfUtCdtxwZSiLOnFpVCa0Ot34Raq7w+fw1+UD2X74Wg5IbkFGOLbsNPK2XQdM9ZyAwxdNQqF2i5D7pWUUb/U2AOhvNAMDSmpCh43g0TElL+UkVwwbtaHxje17RZiQxNQOatevrPFCRagA89GOJXcgE3ZAqh5v7VrjmqKz1MSsaBRoKceNJJ32Ea/vqWQcaMrLiUjbdyVLlOUDODAKPpWIiGYubcIE0G0Ic24OzUd9fZJV0eH0RhEqsGX4H/7msm1xNSw1aye0vxw7TE1ayCYZHuqv9lVMnZGZ2bYiFAppRQ4rOP43kuZ5WRDFYCLA3for/sBXNSHRCP/gIW722ta1Lm7ZbZMQUOdiXk0Y7M5ZFZv7orCPgI6GaBAygVd0SrP/8YvSwamBWhMvoCREe8q6l6QvGjg7PLysAdyc71O828uMUMMU9y9bANgAG1K6vRmohljb+dWE+irjWUL6iW5GtwsQnYC2fQThbXMxyKaPNXo3gHMwSfh7m7BBow0Tp4OoS35jc7ZrEjb6snAZvau4GOBNvov60iX+TcIbbnKhO9Hgt2wF5sKTurMOOSNz5Hr+4ybhgfja8x56E/cc2eHnrx2ARWTc/HYQ2srdmJPwxDdNn/fNh8rha0xopVoyKd81oTF7HcazkcEy30wl/tEuhC/xoQBUF2FsRUQBzu5zdFFsHgbn0S7CdkjQmZbwPGBnXJnMDkIsGAd0U9ocW0FHPL4RiW8TdkJarGymrsbpOsHTKa0yT6Rw3x6Gn9R+Obry1BaA5ixDZ4/qi9RZR8GMpJPfAs1vDlvvFgF616+0lL32dRJ0D8Ha9Oy+iEyHsyzRZ5geADdg/Z80nhSzM3dbifvzxwSjngwHySXIWOcg86cD09wduHoUUz8O8miJ63RwM3MzgMFPuu8SrvzvGsy05xfjWpE/G3xWHbvywnYx3wqeEW5jO+VuZvPq9infLcytTyGAGnZ9iP71M8Idsnylr2G13/XccyEphvIaXsKrn+DjyHTEGDJQulsF4i0a6DnmJ0e6RhKb4iJUoLBGvVN/UryMKtTRNa/dpkF616o16XXC05dNO+PSwMtbQnccdAr2S0dg3fVdcO5Rt3/a6zD6+HeFgjrwUFm4dMVm8caw6ZjY+IhHPmKFmls9sgotafeLU5yW4ieOdXl0d/Dezb1af953dV1r3gkjVhGPEqvksaVJHXvw/NbKO0mvjcwmfZn4sZjYhBFNJQMX6YKydxaZyOa/F0NCyPqNLV9mXldytz5LHfunXTB8VCncRGDCiB7xCKs8jrDrC4KzXE4qillb6vfbqtV0iYS1nNj4iCnq22FF9mwCP48MZIEOo5143ygbu4CG1bfs3T8i5mVH0q0VK/3j0Rfb/83UW4L1YP/rlSZGDI54wg9YQI8iThf/cO3KyaMvk511D/LE882cPjjirZuJPovrbHiTNKZ5nl1xqx7YDuXYyA+UHxvRQrh94QUFfIQLm5gp0PuH3B9MXDx4arqFGB7ROb5n+VGNE2uoafuk0dHl/M35ErhYtKtc2YP6oFQkgyPeRN3SedSFeyJcKczX+LiSFU7EVS34puz/8oFeGUMjQkjdT+m4D+Qdr+Dq3VAKV4HqmlhaqAL9I2rd8duCs09EHPBHev7Bb1nAe94AyBNfLQ6BNzkA6N/3ic/8x8vCyjjZuuwd0f/nbTca/XD7WgIyO0kLvJ+58F3ufPETJQDff7/fhPtKMe7H3twAHqUzft+XcTc2YsR+tC4NaMBdM/WvTcMZGDn126CbuRI+BNydWRofuHF+4biDIxZwb6XAfWRKV4nCx/xgI5yZQi6+1Ge4BH/dXlDptrJ/6RlV8cCINV4slrYDN2eVoBd64mhn142oocc2VtJytVeurFpH34jTkDjZtM08K6Cezjz2B/i3tCSxT3qldZudw6c/tYIqhFwiup4feN6tyXQbPwlfsE6/4tl8Uey507g5INyre89y71vuieCnZmstbq9h3W0es5YDxMi+35uHmNMxpFgaOCM55j/Tq1AzGSb994X/n7jzCaNe2e0KV3FSUJauevyUMtxTp5+x75tUYIurbLcj4Pr0rZ7Cxi59UVWU98TDqEBddcS7ZUa1vQOuhzDgCJh6v07+hE8KmJWuSnVP3GRtfRA7/oYtIwb4R12PYUfAOHzz2cwoBWrlGnFTM5z/j0tY/1EvnfoE12PQEXCD/Cc9iZZDclLuWVifNlVTpfKJ+RTXY8QR+JW/M9zxaKLjnig0nUkscXhEuR6jjkDGqZu2OpgwAl/1UevYBl0P13NDjoCD9tBKtr1iVBMbGnHmpzzuCLgaNB4oXM8xmEhEA53viYMjXruZGHME4u21cU0eR+sSHic2OOLGhxlxBDaZy/1+1dNrE63Wr6J2HR7RT2XcEUjhFVdj0xwUW3Q0T/FrEDE44p3v8hRHIPZe62qgP9bo9sEyJ64WDIMjYiQTyiFHIGty+xhWyBaYp2XzAF9AIbf5SnG1Nz5iTqadTigcgeIb6/lu+aEpS1YDjDX6BRRLSZphLaM+ZcRpjkDhc90fut6eeTdQaYmBi1ijOx4n83TDSaHyaSNOcgTAjqn/X+v5Zz17Y402q9/oCVSWZuKIkxwBoNb7QmXXDB5rLNHS6VNHHHUEDNU9GYvrYtzm1xXewbswbURDnyOQUUp69z24dLPbnN3E+IgTkfViX48fe32T8d41Xtn/cfYYIY819nhm7xLGsiOxxufHhOhmh5C+e4xGNxv/wP5cGIlufgqMZZgYa3x+TI01Pj8mxxqfH4+LNbaws/N/lEy/skWA9XgAAAAASUVORK5CYII=;" vertex="1" parent="1">
          <mxGeometry x="385.01" y="-954.7599999999999" width="38.62" height="34.5" as="geometry" />
        </mxCell>
        <mxCell id="SVzCEJU157vRpgFHD0QC-92" value="" style="shape=image;verticalLabelPosition=bottom;labelBackgroundColor=default;verticalAlign=top;aspect=fixed;imageAspect=0;image=data:image/png,iVBORw0KGgoAAAANSUhEUgAAAJYAAACGCAMAAAF/DrPdAAAAAXNSR0IArs4c6QAAAARnQU1BAACxjwv8YQUAAAEUUExURQAAAICAgICAgIWFhYCAgICAgHx8fICAgH19fYCAgH19fYCAgICAgICAgH5+foCAgICAgIGBgYCAgICAgICAgICAgICAgICAgH5+foCAgICAgIGBgYCAgIGBgYCAgICAgH9/f39/f39/f39/f4CAgH5+foCAgH9/f4CAgH9/f39/f35+fn9/f4CAgH9/f4CAgH9/f35+fn9/f35+fn9/f4CAgH9/f39/f39/f39/f39/f39/f35+fn5+fn9/f4CAgH5+fn9/f39/f4CAgH9/f39/f4CAgH9/f39/f39/f39/f35+foCAgH9/f39/f35+fn9/f35+foCAgH9/f4CAgH9/f35+foCAgH9/f35+foCAgH9/f3yWWIkAAABbdFJOUwAIEBcYICcoLzA1OD5AQ0hQVVhgYmRoam9wdnd4fYCEhYePl5qenp+ipaeqq66vsre4uby/wMXHycvP0dLW19ja29/g4eXm5+nt7/Dw8/X29/j4+fr7/Pz9/v7Jqjp4AAAACXBIWXMAABcRAAAXEQHKJvM/AAAO+UlEQVRoQ8VaC3tk2RRNoqLVRHRLCD1akWQIQQRFKATBhMIopj3G+f//w1pr7/O671TSmfVV7j2vfZ77dfbNTsK5vwsE/VpoloUz/KXCwCQeeOG3CGHXi/2tpmHniulVpArHLMPvZvkSLXbO2EwFVq2E+kxA2WuVHVl+bQMamZI7OwdqYPW7qti5QdKnwi4O+dRviZaLcE1SFejPEnwsscgIkKuyBKgxWgNLf2fcveogxd9HlozQkNwUAxehX9hs5sqR6LWm6tUssacdZNjzMgyI6iPWhsvDSLIzC5tE9MKKkFNHHx57G+Rxflb89stWi989zser2fBGXcaO73IOjyvscAhXYX6h4heq02NPrRKYXFgyw/rvxgaVA9WOwOPGyw+8B7EfLNcSJZYX9tZ4mnUI/w0vVfZmCf4B1ME+nvxxyI0aML8/C/feYpmGcQrHnfK5pzBjaqUBkTiKCb2NzvsEsPsEGrEch47MjwO5HWBRArOxiCt9U1c7LkRn0ooEpKrqJgRsx4Zs4cUbmzjzpyza4+PSSdhNSb5GOlBsAZTvWtVL0IJRVIcNA2va9FWpF3NKoHdL7EBQufi4Ty3Zc/L07oPVj7UC7jCKJ4cwX3bwUBOa8qln+qDhbkMSzk64Bh2ZmlfvD7aK65sNdUaxU4IrUKJAFAcxDWsvwndSM5cjcQ656y4ch7mx6QpaSs2UQyLJzCoszlmx0FGjwH5J2AhQQLtYmoCOY5nSVJFRsK7xKPQAZT1SoZXpWtLd5K7UIvYlcbaEEBN4G1u62IooNsI6yNIqmlvRK6jMAMsQRRSKOAStks3uWXht1Ka8TD2HsGahCqBSF+qxhVMUvvEaSWJnqxBOXoVPrIbj9LWCubGqRTixhgWYp6DyJHgcQFRKxgCUA9bZ5qArwM7RiV2VqJGXJYeAQDmKJNkwOUltoIlttQFTiz3whOJps1XubIGk1BNRnePOAdJnSrE4hN9bHdyQOSeotjhbegbh8IpNkN1XsVVmBaQEDttTKWE9LuknEeexBDOyBAyjJ0rEstDhmmWk3vXqhY7D7MYAoOR4dp7rB9qMqa8OmOwDxfFtB/VyenhIpy1u63agFCbjcYuMJ7dBTQ1L6q7DFuC6PCkgu2Vn7Knqi+zX6emMwVwuIGlRiIMheapd2IuE9PkF8ti3Q4CvCKyg306UYJZV5lx1EFJgwurwECoOYAmt8jHpYkaAStg5psphB1SfbULU3PEtoOwVWQk8jWcHd2JWUjPwAFuE7Lx09NlKM8bupBWXQLW/WoRQdKZAHNwNLgY2uTzCDCgOVbBhg5CO49qzBFoQcXhCei+sTWdSh4QLnUSL0LSc590jNbxRibzGCDrJPtxH9JVrQjIPlwPI1uGUeFR0AkWK58paSzZhL2yWmkaD0BHnrIFNHXvD8iyNKNyKF4yHK8IusJbcKD1jRQbmud9884AmgNoPLyzWEhGvVQB5zOZgFCLhlq3hOGUi9UAp+Cr+8v40sW+CYgoFCfnSbC2X5DbKo2wFGYtCKetbERLKOlb0yX/IVOQnqlPBTHdu3iQEeMiRgStu8rImLn3aQkko96hYurlZKO6VIfpleKlZg5CbWTrg/0CZOAc7nbVAAdIQlMuSEFqDirfU4WgBkLuwvc5D8/Nluj+gktzb3HIfA49LzytzKl2H6eOJGeIZAR0EmTjjtpjf2CSkPwrgkGbaUskM+SqQNdmtG0g2+xpKfCQvaRA6KVE4G2IjoLDVXhLjN0AXYSfMk/YMIXEvddaDUPeFo/vQk1sAG1HMvu75waCpNjbT4Sm1PczwCx0m7sFYLJcXUdIfhV3yEzHo505CaZm8aFuoq9vSZdga1CTOnNQLhY55OGDFEj37nXt6G1TrggJ+xMRgMKLVJh61Y7/THTnhMX3R5pZuEX0ATz4UstslvzO/XWfmAlx7jlDBNp2Z21SSWudbdBa7imEHwAtGOyvNFkH9DL/v+3j5Kt0KEyWXNQnd1wPiqbEr6gfTXsnU7MIjY/epsxZhnnx0wxWkMGOfLi4AA47uTKlZm9BKFoe8/tuKZG9omjn52mzhvZs6U3FJKCtdmNO5hUfU0krn9DXdTNLJ0YHCCLQIpUvSarkr2mQ7SC8tIHdGjt1ti1CC0TbNSGHUrrsdKtEBpettk3CWlyKYu81UXZ6Ak6PqsAO0IgGEioN5ltC20//CnnQrK29vUewMEDKUVY2PrPrAO144a6CCG67jtRIDs3URN1Q7UhcXgBUBd+ga0SDUJVg+pcHahAU2N3qYTbcbabEDUBMu2u5HhDuj0Q8zzgW8H6Llt+CZhBNpSPTf2M4XoKTDdH9pfUtCdtxwZSiLOnFpVCa0Ot34Raq7w+fw1+UD2X74Wg5IbkFGOLbsNPK2XQdM9ZyAwxdNQqF2i5D7pWUUb/U2AOhvNAMDSmpCh43g0TElL+UkVwwbtaHxje17RZiQxNQOatevrPFCRagA89GOJXcgE3ZAqh5v7VrjmqKz1MSsaBRoKceNJJ32Ea/vqWQcaMrLiUjbdyVLlOUDODAKPpWIiGYubcIE0G0Ic24OzUd9fZJV0eH0RhEqsGX4H/7msm1xNSw1aye0vxw7TE1ayCYZHuqv9lVMnZGZ2bYiFAppRQ4rOP43kuZ5WRDFYCLA3for/sBXNSHRCP/gIW722ta1Lm7ZbZMQUOdiXk0Y7M5ZFZv7orCPgI6GaBAygVd0SrP/8YvSwamBWhMvoCREe8q6l6QvGjg7PLysAdyc71O828uMUMMU9y9bANgAG1K6vRmohljb+dWE+irjWUL6iW5GtwsQnYC2fQThbXMxyKaPNXo3gHMwSfh7m7BBow0Tp4OoS35jc7ZrEjb6snAZvau4GOBNvov60iX+TcIbbnKhO9Hgt2wF5sKTurMOOSNz5Hr+4ybhgfja8x56E/cc2eHnrx2ARWTc/HYQ2srdmJPwxDdNn/fNh8rha0xopVoyKd81oTF7HcazkcEy30wl/tEuhC/xoQBUF2FsRUQBzu5zdFFsHgbn0S7CdkjQmZbwPGBnXJnMDkIsGAd0U9ocW0FHPL4RiW8TdkJarGymrsbpOsHTKa0yT6Rw3x6Gn9R+Obry1BaA5ixDZ4/qi9RZR8GMpJPfAs1vDlvvFgF616+0lL32dRJ0D8Ha9Oy+iEyHsyzRZ5geADdg/Z80nhSzM3dbifvzxwSjngwHySXIWOcg86cD09wduHoUUz8O8miJ63RwM3MzgMFPuu8SrvzvGsy05xfjWpE/G3xWHbvywnYx3wqeEW5jO+VuZvPq9infLcytTyGAGnZ9iP71M8Idsnylr2G13/XccyEphvIaXsKrn+DjyHTEGDJQulsF4i0a6DnmJ0e6RhKb4iJUoLBGvVN/UryMKtTRNa/dpkF616o16XXC05dNO+PSwMtbQnccdAr2S0dg3fVdcO5Rt3/a6zD6+HeFgjrwUFm4dMVm8caw6ZjY+IhHPmKFmls9sgotafeLU5yW4ieOdXl0d/Dezb1af953dV1r3gkjVhGPEqvksaVJHXvw/NbKO0mvjcwmfZn4sZjYhBFNJQMX6YKydxaZyOa/F0NCyPqNLV9mXldytz5LHfunXTB8VCncRGDCiB7xCKs8jrDrC4KzXE4qillb6vfbqtV0iYS1nNj4iCnq22FF9mwCP48MZIEOo5143ygbu4CG1bfs3T8i5mVH0q0VK/3j0Rfb/83UW4L1YP/rlSZGDI54wg9YQI8iThf/cO3KyaMvk511D/LE882cPjjirZuJPovrbHiTNKZ5nl1xqx7YDuXYyA+UHxvRQrh94QUFfIQLm5gp0PuH3B9MXDx4arqFGB7ROb5n+VGNE2uoafuk0dHl/M35ErhYtKtc2YP6oFQkgyPeRN3SedSFeyJcKczX+LiSFU7EVS34puz/8oFeGUMjQkjdT+m4D+Qdr+Dq3VAKV4HqmlhaqAL9I2rd8duCs09EHPBHev7Bb1nAe94AyBNfLQ6BNzkA6N/3ic/8x8vCyjjZuuwd0f/nbTca/XD7WgIyO0kLvJ+58F3ufPETJQDff7/fhPtKMe7H3twAHqUzft+XcTc2YsR+tC4NaMBdM/WvTcMZGDn126CbuRI+BNydWRofuHF+4biDIxZwb6XAfWRKV4nCx/xgI5yZQi6+1Ge4BH/dXlDptrJ/6RlV8cCINV4slrYDN2eVoBd64mhn142oocc2VtJytVeurFpH34jTkDjZtM08K6Cezjz2B/i3tCSxT3qldZudw6c/tYIqhFwiup4feN6tyXQbPwlfsE6/4tl8Uey507g5INyre89y71vuieCnZmstbq9h3W0es5YDxMi+35uHmNMxpFgaOCM55j/Tq1AzGSb994X/n7jzCaNe2e0KV3FSUJauevyUMtxTp5+x75tUYIurbLcj4Pr0rZ7Cxi59UVWU98TDqEBddcS7ZUa1vQOuhzDgCJh6v07+hE8KmJWuSnVP3GRtfRA7/oYtIwb4R12PYUfAOHzz2cwoBWrlGnFTM5z/j0tY/1EvnfoE12PQEXCD/Cc9iZZDclLuWVifNlVTpfKJ+RTXY8QR+JW/M9zxaKLjnig0nUkscXhEuR6jjkDGqZu2OpgwAl/1UevYBl0P13NDjoCD9tBKtr1iVBMbGnHmpzzuCLgaNB4oXM8xmEhEA53viYMjXruZGHME4u21cU0eR+sSHic2OOLGhxlxBDaZy/1+1dNrE63Wr6J2HR7RT2XcEUjhFVdj0xwUW3Q0T/FrEDE44p3v8hRHIPZe62qgP9bo9sEyJ64WDIMjYiQTyiFHIGty+xhWyBaYp2XzAF9AIbf5SnG1Nz5iTqadTigcgeIb6/lu+aEpS1YDjDX6BRRLSZphLaM+ZcRpjkDhc90fut6eeTdQaYmBi1ijOx4n83TDSaHyaSNOcgTAjqn/X+v5Zz17Y402q9/oCVSWZuKIkxwBoNb7QmXXDB5rLNHS6VNHHHUEDNU9GYvrYtzm1xXewbswbURDnyOQUUp69z24dLPbnN3E+IgTkfViX48fe32T8d41Xtn/cfYYIY819nhm7xLGsiOxxufHhOhmh5C+e4xGNxv/wP5cGIlufgqMZZgYa3x+TI01Pj8mxxqfH4+LNbaws/N/lEy/skWA9XgAAAAASUVORK5CYII=;" vertex="1" parent="1">
          <mxGeometry x="385.01" y="-916.35" width="38.62" height="34.5" as="geometry" />
        </mxCell>
        <mxCell id="SVzCEJU157vRpgFHD0QC-93" value="" style="endArrow=none;html=1;rounded=1;strokeWidth=2;fontFamily=Helvetica;fontSize=24;edgeStyle=orthogonalEdgeStyle;" edge="1" parent="1">
          <mxGeometry width="50" height="50" relative="1" as="geometry">
            <mxPoint x="425" y="-924.22" as="sourcePoint" />
            <mxPoint x="486" y="-886.2" as="targetPoint" />
          </mxGeometry>
        </mxCell>
        <mxCell id="SVzCEJU157vRpgFHD0QC-94" value="" style="endArrow=none;html=1;rounded=0;strokeWidth=2;fontFamily=Helvetica;fontSize=24;" edge="1" parent="1">
          <mxGeometry width="50" height="50" relative="1" as="geometry">
            <mxPoint x="425" y="-887.22" as="sourcePoint" />
            <mxPoint x="485" y="-887.22" as="targetPoint" />
          </mxGeometry>
        </mxCell>
        <mxCell id="SVzCEJU157vRpgFHD0QC-95" value="" style="endArrow=classic;html=1;rounded=0;strokeWidth=2;fontFamily=Helvetica;fontSize=24;" edge="1" parent="1">
          <mxGeometry width="50" height="50" relative="1" as="geometry">
            <mxPoint x="486" y="-887" as="sourcePoint" />
            <mxPoint x="626.9700000000003" y="-887.8045905425092" as="targetPoint" />
          </mxGeometry>
        </mxCell>
        <mxCell id="SVzCEJU157vRpgFHD0QC-96" value="&lt;font style=&quot;font-size: 16px;&quot;&gt;&lt;span style=&quot;font-size: 16px;&quot;&gt;Aggregating&lt;/span&gt;&lt;/font&gt;" style="text;html=1;align=center;verticalAlign=middle;resizable=0;points=[];autosize=1;fontSize=16;fontStyle=1" vertex="1" parent="1">
          <mxGeometry x="496" y="-919.2600000000001" width="112" height="31" as="geometry" />
        </mxCell>
        <mxCell id="SVzCEJU157vRpgFHD0QC-97" value="" style="endArrow=classic;html=1;rounded=1;strokeWidth=2;fontFamily=Helvetica;fontSize=14;shape=flexArrow;fillColor=default;gradientColor=#EA6B66;strokeColor=#CCCCCC;" edge="1" parent="1">
          <mxGeometry width="50" height="50" relative="1" as="geometry">
            <mxPoint x="527.5799999999999" y="-711.2000000000003" as="sourcePoint" />
            <mxPoint x="528" y="-813.2" as="targetPoint" />
          </mxGeometry>
        </mxCell>
        <mxCell id="SVzCEJU157vRpgFHD0QC-98" value="" style="endArrow=classic;html=1;rounded=1;strokeWidth=2;fontFamily=Helvetica;fontSize=14;shape=flexArrow;fillColor=default;gradientColor=#EA6B66;strokeColor=#CCCCCC;" edge="1" parent="1">
          <mxGeometry width="50" height="50" relative="1" as="geometry">
            <mxPoint x="690.6999999999998" y="-716.2000000000003" as="sourcePoint" />
            <mxPoint x="690" y="-813.2" as="targetPoint" />
          </mxGeometry>
        </mxCell>
        <mxCell id="SVzCEJU157vRpgFHD0QC-99" value="" style="endArrow=classic;html=1;rounded=1;strokeWidth=2;fontFamily=Helvetica;fontSize=14;shape=flexArrow;fillColor=default;gradientColor=#EA6B66;strokeColor=#CCCCCC;width=11.764705882352942;endSize=4.6117647058823525;" edge="1" parent="1">
          <mxGeometry width="50" height="50" relative="1" as="geometry">
            <mxPoint x="1245" y="-708" as="sourcePoint" />
            <mxPoint x="1245" y="-810" as="targetPoint" />
          </mxGeometry>
        </mxCell>
        <mxCell id="SVzCEJU157vRpgFHD0QC-100" style="vsdxID=756;rotation=270;fillColor=none;gradientColor=none;strokeColor=none;shadow=0;labelBackgroundColor=none;rounded=0;html=1;whiteSpace=wrap;" vertex="1" parent="1">
          <mxGeometry x="1091" y="-894.8" width="34" height="81" as="geometry" />
        </mxCell>
        <mxCell id="SVzCEJU157vRpgFHD0QC-101" style="vsdxID=757;rotation=270;fillColor=#e51400;shape=stencil(vVTbjoMgEP0aHiXIGBee2+5/kC0qKRUzslv798Wg2WK1T41vcznMcE5mhsChb1SnCWe9R3fRN3P2DYEj4dy0jUbjg0XgROBQOdQ1ut/2HP1OjcjRurq/scIQ3+VsfMLZfXaj/x2x1rRPWPkxrMKfkMP5DzkteYTjhC9oUcTIkBaYC8qS5mJCZGowfYbOK29cG/MT2iqsdRbaZZVVdZLqb1p3L+FVMsvmQAXfpiMoFCkboLlM2CzUYXsRWe27QfkTyFQYScWLMF9lIsyGzjtIszVe6xMLlMFyYqUg6cSubsAu4/pu94LxfwwqY228Jc/55fEIoXh44PQA);strokeColor=#B20000;strokeWidth=2;shadow=0;labelBackgroundColor=none;rounded=0;html=1;whiteSpace=wrap;fontColor=#ffffff;" vertex="1" parent="SVzCEJU157vRpgFHD0QC-100">
          <mxGeometry x="1" y="3" width="30" height="78" as="geometry" />
        </mxCell>
        <mxCell id="SVzCEJU157vRpgFHD0QC-102" style="vsdxID=758;rotation=270;fillColor=#bfbfbf;gradientColor=none;shape=stencil(vVHLDsIgEPwajiQU4hfU+h8bu7RELM2CFv9eyMZYjCcP3mZ2Zh/ZEaaPM6wotIqJwgU3N6ZZmKPQ2i0zkksFCTMI09tAOFG4LSPzFaqzomu41wmZ+1Tt0OrB7MD0xE6gc5EoN5qi1vsa1Kmvo1SWkF2UFBIkF5ZmqweaUJY10nqYGiluiOuu3P182P/OKuD9Zuu855T2+mcspcSRmuEJ);strokeColor=#000000;strokeWidth=2;shadow=1;labelBackgroundColor=none;rounded=0;html=1;whiteSpace=wrap;" vertex="1" parent="SVzCEJU157vRpgFHD0QC-100">
          <mxGeometry x="-17" y="33" width="18" height="17" as="geometry" />
        </mxCell>
        <mxCell id="SVzCEJU157vRpgFHD0QC-103" style="vsdxID=759;rotation=270;fillColor=#f2f2f2;gradientColor=none;shape=stencil(vVHLDsIgEPwajiQU4hfU+h8bu7RELM2CFv9eyMZYjCcP3mZ2Zh/ZEaaPM6wotIqJwgU3N6ZZmKPQ2i0zkksFCTMI09tAOFG4LSPzFaqzomu41wmZ+1Tt0OrB7MD0xE6gc5EoN5qi1vsa1Kmvo1SWkF2UFBIkF5ZmqweaUJY10nqYGiluiOuu3P182P/OKuD9Zuu855T2+mcspcSRmuEJ);strokeColor=#000000;strokeWidth=2;shadow=1;labelBackgroundColor=none;rounded=0;html=1;whiteSpace=wrap;" vertex="1" parent="SVzCEJU157vRpgFHD0QC-100">
          <mxGeometry x="33" y="33" width="18" height="17" as="geometry" />
        </mxCell>
        <mxCell id="SVzCEJU157vRpgFHD0QC-104" style="vsdxID=760;rotation=270;fillColor=none;gradientColor=none;shape=stencil(nZBLDoAgDERP0z3SIyjew0SURgSD+Lu9kMZoXLhwN9O+tukAlrNpJg1SzDH4QW/URgNYgZTkjA4UkwJUgGXng+6DX1zLfmoymdXo17xh5zmRJ6Q42BWCfc2oJfdAr+Yv+AP9Cb7OJ3H/2JG1HNGz/84klThPVCc=);strokeColor=none;strokeWidth=2;shadow=1;labelBackgroundColor=none;rounded=0;html=1;whiteSpace=wrap;fontSize=12;" vertex="1" parent="SVzCEJU157vRpgFHD0QC-100">
          <mxGeometry x="5" y="19" width="24" height="32" as="geometry" />
        </mxCell>
        <mxCell id="SVzCEJU157vRpgFHD0QC-105" value="&lt;font style=&quot;font-size: 16px; font-family: SimSun; color: rgb(0, 0, 0); direction: ltr; letter-spacing: 0px; line-height: 120%; opacity: 1;&quot;&gt;...&lt;br style=&quot;font-size: 16px;&quot;&gt;&lt;/font&gt;" style="text;vsdxID=760;rotation=89.43;fillColor=none;gradientColor=none;strokeColor=none;strokeWidth=2;shadow=1;labelBackgroundColor=none;rounded=0;html=1;whiteSpace=wrap;verticalAlign=middle;align=center;horizontal=0;;html=1;fontSize=16;fontStyle=1" vertex="1" parent="SVzCEJU157vRpgFHD0QC-104">
          <mxGeometry x="3" y="3" width="24.82" height="32.53" as="geometry" />
        </mxCell>
        <mxCell id="SVzCEJU157vRpgFHD0QC-106" value="" style="endArrow=classic;html=1;rounded=0;strokeColor=#000000;strokeWidth=2;fontFamily=Helvetica;fontSize=14;fillColor=default;gradientColor=#A9C4EB;edgeStyle=orthogonalEdgeStyle;endFill=1;" edge="1" parent="SVzCEJU157vRpgFHD0QC-104">
          <mxGeometry width="50" height="50" relative="1" as="geometry">
            <mxPoint x="4" y="4.5" as="sourcePoint" />
            <mxPoint x="-105" y="-40" as="targetPoint" />
            <Array as="points">
              <mxPoint x="4" y="-11" />
              <mxPoint x="-105" y="-11" />
            </Array>
          </mxGeometry>
        </mxCell>
        <mxCell id="SVzCEJU157vRpgFHD0QC-107" style="vsdxID=756;rotation=270;fillColor=none;gradientColor=none;strokeColor=none;shadow=0;labelBackgroundColor=none;rounded=0;html=1;whiteSpace=wrap;" vertex="1" parent="1">
          <mxGeometry x="971" y="-974.8" width="34" height="81" as="geometry" />
        </mxCell>
        <mxCell id="SVzCEJU157vRpgFHD0QC-108" style="vsdxID=757;rotation=270;fillColor=#e51400;shape=stencil(vVTbjoMgEP0aHiXIGBee2+5/kC0qKRUzslv798Wg2WK1T41vcznMcE5mhsChb1SnCWe9R3fRN3P2DYEj4dy0jUbjg0XgROBQOdQ1ut/2HP1OjcjRurq/scIQ3+VsfMLZfXaj/x2x1rRPWPkxrMKfkMP5DzkteYTjhC9oUcTIkBaYC8qS5mJCZGowfYbOK29cG/MT2iqsdRbaZZVVdZLqb1p3L+FVMsvmQAXfpiMoFCkboLlM2CzUYXsRWe27QfkTyFQYScWLMF9lIsyGzjtIszVe6xMLlMFyYqUg6cSubsAu4/pu94LxfwwqY228Jc/55fEIoXh44PQA);strokeColor=#B20000;strokeWidth=2;shadow=1;labelBackgroundColor=none;rounded=0;html=1;whiteSpace=wrap;fontColor=#ffffff;" vertex="1" parent="SVzCEJU157vRpgFHD0QC-107">
          <mxGeometry x="1" y="3" width="30" height="78" as="geometry" />
        </mxCell>
        <mxCell id="SVzCEJU157vRpgFHD0QC-109" style="vsdxID=758;rotation=270;fillColor=#bfbfbf;gradientColor=none;shape=stencil(vVHLDsIgEPwajiQU4hfU+h8bu7RELM2CFv9eyMZYjCcP3mZ2Zh/ZEaaPM6wotIqJwgU3N6ZZmKPQ2i0zkksFCTMI09tAOFG4LSPzFaqzomu41wmZ+1Tt0OrB7MD0xE6gc5EoN5qi1vsa1Kmvo1SWkF2UFBIkF5ZmqweaUJY10nqYGiluiOuu3P182P/OKuD9Zuu855T2+mcspcSRmuEJ);strokeColor=#000000;strokeWidth=2;shadow=1;labelBackgroundColor=none;rounded=0;html=1;whiteSpace=wrap;" vertex="1" parent="SVzCEJU157vRpgFHD0QC-107">
          <mxGeometry x="-17" y="34" width="18" height="17" as="geometry" />
        </mxCell>
        <mxCell id="SVzCEJU157vRpgFHD0QC-110" style="vsdxID=759;rotation=270;fillColor=#f2f2f2;gradientColor=none;shape=stencil(vVHLDsIgEPwajiQU4hfU+h8bu7RELM2CFv9eyMZYjCcP3mZ2Zh/ZEaaPM6wotIqJwgU3N6ZZmKPQ2i0zkksFCTMI09tAOFG4LSPzFaqzomu41wmZ+1Tt0OrB7MD0xE6gc5EoN5qi1vsa1Kmvo1SWkF2UFBIkF5ZmqweaUJY10nqYGiluiOuu3P182P/OKuD9Zuu855T2+mcspcSRmuEJ);strokeColor=#000000;strokeWidth=2;shadow=1;labelBackgroundColor=none;rounded=0;html=1;whiteSpace=wrap;" vertex="1" parent="SVzCEJU157vRpgFHD0QC-107">
          <mxGeometry x="33" y="33" width="18" height="17" as="geometry" />
        </mxCell>
        <mxCell id="SVzCEJU157vRpgFHD0QC-111" style="vsdxID=760;rotation=270;fillColor=none;gradientColor=none;shape=stencil(nZBLDoAgDERP0z3SIyjew0SURgSD+Lu9kMZoXLhwN9O+tukAlrNpJg1SzDH4QW/URgNYgZTkjA4UkwJUgGXng+6DX1zLfmoymdXo17xh5zmRJ6Q42BWCfc2oJfdAr+Yv+AP9Cb7OJ3H/2JG1HNGz/84klThPVCc=);strokeColor=none;strokeWidth=2;shadow=1;labelBackgroundColor=none;rounded=0;html=1;whiteSpace=wrap;fontSize=12;" vertex="1" parent="SVzCEJU157vRpgFHD0QC-107">
          <mxGeometry x="5" y="20" width="24" height="32" as="geometry" />
        </mxCell>
        <mxCell id="SVzCEJU157vRpgFHD0QC-112" value="&lt;font style=&quot;font-size: 19px; font-family: SimSun; color: rgb(0, 0, 0); direction: ltr; letter-spacing: 0px; line-height: 120%; opacity: 1;&quot;&gt;...&lt;br style=&quot;font-size: 19px;&quot;&gt;&lt;/font&gt;" style="text;vsdxID=760;rotation=89.43;fillColor=none;gradientColor=none;strokeColor=none;strokeWidth=2;shadow=1;labelBackgroundColor=none;rounded=0;html=1;whiteSpace=wrap;verticalAlign=middle;align=center;horizontal=0;;html=1;fontSize=19;" vertex="1" parent="SVzCEJU157vRpgFHD0QC-111">
          <mxGeometry x="2" y="1" width="24.82" height="32.53" as="geometry" />
        </mxCell>
        <mxCell id="SVzCEJU157vRpgFHD0QC-113" value="" style="endArrow=none;html=1;rounded=1;strokeColor=#000000;strokeWidth=2;fontFamily=Helvetica;fontSize=14;fillColor=default;gradientColor=#A9C4EB;edgeStyle=orthogonalEdgeStyle;endFill=0;" edge="1" parent="1">
          <mxGeometry width="50" height="50" relative="1" as="geometry">
            <mxPoint x="426" y="-837.77" as="sourcePoint" />
            <mxPoint x="486" y="-889.2" as="targetPoint" />
          </mxGeometry>
        </mxCell>
        <mxCell id="SVzCEJU157vRpgFHD0QC-114" value="" style="endArrow=none;html=1;rounded=0;strokeColor=#000000;strokeWidth=2;fontFamily=Helvetica;fontSize=14;fillColor=default;gradientColor=#A9C4EB;edgeStyle=orthogonalEdgeStyle;exitX=0;exitY=0.5;exitDx=0;exitDy=0;" edge="1" parent="1" source="SVzCEJU157vRpgFHD0QC-68">
          <mxGeometry width="50" height="50" relative="1" as="geometry">
            <mxPoint x="870" y="-870.3" as="sourcePoint" />
            <mxPoint x="991" y="-894.8" as="targetPoint" />
            <Array as="points">
              <mxPoint x="889" y="-886" />
              <mxPoint x="991" y="-886" />
            </Array>
          </mxGeometry>
        </mxCell>
        <mxCell id="SVzCEJU157vRpgFHD0QC-115" value="…" style="text;html=1;resizable=0;autosize=1;align=center;verticalAlign=middle;points=[];fillColor=none;strokeColor=none;rounded=0;fontFamily=Helvetica;fontSize=24;fontStyle=1" vertex="1" parent="1">
          <mxGeometry x="1016" y="-878.2199999999998" width="50" height="40" as="geometry" />
        </mxCell>
        <mxCell id="SVzCEJU157vRpgFHD0QC-116" value="" style="shape=image;verticalLabelPosition=bottom;labelBackgroundColor=default;verticalAlign=top;aspect=fixed;imageAspect=0;image=data:image/png,iVBORw0KGgoAAAANSUhEUgAAAJwAAAB/CAMAAAFasWvFAAAAAXNSR0IArs4c6QAAAARnQU1BAACxjwv8YQUAAAGwUExURQAAAICAgICAgIWFhYCAgISEhICAgHx8fICAgH19fYCAgIKCgoCAgICAgICAgICAgIGBgYCAgH5+foCAgICAgICAgH5+foCAgIGBgYCAgICAgH5+foCAgICAgICAgICAgICAgIGBgYCAgH5+foCAgH9/f4CAgH9/f4CAgH9/f4CAgICAgH9/f4CAgICAgH9/f39/f4CAgICAgICAgH9/f39/f35+fn9/f39/f4CAgICAgICAgH9/f4CAgH9/f35+fn5+fn9/f35+foCAgH9/f39/f4CAgH5+fn9/f39/f39/f35+fn5+fn9/f35+foCAgH9/f39/f39/f39/f4CAgH9/f35+foCAgH5+fn9/f35+fn9/f35+fn9/f35+fn9/f39/f35+foCAgH9/f4CAgH5+fn9/f35+foCAgH9/f35+foCAgH9/f35+fn9/f35+foCAgH9/f4N7e4d3d4tzc49vb5Nra5dnZ5tjY59fX6NbW6dXV69PT7NLS7dHR7tDQ79AQMc4OMs0NM8wMNMsLNcoKNskJN8gIOMcHOcYGOsUFO8QEPMMDPcICPsEBP8AAA0dazEAAABxdFJOUwAIEBcYHyAnKC8wNTg8PkBDSEtMTlBXWFlgYmVoanB0dnd4eYCHiI2Oj5CWl5icnZ+goqSlp6qrr7CytLe4uby+v8DAxcfIysvNz9DW19jY2dvf4eLj5OTm5+jp6uvs7/Hy8vP09vf4+Pn6+vv8/f7+RnBrjwAAAAlwSFlzAAAXEQAAFxEByibzPwAAEUlJREFUaEOlm4ljHkUZxveLIcZajFVjrZaIMUWjVepRrRqPqPGo1iN4RcR4foqAMGkpIGopQkNbSv5ln+d53zn23pIfZHdn5p3Z2dmZ95j9WlXVNv7IeT+TcHTVTkdBabJ7hBTB+YTnVdXzyFyomIkSz0PFM1XgfzqgmZeueL7LIO81azssIrFDSRbaDcPR4QNnPRHm4RQL9/Ld77FN4+Do3kPvCmF+k5LhRLWp3HAaiXN26c3EhJ2rcMduFMI6GwthXydmLvBGVTVnQvI8XLBMSrymJkSwhk+GOzobS+t2jsMKYg/C0euXlAGseXbOyojycPKzgSvKVWEX55WZ37Pafc5uEKqzbENy/FuwM/Ju+j32rT1rh3lXmeB9Zz6OXr4Vjp4/tcv6bNraUTnOmxxhu5zZGf/7fVfCjNWtn2gqPcfrdq52TFgNlM87v3ZT1/GZDLW15glPluXGMu/u7ZNwm8mDluBmlJsrqQc/OnolhD2lM5shHMR77eDg12HNboFxDcFnsVCxDwbBRJ7bWB8dvVx2Q3J+DWa4xuS+pX7gelnlAZVZm8lb6B0EfxTCRlgMB3iT6PyZ+Bzs2cqGP8ctpi9L3Fkv5VbxIP/1ZDh/opSrTtvzsnsnWYD74zWj4H28qNAXnjIrjQw+B3PY/JvKX9rm1JdY4AzalkbBEHF6vEw5Pq9qUGS/qhZ5RvLVsBkeDOFUqj7DQ1mFhJJvBSibOpxlkIsLywRrPXe22IpfA427X9fZLJYuWNvO2q6gMUDN4Ylshpu1/vjjeypj/baBTMkj6NEG1FwsSHjSixNxwK0gyzUFrYANIcH38SaS/2L6pAlEmIUXo1cbAiZWgB7Z5qzBi/RiCbJIaf1Vq5YfVrSQNPGV4UC5E09RQH/hLXWrWKTQ1JjDngBqtOPx682psboc2tnF6WE+C858j5z2J8I51jQ5KAsmrC4nDk7XD5XGlV79PWvO5ikzwCx8XcnDUF1Bck3VAWvBUEqQWRsYNk+GLYpAoFrioQp3Y4ETk1X1F4k54boXVOfxl+SwipDI2lN2rGgOhUrmjtmq9bTyMS5Qa57kxVmklVS79n6rJ3z8sJJ0nNmwsPmrlm8oM6tJpKHL0mN5JggcsTKtQymndYmR+3z4CdO2LlnESZjk1IxGhJfLS5aEGoIGX/fXEFYxLf+jCiyzPnoS8F6uHb0Ht305IItJCdpjM4uLNLyRCoyYNKlEuGEFMelylz2dsII0kueUvNtsDQRYPrwiTyF54+j51l0JO7Xi14DJ1l0NWBcxX/SMGgv2nm3VjCPpG4eHL/K86pkJaeHrtw5h8oBnDgAh6lOBF5TcKYMr2AuxBsfbuxjCKy4O2IMmXgRgakvz3wVWxqFLA2+hhheBe0wOjyDNpkvTRJINL6ouKSnbLpQExUJrAfsfrkqvvmbCwEp0yVVkY4v5Ez6gvJrGpeYEu2lW0Ed3Zp7AojCHBkJs0MBz8ub0VGIX3e0xlGOYFgRWe8+Wc3rPvuiw+pELaRZepBZOQ8X33jVvkY1FHcI38edZJRfcI6R2A6atRbd80X/PqYMebelCPo4pdQGrqfwG2xSD8w0d5axtb5/PngeGY7Oa+ZCa7hdIsVjuqbBJyquZfBLqLXNODBX7Kxd/g6rzxjgpcUtOPHNQX8LFlaQPxJ6qSvzodVzx1dhgfIglJ+hYguRL61aadeRl5e5rpUIbWcty3QVqfUJZPrz2/P5OTisBa4zQMWIldbyIKC2PkRct7QMw7uaKC8k7Fzasd14ETElpRHm2Bhog36Xpt5OLEg5zeNmBzhAdLEInyxriawfeQg3OngO4GtbY3FZQuLCnE8p1picGzG3VJH8U46uAp6XK3d8iTGre6IW7amEPAT0kw6bcE3zxfao8rdnYH+IZDdDxSzbXyYAqF5DmAzyGd37Bs2qgXCZMa6yhyiVQAxPzSQnykZphBMDYmkE0VVZX5SqwqY0GqMPsUs4Mz8Deii9hTFoqFE30wGH2tkyVo0RvPY6mzXf5V7ra1YuJhnFOfT+3CEbedkOVW61kDZgFKAg0IYAXatGG8CwP2aDVVLm0YbYttVUR8SLwP8swbVeSpwWUeF7jI82x2PZueuFgubBCwvikDjLy3bA0TG8MwBHyt3291Zrau2qld3HZNU+bQCxS2k/HZ4zwrFHWsPa641CyhJkxT77BBOq2pcnS5rYHBVMY8QdbGmiYDlNVEu8FiiCnFy2rfvdy2DdtQzGbCdHylXAauUajQvbcfka81dxar36sAfmaIa1vHdTWzJvtu7Uo5bXP1GRM3daBiAsTNVDH9jUEUr/yan1AxIWBfOkGTUfc6/UAARcGmizJ0TSlb7spgsnW7kgdzKuma+4luhXwsujXd+qJBLV96TWAaJ99PSR31ZKgub1ZQvuXPX152KYjZQU+g7/CtuAOv+O5iCwWzClPXVYqOiFmi3O+2x/3B2cspu+eQ9HkDaQxdy8XQKXoTF/GcpumCsfVGAWQQkGkFV36NBY4bbpa0hpx91LXtlvFpOws+yZn+zazCp8hdlWucgjvsJNnFpYPmRCNcQ+OcUljPGxHug4kHqdweKqz3N06DcEqOveCt6YXbyI1zttOHWrZ7moTlPC92jsr1wCmWZcRhsy78fcx/HlODQyueVD2rrwtcKf0KDOSEl2lKreLn1HG2yKpoIbFpySv3hL4Z3IjbY54UwBmXW+7CaXez4OnG4aRo5Zv6m2Bf8fJ2FgnuPyFJpslW4YR1x+3LJAVDhKaeI11wuRcXdQ8Kea9G0a3pE8rwkumITo4jXVi/qfNZoyRSuuG0eYIfZcl+rm2jcU1Tz+iuU5wwH1/EMK3cbXYYRhtVnoUr2vXHxosnMt1wmG0p5nZiDYMIyMrQp+ZvcnPpqForhOwaPeMt/YyM4zy4ncwlf+IM+vHkfQ5iiuXBlLHeNvs15fXNz7FZHtLCW9Y5+xi5AmKbBcGWCct6obRR0idVP0GyHZhQqkGTcMov4IvvtP/Qb4LA7q/kb2Nja/w3DKMXEkcsE53FPkuDLBOZEd5ar8KGkbpzSTQBiFUbZ1QzJT9AjQQlVBpGFdtrX6Qh86n5RQv1wmYo5HvwB3BZUfQZaum3FKqOdaNdeK2wh4H2rhuGFVDlzxSJ7Qca0uldaI4wrZjFMg1YjjyHK7nMAJ4KR2OdWOdMCBdqX6Jo0rrhpFEMwGBTse6vk7YsV1leRoUOwUyEt9jsb9nDVTTsc7rxAJpUmxiF3B0i20wa61/G9ikSLenhHfHbpghG3KsBW8OhScF6lk1Ur7t33hboHtXGeH3Nyh3Cbfvil7TTkX1aL05TnMrKKGMeMiNRQOU2IVNCG8KwLGO8nli+xj75FBWzTCicxrStmHEZLFdAmkvwCpm1lbYiX9aTm2Xhfk4203PoYM1x5rzyb7wCExznTE4cbH59yCBiQO1js5hfPVkTccardX3XWyBsxvyWUNj04Z3W3DDSCHOluxYx8/ZypA++wOTZu41BF/FHz9DASa5yaNhjVOS18mxRpq6zcTjNk7aF7NUaw+I5FDFZzOQSkFSH8+F5UsMuGbzMrfrZMcFRH2zEFcuDXxXqEZ7S6m9J9BjGLnL08S+uAmlUzzSCQRcmKhCnbzGWfpkVKE9QMSFAeyBr0cHE8wUv4Cs5/dSuz9eeH3V8214WdeGV5tya4FW27MjyEkvHjcb3VpghYEtsJH9szZy2DBAd7hM2vKcptcwHNo/T182BxjZUfMSMjxHIj77m281on1Y0m2JOhjZoBve3etmYd1sidg9115JQxyr8hjL/j2jZH/qUB2r8ijF1486U7Y7j1V5lMX44C8lD/2ufS3DAHTHs5ljVR5n0Q1Hthbijlkm/0rXx7EqT8AevYhDIv9VwbzjS0/mWJXHsRj/RW+zhqKfuGvVybEqT8A8r+LrZ4Zx8BQGKj99vKEzF7H4bl7gIdMYg5Xno1+FBrBNxFe9xRpvqGicscrbb3v4LAo7iH5tiQe1YKft3ixGr3y0MphPMctdyPUOB4XvZty7pgKnqfBLAz9amey8PZNmLzY8X/iCaD1q0kj9W7QtI/AnO3VX/rWOjMfJ0PAtrSGYQrS13tKMMTAK127oHndupneymfc+9/OjL2WHf3mosm9FzL+kE+gcvtN5goj5en0Snff8BjuYyWmM8me73GFlDVT2t7I3W0kbFrERZ6kI8jINt+Fk0Qlj1zaBuFcUucxHmhXOkf8WuLdyfDaGnBd1BS7nfY6F5M9cv3Hr8PDwFUWOZN60y0trW3rA+fZG8erTeyMr1cmis6V16q4cw1957K3h8/AthqBG/CDV/TW3iS3n3+gYfmwnhPFgin6d2YyyW83SFLiCkfG+FSGj4WHvpN5585/U0fihjp0/Jmnhjkv07k6m6f+IFTQcGuJh8iR/1Xet3xnn7v7DOu2NBJ4R7l2ApEjy8JHWuBGLyWsRfC+23XbF3m8IP7fT4FfPEn99xS5rHr4ycM94hO/SI3St95EfjZT4TmleKIsppCu3AQqszKVHyBtSf/Zz1x5fP6YZ/bPQsu+zGcWmQsZ+zVkPVfuNSNwlPpc+mzzoJcZYaGimArP0ZOsldAzdW+blZ2UwaESivfoarn9rl8V3hCmhoZmKZ3Rs0Fqud61vcTdjxIhke3XatR7Ztd5PDA2LkQ3f4lc5KDIbz3C1+C6Drrlt9r6NGJFZMUfmH9bJHQ2sv4mh4Xq2KxcWXHHi7sncJK9BWzbENc+IETlhDcy/oJOZhlVXVVtTQsNZ3vgHm1Gp28jU/MJM3OUZMSLft9NW3pCWafBn1i/khkLDhTwN/m6nj5Z9A8tZrTiX03x1r6PfiAgunLhOfVs4eyIDoWFi/0wyFaKu/fu8BnuyASMCnvwuFExyKVqMxpV7/oOEOIGaKqwXW0VDRmSUkbjys34nYPv+k/vmlmnIiIwyGldm91K/zAnPTg127LUOGBHwuRVgPx0n+1RwRRwxEBp6/BODG4+lJjs0vunab0TILlzeWZ50F9PPKGwkekPDy4V3jtA69m36e3Ut1GdEfIDO8J+UgKd0/IhblLPDcaV1YTU+1T90tBbaP6rtZsSIePFjOs7jP+0ge5w6g6Ghs1AEQPMHTM8V+0+DXsOIEVnOsyucin0FUYsPhYaJs7GRx0+6VfGuj3sNI0YkzRtmWBgf5oUjPBAaJvJDBTOECsGmeQ1DRiQZh2fRoWgomy5fn5J3ir4lVu9nQ7m//fQd5YvpJXT/0KsP174n6i/RfsU/6DVMoGNeTPw8ZMS+8bo5hsfdULYp/1cdwadtRnf9gq8b71usUMRex99Q9ln7Xv7eAfx+0dSHfa2fgAcgxRrJqnnIa+j8iV4D/wdS+vGEsWY2b6IibYetZWg45DW49BDWUKHsQvipRTkDu4EZ71sOpeqh4YDXUKy5hfUiytk9n/R08dsh2NilmluXhPoqp77FbbkiNDSbM+A1RF1XGpgIN4KgXzxFFORnvzv6s/2Vk/drfTuVV8IOyq2lAa9BLNeGowDzJJu9uJ9X7tAheB2qXPbtTJbb8pGd4DXM4oNfTyvnNv/RHrnyiF+kXUxSjNR7hioveN8266GhtwLGvQYfm/RjTeOw8fmmZiyzSTQHqKeyx1sewJFzTfUz4jXYo7+Q/mFiIlo54tF9ogy0Rys78+6vw0NegzkkxT9BzfjP/0HHrwkKR2aksmBo2E+fVTctVvwTzEzXr1e7GK0cQ8P7xlZ3t57OQcQgw5WvTN4BbWNvvNPClb+sHWKg8jMNr+w+se2t4h8WZ8Z9g2NVnoL5ah1elf0T27f5jX9K5Ql4vHFQU9NQ1K4Oh/3RY1WeQvyse3BD/4xY3PTpPB9r/liVJ1F+3jool+gUV/xYlSdxqst6RzdnjGNVnsZKzSLt3t+PGo5VuYeq+j8W6s0j74iLGQAAAABJRU5ErkJggg==;" vertex="1" parent="1">
          <mxGeometry x="1295.97" y="-964.8" width="80.56" height="65.58" as="geometry" />
        </mxCell>
        <mxCell id="SVzCEJU157vRpgFHD0QC-117" value="" style="endArrow=classic;html=1;rounded=0;strokeColor=#000000;strokeWidth=2;fontFamily=Helvetica;fontSize=14;fillColor=default;gradientColor=#A9C4EB;" edge="1" parent="1">
          <mxGeometry width="50" height="50" relative="1" as="geometry">
            <mxPoint x="1028" y="-934.0699999999999" as="sourcePoint" />
            <mxPoint x="1301" y="-934.8" as="targetPoint" />
          </mxGeometry>
        </mxCell>
        <mxCell id="SVzCEJU157vRpgFHD0QC-118" value="" style="endArrow=none;html=1;rounded=0;strokeColor=#000000;strokeWidth=2;fontFamily=Helvetica;fontSize=14;fillColor=default;gradientColor=#A9C4EB;exitX=0.453;exitY=0.006;exitDx=0;exitDy=0;exitPerimeter=0;" edge="1" parent="1" source="SVzCEJU157vRpgFHD0QC-75">
          <mxGeometry width="50" height="50" relative="1" as="geometry">
            <mxPoint x="1201" y="-884.8" as="sourcePoint" />
            <mxPoint x="1214" y="-934.8" as="targetPoint" />
          </mxGeometry>
        </mxCell>
        <mxCell id="SVzCEJU157vRpgFHD0QC-119" value="…" style="text;html=1;resizable=0;autosize=1;align=center;verticalAlign=middle;points=[];fillColor=none;strokeColor=none;rounded=0;fontFamily=Helvetica;fontSize=24;fontStyle=1" vertex="1" parent="1">
          <mxGeometry x="1093" y="-491.9" width="50" height="40" as="geometry" />
        </mxCell>
        <mxCell id="SVzCEJU157vRpgFHD0QC-120" value="&lt;span style=&quot;font-size: 19px;&quot;&gt;&lt;span style=&quot;font-size: 19px;&quot;&gt;local&lt;/span&gt;&lt;/span&gt;" style="text;html=1;align=center;verticalAlign=middle;resizable=0;points=[];autosize=1;fontSize=19;fontStyle=0" vertex="1" parent="1">
          <mxGeometry x="378" y="-357.13000000000005" width="57" height="35" as="geometry" />
        </mxCell>
        <mxCell id="SVzCEJU157vRpgFHD0QC-121" style="vsdxID=780;fillColor=#e51400;shape=stencil(lVjRdtsgDP2avOoAAmw/d9t/9KzpmrOu6Unbrf37kWM7CAmQ/RYcCa6kq2vhA969Pd2/Hg/OvL1fzr+P/04P708H/HZw7vTydLyc3tOvA34/4N3j+XL8dTl/vDzM69f7q+X115/z3+sOn7NfMFcXZ77m5bz6MVv+/LjMpnb+0wWY7GJuqb35dMXya1lGwLAYYGmwLJ0BtPTI59MLAVdiGyaIUw+fKbFNCNGX+GgEyyNrTAkxMIyrQePQwYOZyoPzlvyM9VAKDbkNNsItc5PtG6nkQLODFdVxOZaxRKokx7QB9phVcnByMMZ9paYuy6NxAM/jSWkeROaH0I8pm7T6IGUOBdcGfjhYX55NEaIw2lZ24rBUcQTTr7uH4Eq0qc5rXla06ABdCXcYwWI/VdmkcXgcII7scLLtmpgAnvGOQkRZc2wEXyZrA7F2O2jUjQYm3z/B9x1qXPdlDq8+rIAUySq/Vk+gBdMtYKXRUtIF12WjaV22u8X0/qLAmv2lRkxcLMtjPplnmtQDhRFuYobs7J32fgIXdypBSC9EpypBmADHfjmzyXYloNu2lYBCbBNZBK819oY+VRw0JfAOrKI1vu+wQQmSj2MFrCjB1SroOUxW3RpWxCCwUaeiBCGKwwV7bibb9YBu25SEwOYXqQdq0FIPaDabkkAL05QEhSKyxXfao10njpYkRAhlcDisL7ysCKmmPDoDUZkNsklLEVJNeWbJtqsi4A2hkwjbZBaha/29oV0Vh+7NCr0ikBWKZ58Oxd14G9rbLFdvB5Ll1kHg1ycC8XbF03pba22qGFZs2tY0iq9NAzXwiqbRjLZljRanEbqoefeGJKxLPqW5OQyFw2i11BKX9dEEgXeYAcuHNzn6j05eVbTpf/Rg2QeD+vQ/sEs5RYnSCjfGT33sLYyJzxwEZX7Ea1uJf9RammbWyp2drJKTKFFateJnbwOdMBrDooO9BEtj0sATLAlWmSgrCVaHygrB6kMlJxhF2SaYFn6FX9GLeazCrxjE67MSfrbazi+6c5tfFGWbXzx8jV7cXmOX1z60VOiVXrpG16/KeFLJrzqhVOhVm1AkvSjKNr3U+Cv88vmC1OGXjzDq7ZWttvOL7tzmF0XZ5peIXyOYcEg/8oftx9Pz8/xdnP7PP4SnR/NHdPz+Hw==);strokeColor=#B20000;strokeWidth=0;shadow=0;spacingTop=-3;spacingBottom=-3;spacingLeft=-3;spacingRight=-3;labelBackgroundColor=none;rounded=0;html=1;whiteSpace=wrap;fontColor=#ffffff;fontSize=19;fontStyle=0" vertex="1" parent="1">
          <mxGeometry x="463.3299999999999" y="-411.06" width="38.51" height="54.93" as="geometry" />
        </mxCell>
        <mxCell id="SVzCEJU157vRpgFHD0QC-122" value="&lt;span style=&quot;font-size: 19px;&quot;&gt;&lt;span style=&quot;font-size: 19px;&quot;&gt;poisoned&lt;/span&gt;&lt;/span&gt;" style="text;html=1;align=center;verticalAlign=middle;resizable=0;points=[];autosize=1;fontSize=19;fontStyle=0" vertex="1" parent="1">
          <mxGeometry x="435.96000000000004" y="-356.2000000000001" width="95" height="35" as="geometry" />
        </mxCell>
        <mxCell id="SVzCEJU157vRpgFHD0QC-123" value="" style="shape=image;verticalLabelPosition=bottom;labelBackgroundColor=default;verticalAlign=top;aspect=fixed;imageAspect=0;image=data:image/png,iVBORw0KGgoAAAANSUhEUgAAAJYAAACGCAMAAAF/DrPdAAAAAXNSR0IArs4c6QAAAARnQU1BAACxjwv8YQUAAAF0UExURQAAAICAgICAgIWFhYCAgICAgHx8fICAgH19fYCAgH19fYCAgICAgICAgH5+foCAgICAgIGBgYCAgICAgICAgICAgICAgICAgH5+foCAgICAgIGBgYCAgIGBgYCAgICAgH9/f39/f39/f39/f4CAgH5+foCAgH9/f4CAgH9/f39/f35+fn9/f4CAgH9/f4CAgH9/f35+fn9/f35+fn9/f4CAgH9/f39/f39/f39/f39/f39/f35+fn5+fn9/f4CAgH5+fn9/f39/f4CAgH9/f39/f4CAgH9/f39/f39/f39/f35+foCAgH9/f39/f35+fn9/f4CAgH9/f4CAgH9/f35+foCAgH9/f35+foCAgH9/f4J8fIN7e4d3d4tzc49vb5Nra5dnZ5tjY59fX6NbW6dXV6tTU69PT7NLS7dHR7tDQ79AQMM8PMc4OMs0NM8wMNMsLNcoKNskJN8gIOMcHOcYGOsUFO8QEPMMDPcICPsEBP8AAN/IF90AAABadFJOUwAIEBcYICcoLzA1OD5AQ0hQVVhgYmRoam9wdnd4fYCEhYePl5qenp+ipaeqq66vsre4uby/wMXHycvP0dLW19ja29/g4eXm5+nt7/Dw8/X29/j5+vv8/P3+/gehoukAAAAJcEhZcwAAFxEAABcRAcom8z8AAA+USURBVGhDxZuLXx1HFccvCMZbjImgaCqiQDWKiqgoikoVtdSr1mvro45p3jamaVpbahNy/3l/v985Mzv7uLubS0K/n7C78zgzs/M4c+bszSCx5feMMJkEf0xM6nHhPuJSZOAjLrjh33oIcybEO5MRyyJ2GHcQpcL7KjZMbu9dQo7JfWYrqmcUiyhqUdxDxS1beGQVKo89DgYfKYOlz1l5+yzImsIiThinF91Dzgdhl6KKQyovqhcPe5sMGk8sQwlIL/ljwZ7fC44+aBBFHa/5s8O2TsKKh/RS+hfG46FCFHqImJjM7NZYH8gw73GoEPmXA5+3L/ImFsLYMwwGFywqFvTKSmxiCBg/RQ/e+GKq93oYWGdY9n2v14SOYkiXHfRwCDtheE/1XuDFGjvPJwoYjFv354QqnMIYiS3JTriNclGbD/gU1CJmC7UmYAyv2l31nSpX+Ee4pLi1vYu6q4BHaA7/7SNirAwMLy6E6xJCSakaSkhQHCmMmRjTHvPplipE8nJ80N3KCMcxjN4nyMT4U1YZfhg42wFLT6jo7E3XysnOVcmFgDnOxmBVlYoJ4d5kco3TwqPHQV3A8AZLP2X8dqpmTtVGRngOXLZKQyP19CFkMVGUhg7D1LTmK1HiDOlhXg+Mv8sHdvWBomprr3hTj5iC5evKBY5Qiz+2MdxrmENV1OQND0xDLbsZ0uJs5CDrpel4ZzxqzYUmKdfjtsK47JSLb+BxibgcNGmY7V74Vsrm60gzh+vxKKyEoU3Tg0G4rGwK4SGtmYOwvsWEdQ01IvQPabbY2BC25CrjIxfxiDilUUXGhbWL6EwPcK17LmoqbEB8QDn7RVFeZZEr1ciMqkZ3m5a+bL1YRXGdhvCIIUwNi/pgMrkdsDPEJQpFHMJWLPmYkbtWMt8ZaAaEMGKkckGlriOgxDIbiFzzXFqJjblCWL0c3izeZVoubDe4ItODsKqgpwiGuVAXGY0LiErJJgDXAaXRDjKmkI2jC7sqUSZvSTIICApCFPZwbTlJbSBLWPAsAE2LJXCE4mgzV1HYOh6lnpSY1zhYQtKmnqzC31jahwHjhQYiExMWaBmEk38zC4KLXgQTCwWkBwy2lYwkj9IT1L+bEFuIYabJOzEJG6M/5KT2NphmBZ7rTkMBOeGBiuIQtQAl91ZqVAvI06W+GrC1D7Lhmw2V8s7JyR3eM8vs6eEq1BQjNxHw+FmAtBdE7lEvzQrfy8sRCM5YGEsqlfUfRfTYpaqYyQVoGwgsByNZqk3MR8Edj5B++GYIsBXBrY8nk/f4gG0AWg5/Zlw1CGIJI//JybuKZQx35RXKxYCAShisUOWwAKrPuiBSbvhbqHcv0/7HnMa1YXaiVVIzIbBNZUEWfsfDhLnU4p3sjXOQ7Lea4ADqXwrE4WLkyywwrQkoDiWw2yqCNBzf8iBBDhKrJ9J7YWS7NjVUuLqqqKqgaTkPT/6rLMaaJGU1Rmja++u9Rlu5LMgtmK8Drus61lBd0jNEcb3l2Z/gGfuFtVLtrgg63uaRKjZ17BltTzZMKBxqLpglUBJsgqmcjZwc1fWITcAycIB6QO2HG14WeDHkoSKwHtkwy9qJRNhlIxhORWHaULgKvoy/on+qLNpCMYWCB25tyi2T5GZcj9ortJXjcoWBkiBR0DkYoJzv8ynOp0PFAwkDD+It/UEcMImDHCcwNGeBBOtse7NFLkgDMFzzCMBJpOipa4h2GW7KVhFkZ6I7EtcQp5mDsTrivQplCNdlRZD7Pg2KCHIAzi7TLmS4tZfOD0ikJrIurwgq9W0PK2ZDug6DiCtaiGsEOghrYpPdYnZjVXAAkxfAvnqsU5X0H+dVuII/Fusb5G08fgUxXlOzoIuSzNjQNAL3rSTiMdF/A5oEGzFL2sshOLNglnrqU1Mu6+MQXvGEGcCk5NnFQckePxO0FG2zgcl/tqIAS3PObICB9b29q3Gln4k5zifSauf2wnwlhkfNioq6mZsMM0O16hsqJtd0vdwHGAhJR1FDDT1+FiDuJYH7Z2oYdtK4a5Mz9divdUZOnKUs7rm5WUQbwJOeFu3bdro0GJ6tMDMB7no5RBGzFGZmUz6O73uMZ+hPLMp9psQjOgvLty1C/Qy777u4+Vv6LkzyWVYVdFsP0LgiLIr6wbRX2mrmYJGx+FRYTbCyBQI5KWyzh2meoMPRjSllqwtazIMTHv/lRzI7lFszG1/etnCfS4UpOhfULp1tp0PzHSknk/HCtDX9SEsjR7MFtkZNUDZGmtzsFZlvNpAmn8NEs3gPa4JSK/WtGVKotelsh0T0M1fXG1XBBSZ6kNAmtfb4rQpGjhagDaALEQjKD+ZBom2e9hdPDBKugnTedB5xIQJBurLyKLZVZeAeD5xlkECvjobXZQSClbKo1dUjTGpkTbNDx4iKoA7B6URNR45YR+dGC7NqduNZ0wGUBdfr5kfE3cjRDrOZC7wcUrNbcJXXiOAZK/pPzOevqEdHJnxp980FuS4qpgzXokY8fT2QhXtKA1st09nhM/hrsoGsP3g4BksUNw/sdv0c4YeasIoZvl4VFGWzCKGfW0D+1uQa4taxLxPaqAk6VoN7x/S4LSO56UwSuBCjtVsSTCRtZgM150dW84UaikB71GPJHCgEG5Cqx129Vj3fcCzVMGXtBjlluFGkcX/E7Tu89wBZMYbWb/WzkqX09IMtmQSvwMsB/NpEUif0QE75IUeA20f5+KRdRYMz1YtQgjnDP/E31N4W35KxttuJ+pdjx9SkuWzSxkP9VT+KqTBOZuYtCYpstSKEN1j5Gx4vK82cKIYtE/bWH/GHeVUWJBX3Dy6azZ5aO9bFLjts8BupcC1gGKRYtiGwVVnnXsj2R6ChIRVBpuGWu5KMn6XvKjWQ6h6hmg+Ka91j0hcNzERcXLYCTs7Hyd/tYiaoampuKUxqdIh1fhUkY1nb+JUF9VXGg0QakmZGswkQjYD6/gjBw0pZnJHpY43uFTAOXKuDwZ/rgpWy1GFatxBqWr8U8XtNsFKWuctoXcWXAWvFWdRfXcu/KrjPTs50JzL8irkwuXCl7iy7nBFYdj3/elVwSfPaw+560+xZtsEvvnYA88j49tsgaG/um/kDPK66ctbn/ar7Gg06UCpVNe9lQdvxym48qxmL5eu4+Ub/iFHgC7zIAdUkaJ/2jLiAC/O55Ap3fDNsEqy7BOWuM7wgYGNcsvEaBNHFGKD9kg/CNvu6P77iia8LNiItVtvTuuUaqZ5FaYXIlzgLPwr+xdpAUZ4wA9CcNXf/zEC60FG3spGfgeo3h5l7i0De3Qo8Pk3dX3vR/BliRnzKkmkb01PgG9j0TxrPlIVNN1vJ8dZZnFHPjKVkEhSMCifzJwPOf83snGlSnw1ZtOTu/7QwwGMZT6T1k+7zhB8dwI3UJuPUD8ZlRX5ueKtypet8zENTtIXOGd9jK11lPLZ2NduUzxcz65MLoIx9PTaPwbniBllxpC9jqd/2zOdFUgz5MTzHk5/Bx5H+mINa5J6GjHiKBiX/7XMkHSPJtewglHHDk0VuKT4vLkUV6jS164nZCQXPW7UmvU78+e3MUyh4WAA8vCWa/aB9WMwNgVHTd8Ghux7/YreLrlDDjexbz0c0zci2KzbzN4ZxQ8O6a1wunJ0F5dnqnlVoSTtfbMAcK35WALs4H7qjxWhejT7rvToqWzw9aix5PHIOksWWGrViBz8czUWj6K6JWaO303zMGtajxuTRuZcOKKf3bfuI7Z+PLiEE/cRWuBivZEOBujdTwf5pFxM+qhR2IuhRo3s8wq380ASe+M9DYCznjRrMmd1XX/WL9Z9Qmy4Z86SaN6y7xuT1bdhFTm2y/DROIHN0WPf3PG/kmaP/4OAbdp9eI9plQ9KsFUv6x70v1v/jvqcE61r7rVfJsdFa4yo/YIEpe4i8VWLXjWD3vvQ21t3JE8e3mOmtNR66r33ajuvTcD9Z5vbZpslvNQXroeIHQt9TuKtGc+GW/A0Z0emIhljDTIEeP835wZaLO09Nt5D2Gn3G5+74jOiqISOoafuk0eAjGa5t7YGr6/UkV/aQXsoVSWuN+1G3NA51Zp6IHbn5Kh9X5jddWSZ2CpVGTNn/4SXdCtpqXEp2SvGVIGGfQmu4ejfyxZVROibmO1TG9Br13vHbwr2yJeB2QPiBrr+1uU5eUF2imCq3HpyAd9MPf+2jtvGpv3tcOLCZbEVOrdF/8zbn38dCuPlQC+Txe/qEQY4XfPFtDz7/ph6Aa/gFH73rJcX4KJoQvgEupzF+0V/jqKvGyGL+FSTjmF9E5myrv2IazjiEIrpg9d2obCHAq8B5bCHVD/Z9vrDe1hoz3FrJOI7bnqtE8To/2IhNU+DZl/oCX8FftRs2BXuzv+oaVXFLjWUurO9ZD+xvlhZ6NPfA8mDON1Ejd9ZmlFbLznz+ZqVf/E+rsR/JlW3qfVgooClaUb9BEP4tLa3YZ3qkdSdW4T79sUWUXMg5/lE7vOT5fTfpv8f34nNW6Jc8WBwUGxwjxH4ZIdyqe8FCL1roGeGjZu+anV7DW9Vjj+G+JEMT2ft7/DTbaRduTmpmJMP8J7pdb7Kb7L98Hmf2f5qdz9Drlf2IYSc2CsrSVU/NaeM/9qedseidlDHDUbbZEHB9+oauwg99UVXk58STqOTdrI5ny4JCi4MW00O0GAKm3nf1WwFSnEQXclOldE4cF9p6KRb8NXuN6ODvND3aDQGb4eNPFxMlo6xcI/ulHhn4b1zC6He6aW32MD1aDQHfkF/VldRcoqt5n4XRRlU1FcU7wz6mR4ch8Au/F7jhUaXhnCjS4Cdeba9RpkenIVCw4Vtb2ZnQgb/1cm3YWk0P13NthoDD/fBsR4xSw9pqXPBR7jYEXA2aWsxMzy5sScQNujgntta467ZnlyEQT6+VY3I3tUN4bFhrjWOvpsMQGBez3M9XPa2jWu7LUbu21+ij0m0IHERV52qsn4FiL+1GxGC+OKe013jkvdzHEIill3U1mO5r9P3BAquuFozWGlGTneLaDIFCkx9JNZSO722+xmzdFkeKnfnuGincwxDIvrFuzUVNRO1SrKwK9DX6ARSvkjTDSF+n+tTYzxDIbK7ji663F9p9jW54rA7TCWc7rud+NfYyBLAfpPJ/qevvdZ3qa7RWvawrKJ0Ae9bYyxAA2dEsMt3XmFM6hpG+NXYaAkbpnNzLu2ln8Cb61WhMMwQK8pXe6d0stNZUumvsSaEXp/ka/+XpSQufE5ftd5ztvsYpltnzxKZsh6/x/Onh3aw4hc6HTu9m5Qfs50WHd/MTmFhGT1/j+dPX13j+9PY1nj9n8zXWGAz+D6u2rljHskdDAAAAAElFTkSuQmCC;" vertex="1" parent="1">
          <mxGeometry x="544.03" y="-800.2" width="51.97" height="46.43" as="geometry" />
        </mxCell>
        <mxCell id="SVzCEJU157vRpgFHD0QC-124" value="" style="shape=image;verticalLabelPosition=bottom;labelBackgroundColor=default;verticalAlign=top;aspect=fixed;imageAspect=0;image=data:image/png,iVBORw0KGgoAAAANSUhEUgAAAJYAAACGCAMAAAF/DrPdAAAAAXNSR0IArs4c6QAAAARnQU1BAACxjwv8YQUAAAF0UExURQAAAICAgICAgIWFhYCAgICAgHx8fICAgH19fYCAgH19fYCAgICAgICAgH5+foCAgICAgIGBgYCAgICAgICAgICAgICAgICAgH5+foCAgICAgIGBgYCAgIGBgYCAgICAgH9/f39/f39/f39/f4CAgH5+foCAgH9/f4CAgH9/f39/f35+fn9/f4CAgH9/f4CAgH9/f35+fn9/f35+fn9/f4CAgH9/f39/f39/f39/f39/f39/f35+fn5+fn9/f4CAgH5+fn9/f39/f4CAgH9/f39/f4CAgH9/f39/f39/f39/f35+foCAgH9/f39/f35+fn9/f4CAgH9/f4CAgH9/f35+foCAgH9/f35+foCAgH9/f4J8fIN7e4d3d4tzc49vb5Nra5dnZ5tjY59fX6NbW6dXV6tTU69PT7NLS7dHR7tDQ79AQMM8PMc4OMs0NM8wMNMsLNcoKNskJN8gIOMcHOcYGOsUFO8QEPMMDPcICPsEBP8AAN/IF90AAABadFJOUwAIEBcYICcoLzA1OD5AQ0hQVVhgYmRoam9wdnd4fYCEhYePl5qenp+ipaeqq66vsre4uby/wMXHycvP0dLW19ja29/g4eXm5+nt7/Dw8/X29/j5+vv8/P3+/gehoukAAAAJcEhZcwAAFxEAABcRAcom8z8AAA+USURBVGhDxZuLXx1HFccvCMZbjImgaCqiQDWKiqgoikoVtdSr1mvro45p3jamaVpbahNy/3l/v985Mzv7uLubS0K/n7C78zgzs/M4c+bszSCx5feMMJkEf0xM6nHhPuJSZOAjLrjh33oIcybEO5MRyyJ2GHcQpcL7KjZMbu9dQo7JfWYrqmcUiyhqUdxDxS1beGQVKo89DgYfKYOlz1l5+yzImsIiThinF91Dzgdhl6KKQyovqhcPe5sMGk8sQwlIL/ljwZ7fC44+aBBFHa/5s8O2TsKKh/RS+hfG46FCFHqImJjM7NZYH8gw73GoEPmXA5+3L/ImFsLYMwwGFywqFvTKSmxiCBg/RQ/e+GKq93oYWGdY9n2v14SOYkiXHfRwCDtheE/1XuDFGjvPJwoYjFv354QqnMIYiS3JTriNclGbD/gU1CJmC7UmYAyv2l31nSpX+Ee4pLi1vYu6q4BHaA7/7SNirAwMLy6E6xJCSakaSkhQHCmMmRjTHvPplipE8nJ80N3KCMcxjN4nyMT4U1YZfhg42wFLT6jo7E3XysnOVcmFgDnOxmBVlYoJ4d5kco3TwqPHQV3A8AZLP2X8dqpmTtVGRngOXLZKQyP19CFkMVGUhg7D1LTmK1HiDOlhXg+Mv8sHdvWBomprr3hTj5iC5evKBY5Qiz+2MdxrmENV1OQND0xDLbsZ0uJs5CDrpel4ZzxqzYUmKdfjtsK47JSLb+BxibgcNGmY7V74Vsrm60gzh+vxKKyEoU3Tg0G4rGwK4SGtmYOwvsWEdQ01IvQPabbY2BC25CrjIxfxiDilUUXGhbWL6EwPcK17LmoqbEB8QDn7RVFeZZEr1ciMqkZ3m5a+bL1YRXGdhvCIIUwNi/pgMrkdsDPEJQpFHMJWLPmYkbtWMt8ZaAaEMGKkckGlriOgxDIbiFzzXFqJjblCWL0c3izeZVoubDe4ItODsKqgpwiGuVAXGY0LiErJJgDXAaXRDjKmkI2jC7sqUSZvSTIICApCFPZwbTlJbSBLWPAsAE2LJXCE4mgzV1HYOh6lnpSY1zhYQtKmnqzC31jahwHjhQYiExMWaBmEk38zC4KLXgQTCwWkBwy2lYwkj9IT1L+bEFuIYabJOzEJG6M/5KT2NphmBZ7rTkMBOeGBiuIQtQAl91ZqVAvI06W+GrC1D7Lhmw2V8s7JyR3eM8vs6eEq1BQjNxHw+FmAtBdE7lEvzQrfy8sRCM5YGEsqlfUfRfTYpaqYyQVoGwgsByNZqk3MR8Edj5B++GYIsBXBrY8nk/f4gG0AWg5/Zlw1CGIJI//JybuKZQx35RXKxYCAShisUOWwAKrPuiBSbvhbqHcv0/7HnMa1YXaiVVIzIbBNZUEWfsfDhLnU4p3sjXOQ7Lea4ADqXwrE4WLkyywwrQkoDiWw2yqCNBzf8iBBDhKrJ9J7YWS7NjVUuLqqqKqgaTkPT/6rLMaaJGU1Rmja++u9Rlu5LMgtmK8Drus61lBd0jNEcb3l2Z/gGfuFtVLtrgg63uaRKjZ17BltTzZMKBxqLpglUBJsgqmcjZwc1fWITcAycIB6QO2HG14WeDHkoSKwHtkwy9qJRNhlIxhORWHaULgKvoy/on+qLNpCMYWCB25tyi2T5GZcj9ortJXjcoWBkiBR0DkYoJzv8ynOp0PFAwkDD+It/UEcMImDHCcwNGeBBOtse7NFLkgDMFzzCMBJpOipa4h2GW7KVhFkZ6I7EtcQp5mDsTrivQplCNdlRZD7Pg2KCHIAzi7TLmS4tZfOD0ikJrIurwgq9W0PK2ZDug6DiCtaiGsEOghrYpPdYnZjVXAAkxfAvnqsU5X0H+dVuII/Fusb5G08fgUxXlOzoIuSzNjQNAL3rSTiMdF/A5oEGzFL2sshOLNglnrqU1Mu6+MQXvGEGcCk5NnFQckePxO0FG2zgcl/tqIAS3PObICB9b29q3Gln4k5zifSauf2wnwlhkfNioq6mZsMM0O16hsqJtd0vdwHGAhJR1FDDT1+FiDuJYH7Z2oYdtK4a5Mz9divdUZOnKUs7rm5WUQbwJOeFu3bdro0GJ6tMDMB7no5RBGzFGZmUz6O73uMZ+hPLMp9psQjOgvLty1C/Qy777u4+Vv6LkzyWVYVdFsP0LgiLIr6wbRX2mrmYJGx+FRYTbCyBQI5KWyzh2meoMPRjSllqwtazIMTHv/lRzI7lFszG1/etnCfS4UpOhfULp1tp0PzHSknk/HCtDX9SEsjR7MFtkZNUDZGmtzsFZlvNpAmn8NEs3gPa4JSK/WtGVKotelsh0T0M1fXG1XBBSZ6kNAmtfb4rQpGjhagDaALEQjKD+ZBom2e9hdPDBKugnTedB5xIQJBurLyKLZVZeAeD5xlkECvjobXZQSClbKo1dUjTGpkTbNDx4iKoA7B6URNR45YR+dGC7NqduNZ0wGUBdfr5kfE3cjRDrOZC7wcUrNbcJXXiOAZK/pPzOevqEdHJnxp980FuS4qpgzXokY8fT2QhXtKA1st09nhM/hrsoGsP3g4BksUNw/sdv0c4YeasIoZvl4VFGWzCKGfW0D+1uQa4taxLxPaqAk6VoN7x/S4LSO56UwSuBCjtVsSTCRtZgM150dW84UaikB71GPJHCgEG5Cqx129Vj3fcCzVMGXtBjlluFGkcX/E7Tu89wBZMYbWb/WzkqX09IMtmQSvwMsB/NpEUif0QE75IUeA20f5+KRdRYMz1YtQgjnDP/E31N4W35KxttuJ+pdjx9SkuWzSxkP9VT+KqTBOZuYtCYpstSKEN1j5Gx4vK82cKIYtE/bWH/GHeVUWJBX3Dy6azZ5aO9bFLjts8BupcC1gGKRYtiGwVVnnXsj2R6ChIRVBpuGWu5KMn6XvKjWQ6h6hmg+Ka91j0hcNzERcXLYCTs7Hyd/tYiaoampuKUxqdIh1fhUkY1nb+JUF9VXGg0QakmZGswkQjYD6/gjBw0pZnJHpY43uFTAOXKuDwZ/rgpWy1GFatxBqWr8U8XtNsFKWuctoXcWXAWvFWdRfXcu/KrjPTs50JzL8irkwuXCl7iy7nBFYdj3/elVwSfPaw+560+xZtsEvvnYA88j49tsgaG/um/kDPK66ctbn/ar7Gg06UCpVNe9lQdvxym48qxmL5eu4+Ub/iFHgC7zIAdUkaJ/2jLiAC/O55Ap3fDNsEqy7BOWuM7wgYGNcsvEaBNHFGKD9kg/CNvu6P77iia8LNiItVtvTuuUaqZ5FaYXIlzgLPwr+xdpAUZ4wA9CcNXf/zEC60FG3spGfgeo3h5l7i0De3Qo8Pk3dX3vR/BliRnzKkmkb01PgG9j0TxrPlIVNN1vJ8dZZnFHPjKVkEhSMCifzJwPOf83snGlSnw1ZtOTu/7QwwGMZT6T1k+7zhB8dwI3UJuPUD8ZlRX5ueKtypet8zENTtIXOGd9jK11lPLZ2NduUzxcz65MLoIx9PTaPwbniBllxpC9jqd/2zOdFUgz5MTzHk5/Bx5H+mINa5J6GjHiKBiX/7XMkHSPJtewglHHDk0VuKT4vLkUV6jS164nZCQXPW7UmvU78+e3MUyh4WAA8vCWa/aB9WMwNgVHTd8Ghux7/YreLrlDDjexbz0c0zci2KzbzN4ZxQ8O6a1wunJ0F5dnqnlVoSTtfbMAcK35WALs4H7qjxWhejT7rvToqWzw9aix5PHIOksWWGrViBz8czUWj6K6JWaO303zMGtajxuTRuZcOKKf3bfuI7Z+PLiEE/cRWuBivZEOBujdTwf5pFxM+qhR2IuhRo3s8wq380ASe+M9DYCznjRrMmd1XX/WL9Z9Qmy4Z86SaN6y7xuT1bdhFTm2y/DROIHN0WPf3PG/kmaP/4OAbdp9eI9plQ9KsFUv6x70v1v/jvqcE61r7rVfJsdFa4yo/YIEpe4i8VWLXjWD3vvQ21t3JE8e3mOmtNR66r33ajuvTcD9Z5vbZpslvNQXroeIHQt9TuKtGc+GW/A0Z0emIhljDTIEeP835wZaLO09Nt5D2Gn3G5+74jOiqISOoafuk0eAjGa5t7YGr6/UkV/aQXsoVSWuN+1G3NA51Zp6IHbn5Kh9X5jddWSZ2CpVGTNn/4SXdCtpqXEp2SvGVIGGfQmu4ejfyxZVROibmO1TG9Br13vHbwr2yJeB2QPiBrr+1uU5eUF2imCq3HpyAd9MPf+2jtvGpv3tcOLCZbEVOrdF/8zbn38dCuPlQC+Txe/qEQY4XfPFtDz7/ph6Aa/gFH73rJcX4KJoQvgEupzF+0V/jqKvGyGL+FSTjmF9E5myrv2IazjiEIrpg9d2obCHAq8B5bCHVD/Z9vrDe1hoz3FrJOI7bnqtE8To/2IhNU+DZl/oCX8FftRs2BXuzv+oaVXFLjWUurO9ZD+xvlhZ6NPfA8mDON1Ejd9ZmlFbLznz+ZqVf/E+rsR/JlW3qfVgooClaUb9BEP4tLa3YZ3qkdSdW4T79sUWUXMg5/lE7vOT5fTfpv8f34nNW6Jc8WBwUGxwjxH4ZIdyqe8FCL1roGeGjZu+anV7DW9Vjj+G+JEMT2ft7/DTbaRduTmpmJMP8J7pdb7Kb7L98Hmf2f5qdz9Drlf2IYSc2CsrSVU/NaeM/9qedseidlDHDUbbZEHB9+oauwg99UVXk58STqOTdrI5ny4JCi4MW00O0GAKm3nf1WwFSnEQXclOldE4cF9p6KRb8NXuN6ODvND3aDQGb4eNPFxMlo6xcI/ulHhn4b1zC6He6aW32MD1aDQHfkF/VldRcoqt5n4XRRlU1FcU7wz6mR4ch8Au/F7jhUaXhnCjS4Cdeba9RpkenIVCw4Vtb2ZnQgb/1cm3YWk0P13NthoDD/fBsR4xSw9pqXPBR7jYEXA2aWsxMzy5sScQNujgntta467ZnlyEQT6+VY3I3tUN4bFhrjWOvpsMQGBez3M9XPa2jWu7LUbu21+ij0m0IHERV52qsn4FiL+1GxGC+OKe013jkvdzHEIill3U1mO5r9P3BAquuFozWGlGTneLaDIFCkx9JNZSO722+xmzdFkeKnfnuGincwxDIvrFuzUVNRO1SrKwK9DX6ARSvkjTDSF+n+tTYzxDIbK7ji663F9p9jW54rA7TCWc7rud+NfYyBLAfpPJ/qevvdZ3qa7RWvawrKJ0Ae9bYyxAA2dEsMt3XmFM6hpG+NXYaAkbpnNzLu2ln8Cb61WhMMwQK8pXe6d0stNZUumvsSaEXp/ka/+XpSQufE5ftd5ztvsYpltnzxKZsh6/x/Onh3aw4hc6HTu9m5Qfs50WHd/MTmFhGT1/j+dPX13j+9PY1nj9n8zXWGAz+D6u2rljHskdDAAAAAElFTkSuQmCC;" vertex="1" parent="1">
          <mxGeometry x="710" y="-801.2" width="51.5" height="46" as="geometry" />
        </mxCell>
        <mxCell id="SVzCEJU157vRpgFHD0QC-125" value="" style="shape=image;verticalLabelPosition=bottom;labelBackgroundColor=default;verticalAlign=top;aspect=fixed;imageAspect=0;image=data:image/png,iVBORw0KGgoAAAANSUhEUgAAAJYAAACGCAMAAAF/DrPdAAAAAXNSR0IArs4c6QAAAARnQU1BAACxjwv8YQUAAAF0UExURQAAAICAgICAgIWFhYCAgICAgHx8fICAgH19fYCAgH19fYCAgICAgICAgH5+foCAgICAgIGBgYCAgICAgICAgICAgICAgICAgH5+foCAgICAgIGBgYCAgIGBgYCAgICAgH9/f39/f39/f39/f4CAgH5+foCAgH9/f4CAgH9/f39/f35+fn9/f4CAgH9/f4CAgH9/f35+fn9/f35+fn9/f4CAgH9/f39/f39/f39/f39/f39/f35+fn5+fn9/f4CAgH5+fn9/f39/f4CAgH9/f39/f4CAgH9/f39/f39/f39/f35+foCAgH9/f39/f35+fn9/f4CAgH9/f4CAgH9/f35+foCAgH9/f35+foCAgH9/f4J8fIN7e4d3d4tzc49vb5Nra5dnZ5tjY59fX6NbW6dXV6tTU69PT7NLS7dHR7tDQ79AQMM8PMc4OMs0NM8wMNMsLNcoKNskJN8gIOMcHOcYGOsUFO8QEPMMDPcICPsEBP8AAN/IF90AAABadFJOUwAIEBcYICcoLzA1OD5AQ0hQVVhgYmRoam9wdnd4fYCEhYePl5qenp+ipaeqq66vsre4uby/wMXHycvP0dLW19ja29/g4eXm5+nt7/Dw8/X29/j5+vv8/P3+/gehoukAAAAJcEhZcwAAFxEAABcRAcom8z8AAA+USURBVGhDxZuLXx1HFccvCMZbjImgaCqiQDWKiqgoikoVtdSr1mvro45p3jamaVpbahNy/3l/v985Mzv7uLubS0K/n7C78zgzs/M4c+bszSCx5feMMJkEf0xM6nHhPuJSZOAjLrjh33oIcybEO5MRyyJ2GHcQpcL7KjZMbu9dQo7JfWYrqmcUiyhqUdxDxS1beGQVKo89DgYfKYOlz1l5+yzImsIiThinF91Dzgdhl6KKQyovqhcPe5sMGk8sQwlIL/ljwZ7fC44+aBBFHa/5s8O2TsKKh/RS+hfG46FCFHqImJjM7NZYH8gw73GoEPmXA5+3L/ImFsLYMwwGFywqFvTKSmxiCBg/RQ/e+GKq93oYWGdY9n2v14SOYkiXHfRwCDtheE/1XuDFGjvPJwoYjFv354QqnMIYiS3JTriNclGbD/gU1CJmC7UmYAyv2l31nSpX+Ee4pLi1vYu6q4BHaA7/7SNirAwMLy6E6xJCSakaSkhQHCmMmRjTHvPplipE8nJ80N3KCMcxjN4nyMT4U1YZfhg42wFLT6jo7E3XysnOVcmFgDnOxmBVlYoJ4d5kco3TwqPHQV3A8AZLP2X8dqpmTtVGRngOXLZKQyP19CFkMVGUhg7D1LTmK1HiDOlhXg+Mv8sHdvWBomprr3hTj5iC5evKBY5Qiz+2MdxrmENV1OQND0xDLbsZ0uJs5CDrpel4ZzxqzYUmKdfjtsK47JSLb+BxibgcNGmY7V74Vsrm60gzh+vxKKyEoU3Tg0G4rGwK4SGtmYOwvsWEdQ01IvQPabbY2BC25CrjIxfxiDilUUXGhbWL6EwPcK17LmoqbEB8QDn7RVFeZZEr1ciMqkZ3m5a+bL1YRXGdhvCIIUwNi/pgMrkdsDPEJQpFHMJWLPmYkbtWMt8ZaAaEMGKkckGlriOgxDIbiFzzXFqJjblCWL0c3izeZVoubDe4ItODsKqgpwiGuVAXGY0LiErJJgDXAaXRDjKmkI2jC7sqUSZvSTIICApCFPZwbTlJbSBLWPAsAE2LJXCE4mgzV1HYOh6lnpSY1zhYQtKmnqzC31jahwHjhQYiExMWaBmEk38zC4KLXgQTCwWkBwy2lYwkj9IT1L+bEFuIYabJOzEJG6M/5KT2NphmBZ7rTkMBOeGBiuIQtQAl91ZqVAvI06W+GrC1D7Lhmw2V8s7JyR3eM8vs6eEq1BQjNxHw+FmAtBdE7lEvzQrfy8sRCM5YGEsqlfUfRfTYpaqYyQVoGwgsByNZqk3MR8Edj5B++GYIsBXBrY8nk/f4gG0AWg5/Zlw1CGIJI//JybuKZQx35RXKxYCAShisUOWwAKrPuiBSbvhbqHcv0/7HnMa1YXaiVVIzIbBNZUEWfsfDhLnU4p3sjXOQ7Lea4ADqXwrE4WLkyywwrQkoDiWw2yqCNBzf8iBBDhKrJ9J7YWS7NjVUuLqqqKqgaTkPT/6rLMaaJGU1Rmja++u9Rlu5LMgtmK8Drus61lBd0jNEcb3l2Z/gGfuFtVLtrgg63uaRKjZ17BltTzZMKBxqLpglUBJsgqmcjZwc1fWITcAycIB6QO2HG14WeDHkoSKwHtkwy9qJRNhlIxhORWHaULgKvoy/on+qLNpCMYWCB25tyi2T5GZcj9ortJXjcoWBkiBR0DkYoJzv8ynOp0PFAwkDD+It/UEcMImDHCcwNGeBBOtse7NFLkgDMFzzCMBJpOipa4h2GW7KVhFkZ6I7EtcQp5mDsTrivQplCNdlRZD7Pg2KCHIAzi7TLmS4tZfOD0ikJrIurwgq9W0PK2ZDug6DiCtaiGsEOghrYpPdYnZjVXAAkxfAvnqsU5X0H+dVuII/Fusb5G08fgUxXlOzoIuSzNjQNAL3rSTiMdF/A5oEGzFL2sshOLNglnrqU1Mu6+MQXvGEGcCk5NnFQckePxO0FG2zgcl/tqIAS3PObICB9b29q3Gln4k5zifSauf2wnwlhkfNioq6mZsMM0O16hsqJtd0vdwHGAhJR1FDDT1+FiDuJYH7Z2oYdtK4a5Mz9divdUZOnKUs7rm5WUQbwJOeFu3bdro0GJ6tMDMB7no5RBGzFGZmUz6O73uMZ+hPLMp9psQjOgvLty1C/Qy777u4+Vv6LkzyWVYVdFsP0LgiLIr6wbRX2mrmYJGx+FRYTbCyBQI5KWyzh2meoMPRjSllqwtazIMTHv/lRzI7lFszG1/etnCfS4UpOhfULp1tp0PzHSknk/HCtDX9SEsjR7MFtkZNUDZGmtzsFZlvNpAmn8NEs3gPa4JSK/WtGVKotelsh0T0M1fXG1XBBSZ6kNAmtfb4rQpGjhagDaALEQjKD+ZBom2e9hdPDBKugnTedB5xIQJBurLyKLZVZeAeD5xlkECvjobXZQSClbKo1dUjTGpkTbNDx4iKoA7B6URNR45YR+dGC7NqduNZ0wGUBdfr5kfE3cjRDrOZC7wcUrNbcJXXiOAZK/pPzOevqEdHJnxp980FuS4qpgzXokY8fT2QhXtKA1st09nhM/hrsoGsP3g4BksUNw/sdv0c4YeasIoZvl4VFGWzCKGfW0D+1uQa4taxLxPaqAk6VoN7x/S4LSO56UwSuBCjtVsSTCRtZgM150dW84UaikB71GPJHCgEG5Cqx129Vj3fcCzVMGXtBjlluFGkcX/E7Tu89wBZMYbWb/WzkqX09IMtmQSvwMsB/NpEUif0QE75IUeA20f5+KRdRYMz1YtQgjnDP/E31N4W35KxttuJ+pdjx9SkuWzSxkP9VT+KqTBOZuYtCYpstSKEN1j5Gx4vK82cKIYtE/bWH/GHeVUWJBX3Dy6azZ5aO9bFLjts8BupcC1gGKRYtiGwVVnnXsj2R6ChIRVBpuGWu5KMn6XvKjWQ6h6hmg+Ka91j0hcNzERcXLYCTs7Hyd/tYiaoampuKUxqdIh1fhUkY1nb+JUF9VXGg0QakmZGswkQjYD6/gjBw0pZnJHpY43uFTAOXKuDwZ/rgpWy1GFatxBqWr8U8XtNsFKWuctoXcWXAWvFWdRfXcu/KrjPTs50JzL8irkwuXCl7iy7nBFYdj3/elVwSfPaw+560+xZtsEvvnYA88j49tsgaG/um/kDPK66ctbn/ar7Gg06UCpVNe9lQdvxym48qxmL5eu4+Ub/iFHgC7zIAdUkaJ/2jLiAC/O55Ap3fDNsEqy7BOWuM7wgYGNcsvEaBNHFGKD9kg/CNvu6P77iia8LNiItVtvTuuUaqZ5FaYXIlzgLPwr+xdpAUZ4wA9CcNXf/zEC60FG3spGfgeo3h5l7i0De3Qo8Pk3dX3vR/BliRnzKkmkb01PgG9j0TxrPlIVNN1vJ8dZZnFHPjKVkEhSMCifzJwPOf83snGlSnw1ZtOTu/7QwwGMZT6T1k+7zhB8dwI3UJuPUD8ZlRX5ueKtypet8zENTtIXOGd9jK11lPLZ2NduUzxcz65MLoIx9PTaPwbniBllxpC9jqd/2zOdFUgz5MTzHk5/Bx5H+mINa5J6GjHiKBiX/7XMkHSPJtewglHHDk0VuKT4vLkUV6jS164nZCQXPW7UmvU78+e3MUyh4WAA8vCWa/aB9WMwNgVHTd8Ghux7/YreLrlDDjexbz0c0zci2KzbzN4ZxQ8O6a1wunJ0F5dnqnlVoSTtfbMAcK35WALs4H7qjxWhejT7rvToqWzw9aix5PHIOksWWGrViBz8czUWj6K6JWaO303zMGtajxuTRuZcOKKf3bfuI7Z+PLiEE/cRWuBivZEOBujdTwf5pFxM+qhR2IuhRo3s8wq380ASe+M9DYCznjRrMmd1XX/WL9Z9Qmy4Z86SaN6y7xuT1bdhFTm2y/DROIHN0WPf3PG/kmaP/4OAbdp9eI9plQ9KsFUv6x70v1v/jvqcE61r7rVfJsdFa4yo/YIEpe4i8VWLXjWD3vvQ21t3JE8e3mOmtNR66r33ajuvTcD9Z5vbZpslvNQXroeIHQt9TuKtGc+GW/A0Z0emIhljDTIEeP835wZaLO09Nt5D2Gn3G5+74jOiqISOoafuk0eAjGa5t7YGr6/UkV/aQXsoVSWuN+1G3NA51Zp6IHbn5Kh9X5jddWSZ2CpVGTNn/4SXdCtpqXEp2SvGVIGGfQmu4ejfyxZVROibmO1TG9Br13vHbwr2yJeB2QPiBrr+1uU5eUF2imCq3HpyAd9MPf+2jtvGpv3tcOLCZbEVOrdF/8zbn38dCuPlQC+Txe/qEQY4XfPFtDz7/ph6Aa/gFH73rJcX4KJoQvgEupzF+0V/jqKvGyGL+FSTjmF9E5myrv2IazjiEIrpg9d2obCHAq8B5bCHVD/Z9vrDe1hoz3FrJOI7bnqtE8To/2IhNU+DZl/oCX8FftRs2BXuzv+oaVXFLjWUurO9ZD+xvlhZ6NPfA8mDON1Ejd9ZmlFbLznz+ZqVf/E+rsR/JlW3qfVgooClaUb9BEP4tLa3YZ3qkdSdW4T79sUWUXMg5/lE7vOT5fTfpv8f34nNW6Jc8WBwUGxwjxH4ZIdyqe8FCL1roGeGjZu+anV7DW9Vjj+G+JEMT2ft7/DTbaRduTmpmJMP8J7pdb7Kb7L98Hmf2f5qdz9Drlf2IYSc2CsrSVU/NaeM/9qedseidlDHDUbbZEHB9+oauwg99UVXk58STqOTdrI5ny4JCi4MW00O0GAKm3nf1WwFSnEQXclOldE4cF9p6KRb8NXuN6ODvND3aDQGb4eNPFxMlo6xcI/ulHhn4b1zC6He6aW32MD1aDQHfkF/VldRcoqt5n4XRRlU1FcU7wz6mR4ch8Au/F7jhUaXhnCjS4Cdeba9RpkenIVCw4Vtb2ZnQgb/1cm3YWk0P13NthoDD/fBsR4xSw9pqXPBR7jYEXA2aWsxMzy5sScQNujgntta467ZnlyEQT6+VY3I3tUN4bFhrjWOvpsMQGBez3M9XPa2jWu7LUbu21+ij0m0IHERV52qsn4FiL+1GxGC+OKe013jkvdzHEIill3U1mO5r9P3BAquuFozWGlGTneLaDIFCkx9JNZSO722+xmzdFkeKnfnuGincwxDIvrFuzUVNRO1SrKwK9DX6ARSvkjTDSF+n+tTYzxDIbK7ji663F9p9jW54rA7TCWc7rud+NfYyBLAfpPJ/qevvdZ3qa7RWvawrKJ0Ae9bYyxAA2dEsMt3XmFM6hpG+NXYaAkbpnNzLu2ln8Cb61WhMMwQK8pXe6d0stNZUumvsSaEXp/ka/+XpSQufE5ftd5ztvsYpltnzxKZsh6/x/Onh3aw4hc6HTu9m5Qfs50WHd/MTmFhGT1/j+dPX13j+9PY1nj9n8zXWGAz+D6u2rljHskdDAAAAAElFTkSuQmCC;" vertex="1" parent="1">
          <mxGeometry x="383.93" y="-857" width="41.86" height="37.4" as="geometry" />
        </mxCell>
        <mxCell id="SVzCEJU157vRpgFHD0QC-126" value="…" style="text;html=1;resizable=0;autosize=1;align=center;verticalAlign=middle;points=[];fillColor=none;strokeColor=none;rounded=0;fontFamily=Helvetica;fontSize=18;fontStyle=1;rotation=90;" vertex="1" parent="1">
          <mxGeometry x="390.00999999999993" y="-890.26" width="40" height="40" as="geometry" />
        </mxCell>
        <mxCell id="SVzCEJU157vRpgFHD0QC-127" value="" style="shape=image;verticalLabelPosition=bottom;labelBackgroundColor=default;verticalAlign=top;aspect=fixed;imageAspect=0;image=data:image/png,iVBORw0KGgoAAAANSUhEUgAAAJYAAACGCAMAAAF/DrPdAAAAAXNSR0IArs4c6QAAAARnQU1BAACxjwv8YQUAAAF0UExURQAAAICAgICAgIWFhYCAgICAgHx8fICAgH19fYCAgH19fYCAgICAgICAgH5+foCAgICAgIGBgYCAgICAgICAgICAgICAgICAgH5+foCAgICAgIGBgYCAgIGBgYCAgICAgH9/f39/f39/f39/f4CAgH5+foCAgH9/f4CAgH9/f39/f35+fn9/f4CAgH9/f4CAgH9/f35+fn9/f35+fn9/f4CAgH9/f39/f39/f39/f39/f39/f35+fn5+fn9/f4CAgH5+fn9/f39/f4CAgH9/f39/f4CAgH9/f39/f39/f39/f35+foCAgH9/f39/f35+fn9/f4CAgH9/f4CAgH9/f35+foCAgH9/f35+foCAgH9/f4J8fIN7e4d3d4tzc49vb5Nra5dnZ5tjY59fX6NbW6dXV6tTU69PT7NLS7dHR7tDQ79AQMM8PMc4OMs0NM8wMNMsLNcoKNskJN8gIOMcHOcYGOsUFO8QEPMMDPcICPsEBP8AAN/IF90AAABadFJOUwAIEBcYICcoLzA1OD5AQ0hQVVhgYmRoam9wdnd4fYCEhYePl5qenp+ipaeqq66vsre4uby/wMXHycvP0dLW19ja29/g4eXm5+nt7/Dw8/X29/j5+vv8/P3+/gehoukAAAAJcEhZcwAAFxEAABcRAcom8z8AAA+USURBVGhDxZuLXx1HFccvCMZbjImgaCqiQDWKiqgoikoVtdSr1mvro45p3jamaVpbahNy/3l/v985Mzv7uLubS0K/n7C78zgzs/M4c+bszSCx5feMMJkEf0xM6nHhPuJSZOAjLrjh33oIcybEO5MRyyJ2GHcQpcL7KjZMbu9dQo7JfWYrqmcUiyhqUdxDxS1beGQVKo89DgYfKYOlz1l5+yzImsIiThinF91Dzgdhl6KKQyovqhcPe5sMGk8sQwlIL/ljwZ7fC44+aBBFHa/5s8O2TsKKh/RS+hfG46FCFHqImJjM7NZYH8gw73GoEPmXA5+3L/ImFsLYMwwGFywqFvTKSmxiCBg/RQ/e+GKq93oYWGdY9n2v14SOYkiXHfRwCDtheE/1XuDFGjvPJwoYjFv354QqnMIYiS3JTriNclGbD/gU1CJmC7UmYAyv2l31nSpX+Ee4pLi1vYu6q4BHaA7/7SNirAwMLy6E6xJCSakaSkhQHCmMmRjTHvPplipE8nJ80N3KCMcxjN4nyMT4U1YZfhg42wFLT6jo7E3XysnOVcmFgDnOxmBVlYoJ4d5kco3TwqPHQV3A8AZLP2X8dqpmTtVGRngOXLZKQyP19CFkMVGUhg7D1LTmK1HiDOlhXg+Mv8sHdvWBomprr3hTj5iC5evKBY5Qiz+2MdxrmENV1OQND0xDLbsZ0uJs5CDrpel4ZzxqzYUmKdfjtsK47JSLb+BxibgcNGmY7V74Vsrm60gzh+vxKKyEoU3Tg0G4rGwK4SGtmYOwvsWEdQ01IvQPabbY2BC25CrjIxfxiDilUUXGhbWL6EwPcK17LmoqbEB8QDn7RVFeZZEr1ciMqkZ3m5a+bL1YRXGdhvCIIUwNi/pgMrkdsDPEJQpFHMJWLPmYkbtWMt8ZaAaEMGKkckGlriOgxDIbiFzzXFqJjblCWL0c3izeZVoubDe4ItODsKqgpwiGuVAXGY0LiErJJgDXAaXRDjKmkI2jC7sqUSZvSTIICApCFPZwbTlJbSBLWPAsAE2LJXCE4mgzV1HYOh6lnpSY1zhYQtKmnqzC31jahwHjhQYiExMWaBmEk38zC4KLXgQTCwWkBwy2lYwkj9IT1L+bEFuIYabJOzEJG6M/5KT2NphmBZ7rTkMBOeGBiuIQtQAl91ZqVAvI06W+GrC1D7Lhmw2V8s7JyR3eM8vs6eEq1BQjNxHw+FmAtBdE7lEvzQrfy8sRCM5YGEsqlfUfRfTYpaqYyQVoGwgsByNZqk3MR8Edj5B++GYIsBXBrY8nk/f4gG0AWg5/Zlw1CGIJI//JybuKZQx35RXKxYCAShisUOWwAKrPuiBSbvhbqHcv0/7HnMa1YXaiVVIzIbBNZUEWfsfDhLnU4p3sjXOQ7Lea4ADqXwrE4WLkyywwrQkoDiWw2yqCNBzf8iBBDhKrJ9J7YWS7NjVUuLqqqKqgaTkPT/6rLMaaJGU1Rmja++u9Rlu5LMgtmK8Drus61lBd0jNEcb3l2Z/gGfuFtVLtrgg63uaRKjZ17BltTzZMKBxqLpglUBJsgqmcjZwc1fWITcAycIB6QO2HG14WeDHkoSKwHtkwy9qJRNhlIxhORWHaULgKvoy/on+qLNpCMYWCB25tyi2T5GZcj9ortJXjcoWBkiBR0DkYoJzv8ynOp0PFAwkDD+It/UEcMImDHCcwNGeBBOtse7NFLkgDMFzzCMBJpOipa4h2GW7KVhFkZ6I7EtcQp5mDsTrivQplCNdlRZD7Pg2KCHIAzi7TLmS4tZfOD0ikJrIurwgq9W0PK2ZDug6DiCtaiGsEOghrYpPdYnZjVXAAkxfAvnqsU5X0H+dVuII/Fusb5G08fgUxXlOzoIuSzNjQNAL3rSTiMdF/A5oEGzFL2sshOLNglnrqU1Mu6+MQXvGEGcCk5NnFQckePxO0FG2zgcl/tqIAS3PObICB9b29q3Gln4k5zifSauf2wnwlhkfNioq6mZsMM0O16hsqJtd0vdwHGAhJR1FDDT1+FiDuJYH7Z2oYdtK4a5Mz9divdUZOnKUs7rm5WUQbwJOeFu3bdro0GJ6tMDMB7no5RBGzFGZmUz6O73uMZ+hPLMp9psQjOgvLty1C/Qy777u4+Vv6LkzyWVYVdFsP0LgiLIr6wbRX2mrmYJGx+FRYTbCyBQI5KWyzh2meoMPRjSllqwtazIMTHv/lRzI7lFszG1/etnCfS4UpOhfULp1tp0PzHSknk/HCtDX9SEsjR7MFtkZNUDZGmtzsFZlvNpAmn8NEs3gPa4JSK/WtGVKotelsh0T0M1fXG1XBBSZ6kNAmtfb4rQpGjhagDaALEQjKD+ZBom2e9hdPDBKugnTedB5xIQJBurLyKLZVZeAeD5xlkECvjobXZQSClbKo1dUjTGpkTbNDx4iKoA7B6URNR45YR+dGC7NqduNZ0wGUBdfr5kfE3cjRDrOZC7wcUrNbcJXXiOAZK/pPzOevqEdHJnxp980FuS4qpgzXokY8fT2QhXtKA1st09nhM/hrsoGsP3g4BksUNw/sdv0c4YeasIoZvl4VFGWzCKGfW0D+1uQa4taxLxPaqAk6VoN7x/S4LSO56UwSuBCjtVsSTCRtZgM150dW84UaikB71GPJHCgEG5Cqx129Vj3fcCzVMGXtBjlluFGkcX/E7Tu89wBZMYbWb/WzkqX09IMtmQSvwMsB/NpEUif0QE75IUeA20f5+KRdRYMz1YtQgjnDP/E31N4W35KxttuJ+pdjx9SkuWzSxkP9VT+KqTBOZuYtCYpstSKEN1j5Gx4vK82cKIYtE/bWH/GHeVUWJBX3Dy6azZ5aO9bFLjts8BupcC1gGKRYtiGwVVnnXsj2R6ChIRVBpuGWu5KMn6XvKjWQ6h6hmg+Ka91j0hcNzERcXLYCTs7Hyd/tYiaoampuKUxqdIh1fhUkY1nb+JUF9VXGg0QakmZGswkQjYD6/gjBw0pZnJHpY43uFTAOXKuDwZ/rgpWy1GFatxBqWr8U8XtNsFKWuctoXcWXAWvFWdRfXcu/KrjPTs50JzL8irkwuXCl7iy7nBFYdj3/elVwSfPaw+560+xZtsEvvnYA88j49tsgaG/um/kDPK66ctbn/ar7Gg06UCpVNe9lQdvxym48qxmL5eu4+Ub/iFHgC7zIAdUkaJ/2jLiAC/O55Ap3fDNsEqy7BOWuM7wgYGNcsvEaBNHFGKD9kg/CNvu6P77iia8LNiItVtvTuuUaqZ5FaYXIlzgLPwr+xdpAUZ4wA9CcNXf/zEC60FG3spGfgeo3h5l7i0De3Qo8Pk3dX3vR/BliRnzKkmkb01PgG9j0TxrPlIVNN1vJ8dZZnFHPjKVkEhSMCifzJwPOf83snGlSnw1ZtOTu/7QwwGMZT6T1k+7zhB8dwI3UJuPUD8ZlRX5ueKtypet8zENTtIXOGd9jK11lPLZ2NduUzxcz65MLoIx9PTaPwbniBllxpC9jqd/2zOdFUgz5MTzHk5/Bx5H+mINa5J6GjHiKBiX/7XMkHSPJtewglHHDk0VuKT4vLkUV6jS164nZCQXPW7UmvU78+e3MUyh4WAA8vCWa/aB9WMwNgVHTd8Ghux7/YreLrlDDjexbz0c0zci2KzbzN4ZxQ8O6a1wunJ0F5dnqnlVoSTtfbMAcK35WALs4H7qjxWhejT7rvToqWzw9aix5PHIOksWWGrViBz8czUWj6K6JWaO303zMGtajxuTRuZcOKKf3bfuI7Z+PLiEE/cRWuBivZEOBujdTwf5pFxM+qhR2IuhRo3s8wq380ASe+M9DYCznjRrMmd1XX/WL9Z9Qmy4Z86SaN6y7xuT1bdhFTm2y/DROIHN0WPf3PG/kmaP/4OAbdp9eI9plQ9KsFUv6x70v1v/jvqcE61r7rVfJsdFa4yo/YIEpe4i8VWLXjWD3vvQ21t3JE8e3mOmtNR66r33ajuvTcD9Z5vbZpslvNQXroeIHQt9TuKtGc+GW/A0Z0emIhljDTIEeP835wZaLO09Nt5D2Gn3G5+74jOiqISOoafuk0eAjGa5t7YGr6/UkV/aQXsoVSWuN+1G3NA51Zp6IHbn5Kh9X5jddWSZ2CpVGTNn/4SXdCtpqXEp2SvGVIGGfQmu4ejfyxZVROibmO1TG9Br13vHbwr2yJeB2QPiBrr+1uU5eUF2imCq3HpyAd9MPf+2jtvGpv3tcOLCZbEVOrdF/8zbn38dCuPlQC+Txe/qEQY4XfPFtDz7/ph6Aa/gFH73rJcX4KJoQvgEupzF+0V/jqKvGyGL+FSTjmF9E5myrv2IazjiEIrpg9d2obCHAq8B5bCHVD/Z9vrDe1hoz3FrJOI7bnqtE8To/2IhNU+DZl/oCX8FftRs2BXuzv+oaVXFLjWUurO9ZD+xvlhZ6NPfA8mDON1Ejd9ZmlFbLznz+ZqVf/E+rsR/JlW3qfVgooClaUb9BEP4tLa3YZ3qkdSdW4T79sUWUXMg5/lE7vOT5fTfpv8f34nNW6Jc8WBwUGxwjxH4ZIdyqe8FCL1roGeGjZu+anV7DW9Vjj+G+JEMT2ft7/DTbaRduTmpmJMP8J7pdb7Kb7L98Hmf2f5qdz9Drlf2IYSc2CsrSVU/NaeM/9qedseidlDHDUbbZEHB9+oauwg99UVXk58STqOTdrI5ny4JCi4MW00O0GAKm3nf1WwFSnEQXclOldE4cF9p6KRb8NXuN6ODvND3aDQGb4eNPFxMlo6xcI/ulHhn4b1zC6He6aW32MD1aDQHfkF/VldRcoqt5n4XRRlU1FcU7wz6mR4ch8Au/F7jhUaXhnCjS4Cdeba9RpkenIVCw4Vtb2ZnQgb/1cm3YWk0P13NthoDD/fBsR4xSw9pqXPBR7jYEXA2aWsxMzy5sScQNujgntta467ZnlyEQT6+VY3I3tUN4bFhrjWOvpsMQGBez3M9XPa2jWu7LUbu21+ij0m0IHERV52qsn4FiL+1GxGC+OKe013jkvdzHEIill3U1mO5r9P3BAquuFozWGlGTneLaDIFCkx9JNZSO722+xmzdFkeKnfnuGincwxDIvrFuzUVNRO1SrKwK9DX6ARSvkjTDSF+n+tTYzxDIbK7ji663F9p9jW54rA7TCWc7rud+NfYyBLAfpPJ/qevvdZ3qa7RWvawrKJ0Ae9bYyxAA2dEsMt3XmFM6hpG+NXYaAkbpnNzLu2ln8Cb61WhMMwQK8pXe6d0stNZUumvsSaEXp/ka/+XpSQufE5ftd5ztvsYpltnzxKZsh6/x/Onh3aw4hc6HTu9m5Qfs50WHd/MTmFhGT1/j+dPX13j+9PY1nj9n8zXWGAz+D6u2rljHskdDAAAAAElFTkSuQmCC;" vertex="1" parent="1">
          <mxGeometry x="635" y="-930.03" width="79.55" height="71.06" as="geometry" />
        </mxCell>
        <mxCell id="SVzCEJU157vRpgFHD0QC-128" value="&lt;font style=&quot;font-family: calibri; color: rgb(0, 0, 0); direction: ltr; letter-spacing: 0px; line-height: 120%; opacity: 1; font-size: 26px;&quot;&gt;&lt;b style=&quot;font-size: 26px;&quot;&gt;&lt;span style=&quot;font-size: 26px;&quot;&gt;Global Model&lt;/span&gt;&lt;br style=&quot;font-size: 26px;&quot;&gt;&lt;/b&gt;&lt;/font&gt;" style="verticalAlign=middle;align=center;vsdxID=100;fillColor=none;gradientColor=none;shape=stencil(nZBLDoAgDERP0z3SIyjew0SURgSD+Lu9kMZoXLhwN9O+tukAlrNpJg1SzDH4QW/URgNYgZTkjA4UkwJUgGXng+6DX1zLfmoymdXo17xh5zmRJ6Q42BWCfc2oJfdAr+Yv+AP9Cb7OJ3H/2JG1HNGz/84klThPVCc=);strokeColor=none;labelBackgroundColor=none;rounded=0;html=1;whiteSpace=wrap;fontSize=26;" vertex="1" parent="1">
          <mxGeometry x="595.77" y="-856.32" width="160" height="32" as="geometry" />
        </mxCell>
        <mxCell id="SVzCEJU157vRpgFHD0QC-129" value="" style="endArrow=none;html=1;rounded=0;strokeColor=#000000;strokeWidth=2;fontFamily=Helvetica;fontSize=18;fillColor=#0050ef;shape=link;" edge="1" parent="1">
          <mxGeometry width="50" height="50" relative="1" as="geometry">
            <mxPoint x="807" y="-437" as="sourcePoint" />
            <mxPoint x="808" y="-1031" as="targetPoint" />
          </mxGeometry>
        </mxCell>
        <mxCell id="SVzCEJU157vRpgFHD0QC-130" value="&lt;font style=&quot;font-size: 31px ; font-family: &amp;quot;calibri&amp;quot; ; color: #000000 ; direction: ltr ; letter-spacing: 0px ; line-height: 120% ; opacity: 1&quot;&gt;&lt;b&gt;Poisoning in Federated Learning&lt;br&gt;&lt;/b&gt;&lt;/font&gt;" style="verticalAlign=middle;align=center;vsdxID=100;fillColor=none;gradientColor=none;shape=stencil(nZBLDoAgDERP0z3SIyjew0SURgSD+Lu9kMZoXLhwN9O+tukAlrNpJg1SzDH4QW/URgNYgZTkjA4UkwJUgGXng+6DX1zLfmoymdXo17xh5zmRJ6Q42BWCfc2oJfdAr+Yv+AP9Cb7OJ3H/2JG1HNGz/84klThPVCc=);strokeColor=none;labelBackgroundColor=none;rounded=0;html=1;whiteSpace=wrap;" vertex="1" parent="1">
          <mxGeometry x="322" y="-1049" width="429" height="57.01" as="geometry" />
        </mxCell>
        <mxCell id="SVzCEJU157vRpgFHD0QC-131" value="&lt;font style=&quot;font-size: 31px ; font-family: &amp;quot;calibri&amp;quot; ; color: #000000 ; direction: ltr ; letter-spacing: 0px ; line-height: 120% ; opacity: 1&quot;&gt;&lt;b&gt;ManipulatingKD&lt;br&gt;&lt;/b&gt;&lt;/font&gt;" style="verticalAlign=middle;align=center;vsdxID=100;fillColor=none;gradientColor=none;shape=stencil(nZBLDoAgDERP0z3SIyjew0SURgSD+Lu9kMZoXLhwN9O+tukAlrNpJg1SzDH4QW/URgNYgZTkjA4UkwJUgGXng+6DX1zLfmoymdXo17xh5zmRJ6Q42BWCfc2oJfdAr+Yv+AP9Cb7OJ3H/2JG1HNGz/84klThPVCc=);strokeColor=none;labelBackgroundColor=none;rounded=0;html=1;whiteSpace=wrap;" vertex="1" parent="1">
          <mxGeometry x="855.75" y="-1049" width="511" height="57.01" as="geometry" />
        </mxCell>
        <mxCell id="SVzCEJU157vRpgFHD0QC-132" value="" style="shape=image;verticalLabelPosition=bottom;labelBackgroundColor=default;verticalAlign=top;aspect=fixed;imageAspect=0;image=data:image/svg+xml,PHN2ZyB4bWxuczp4bGluaz0iaHR0cDovL3d3dy53My5vcmcvMTk5OS94bGluayIgeG1sbnM9Imh0dHA6Ly93d3cudzMub3JnLzIwMDAvc3ZnIiBoZWlnaHQ9IjEyOCIgd2lkdGg9IjEyOCIgdmVyc2lvbj0iMS4xIiB2aWV3Qm94PSIwIDAgMTAyNCAxMDI0IiBjbGFzcz0iaWNvbiI+PHBhdGggZmlsbD0iI2Q4MWUwNiIgZD0iTTMzMC42NTYgMjA5LjE1MkE5MC42NTYgOTAuNjU2IDAgMCAwIDI0MCAyOTkuODA4djYzMy41MDRBOTAuNjU2IDkwLjY1NiAwIDAgMCAzMzAuNjU2IDEwMjRoNDg5LjQwOGE5MC42ODggOTAuNjg4IDAgMCAwIDkwLjY4OC05MC42NTZWMjk5LjgwOGE5MC42NTYgOTAuNjU2IDAgMCAwLTkwLjY4OC05MC42NTZIMzMwLjY1NnogbTQ3Ni41NzYgNjIyLjU5MmMwIDI5LjA4OC0yMy41ODQgNTIuNzA0LTUyLjY3MiA1Mi43MDRIMzk2LjE5MmE1Mi42NCA1Mi42NCAwIDAgMS01Mi42NC01Mi43MDRWNDA1LjkyYzAtMjkuMTIgMjMuNTUyLTUyLjY3MiA1Mi42NC01Mi42NzJoMzU4LjMzNmMyOS4wODggMCA1Mi42NzIgMjMuNTg0IDUyLjY3MiA1Mi42NzJ2NDI1LjgyNHoiLz48cGF0aCBmaWxsPSIjZDgxZTA2IiBkPSJNNDU3Ljk1MiA3MDAuNDE2bDIwLjYwOC0zOS40ODh2OTEuMjY0YzAgMTEuMTM2IDYuOTQ0IDIxLjMxMiAxNi44MzIgMjYuMjQgMTcuNzI4IDguNzA0IDQ5LjcyOCAyMC4zMiA5My4xODQgMjAuMzIgMzguOTc2IDAgNjcuNzEyLTkuMzQ0IDg1LjU2OC0xNy42IDEyLjU0NC01Ljc5MiAyMC41NDQtMTguMzA0IDIwLjU0NC0zMi4wMzJ2LTg4LjE5MmwxLjEyIDIuMDE2IDE5LjU1MiAzNi41MTJjMzIuNjQtMjkuNDQgNTIuNzA0LTY5Ljk1MiA1Mi43MDQtMTE0LjY4OCAwLTg5Ljg1Ni04MS4zNDQtMTYyLjc1Mi0xODEuNjY0LTE2Mi43NTItMTAwLjM4NCAwLTE4Mi4wMTYgNzIuODk2LTE4Mi4wMTYgMTYyLjc1MiAwLjA2NCA0NS4yNDggMjAuMzIgODYuMjA4IDUzLjU2OCAxMTUuNjQ4eiBtMTUxLjE2OC05NS44NzJjMC01LjU2OCA0Ljk2LTguMjI0IDEwLjU2LTguMjI0aDY0Ljg5NmM1LjYgMCAxMC4wOCAyLjY1NiAxMC4wOCA4LjIyNHYwLjAzMmMwIDI4LjA5Ni0xOS4zMjggNTEuMDA4LTQyLjg0OCA1MS4wMDgtMjMuNDU2IDAtNDIuNjg4LTIyLjk0NC00Mi42ODgtNTEuMDR6IG0tMjIuNjI0IDQ3LjEzNmMzLjEzNiAwIDYuMTEyIDEuMzQ0IDguMjI0IDMuNjhsMjUuNTA0IDI4LjcwNC0xMi4zODQgMTAuOTQ0LTE0LjE0NC03LjJhMTUuMTY4IDE1LjE2OCAwIDAgMC0xNC4wMTYgMC4wNjRsLTEzLjQ3MiA3LjA3Mi0xMi41MTItMTAuODE2IDI0LjY3Mi0yOC42NzJhMTAuOTEyIDEwLjkxMiAwIDAgMSA4LjEyOC0zLjc3NnogbS0xMDMuMzYtNDcuMTM2YzAtNS41NjggMy43MTItOC4yMjQgOS4zMTItOC4yMjRoNjQuOTI4YzUuNjMyIDAgMTEuMjMyIDIuNjU2IDExLjIzMiA4LjI1NiAwIDI4LjA5Ni0xOS4yNjQgNTEuMDA4LTQyLjc4NCA1MS4wMDgtMjMuNDg4IDAtNDIuNzItMjIuOTQ0LTQyLjcyLTUxLjAwOHYtMC4wMzJ6TTczNS4yMzIgNTQuNzUyYzAtMjkuMTItMjMuNTg0LTUyLjY3Mi01Mi42NzItNTIuNjcyaC0yMTQuMzM2Yy0yOS4wODggMC01Mi42NCAyMy41ODQtNTIuNjQgNTIuNjcydjEyMi45MTJoMzE5LjY4VjU0Ljc1MnoiLz48L3N2Zz4=;rotation=-60;" vertex="1" parent="1">
          <mxGeometry x="599.46" y="-795.46" width="45.44" height="45.44" as="geometry" />
        </mxCell>
        <mxCell id="SVzCEJU157vRpgFHD0QC-133" value="3" style="ellipse;whiteSpace=wrap;html=1;aspect=fixed;strokeWidth=2;fontFamily=Tahoma;spacingBottom=4;spacingRight=2;fontSize=16;strokeColor=#D3D3D3;fontStyle=1" vertex="1" parent="1">
          <mxGeometry x="923" y="-781.52" width="25.5" height="25.5" as="geometry" />
        </mxCell>
        <mxCell id="SVzCEJU157vRpgFHD0QC-134" value="3" style="ellipse;whiteSpace=wrap;html=1;aspect=fixed;strokeWidth=2;fontFamily=Tahoma;spacingBottom=4;spacingRight=2;fontSize=16;strokeColor=#D3D3D3;fontStyle=1" vertex="1" parent="1">
          <mxGeometry x="1208" y="-784.02" width="25" height="25" as="geometry" />
        </mxCell>
        <mxCell id="SVzCEJU157vRpgFHD0QC-135" value="" style="shape=image;verticalLabelPosition=bottom;labelBackgroundColor=default;verticalAlign=top;aspect=fixed;imageAspect=0;image=data:image/svg+xml,PHN2ZyB4bWxuczp4bGluaz0iaHR0cDovL3d3dy53My5vcmcvMTk5OS94bGluayIgeG1sbnM9Imh0dHA6Ly93d3cudzMub3JnLzIwMDAvc3ZnIiBoZWlnaHQ9IjEyOCIgd2lkdGg9IjEyOCIgdmVyc2lvbj0iMS4xIiB2aWV3Qm94PSIwIDAgMTAyNCAxMDI0IiBjbGFzcz0iaWNvbiI+PHBhdGggZmlsbD0iI2Q4MWUwNiIgZD0iTTMzMC42NTYgMjA5LjE1MkE5MC42NTYgOTAuNjU2IDAgMCAwIDI0MCAyOTkuODA4djYzMy41MDRBOTAuNjU2IDkwLjY1NiAwIDAgMCAzMzAuNjU2IDEwMjRoNDg5LjQwOGE5MC42ODggOTAuNjg4IDAgMCAwIDkwLjY4OC05MC42NTZWMjk5LjgwOGE5MC42NTYgOTAuNjU2IDAgMCAwLTkwLjY4OC05MC42NTZIMzMwLjY1NnogbTQ3Ni41NzYgNjIyLjU5MmMwIDI5LjA4OC0yMy41ODQgNTIuNzA0LTUyLjY3MiA1Mi43MDRIMzk2LjE5MmE1Mi42NCA1Mi42NCAwIDAgMS01Mi42NC01Mi43MDRWNDA1LjkyYzAtMjkuMTIgMjMuNTUyLTUyLjY3MiA1Mi42NC01Mi42NzJoMzU4LjMzNmMyOS4wODggMCA1Mi42NzIgMjMuNTg0IDUyLjY3MiA1Mi42NzJ2NDI1LjgyNHoiLz48cGF0aCBmaWxsPSIjZDgxZTA2IiBkPSJNNDU3Ljk1MiA3MDAuNDE2bDIwLjYwOC0zOS40ODh2OTEuMjY0YzAgMTEuMTM2IDYuOTQ0IDIxLjMxMiAxNi44MzIgMjYuMjQgMTcuNzI4IDguNzA0IDQ5LjcyOCAyMC4zMiA5My4xODQgMjAuMzIgMzguOTc2IDAgNjcuNzEyLTkuMzQ0IDg1LjU2OC0xNy42IDEyLjU0NC01Ljc5MiAyMC41NDQtMTguMzA0IDIwLjU0NC0zMi4wMzJ2LTg4LjE5MmwxLjEyIDIuMDE2IDE5LjU1MiAzNi41MTJjMzIuNjQtMjkuNDQgNTIuNzA0LTY5Ljk1MiA1Mi43MDQtMTE0LjY4OCAwLTg5Ljg1Ni04MS4zNDQtMTYyLjc1Mi0xODEuNjY0LTE2Mi43NTItMTAwLjM4NCAwLTE4Mi4wMTYgNzIuODk2LTE4Mi4wMTYgMTYyLjc1MiAwLjA2NCA0NS4yNDggMjAuMzIgODYuMjA4IDUzLjU2OCAxMTUuNjQ4eiBtMTUxLjE2OC05NS44NzJjMC01LjU2OCA0Ljk2LTguMjI0IDEwLjU2LTguMjI0aDY0Ljg5NmM1LjYgMCAxMC4wOCAyLjY1NiAxMC4wOCA4LjIyNHYwLjAzMmMwIDI4LjA5Ni0xOS4zMjggNTEuMDA4LTQyLjg0OCA1MS4wMDgtMjMuNDU2IDAtNDIuNjg4LTIyLjk0NC00Mi42ODgtNTEuMDR6IG0tMjIuNjI0IDQ3LjEzNmMzLjEzNiAwIDYuMTEyIDEuMzQ0IDguMjI0IDMuNjhsMjUuNTA0IDI4LjcwNC0xMi4zODQgMTAuOTQ0LTE0LjE0NC03LjJhMTUuMTY4IDE1LjE2OCAwIDAgMC0xNC4wMTYgMC4wNjRsLTEzLjQ3MiA3LjA3Mi0xMi41MTItMTAuODE2IDI0LjY3Mi0yOC42NzJhMTAuOTEyIDEwLjkxMiAwIDAgMSA4LjEyOC0zLjc3NnogbS0xMDMuMzYtNDcuMTM2YzAtNS41NjggMy43MTItOC4yMjQgOS4zMTItOC4yMjRoNjQuOTI4YzUuNjMyIDAgMTEuMjMyIDIuNjU2IDExLjIzMiA4LjI1NiAwIDI4LjA5Ni0xOS4yNjQgNTEuMDA4LTQyLjc4NCA1MS4wMDgtMjMuNDg4IDAtNDIuNzItMjIuOTQ0LTQyLjcyLTUxLjAwOHYtMC4wMzJ6TTczNS4yMzIgNTQuNzUyYzAtMjkuMTItMjMuNTg0LTUyLjY3Mi01Mi42NzItNTIuNjcyaC0yMTQuMzM2Yy0yOS4wODggMC01Mi42NCAyMy41ODQtNTIuNjQgNTIuNjcydjEyMi45MTJoMzE5LjY4VjU0Ljc1MnoiLz48L3N2Zz4=;rotation=-60;" vertex="1" parent="1">
          <mxGeometry x="1338.69" y="-791.75" width="47.01" height="47.01" as="geometry" />
        </mxCell>
        <mxCell id="SVzCEJU157vRpgFHD0QC-136" value="4" style="ellipse;whiteSpace=wrap;html=1;aspect=fixed;strokeWidth=2;fontFamily=Tahoma;spacingBottom=4;spacingRight=2;fontSize=16;strokeColor=#D3D3D3;fontStyle=1" vertex="1" parent="1">
          <mxGeometry x="955.35" y="-914.58" width="25.32" height="25.32" as="geometry" />
        </mxCell>
        <mxCell id="SVzCEJU157vRpgFHD0QC-137" value="5" style="ellipse;whiteSpace=wrap;html=1;aspect=fixed;strokeWidth=2;fontFamily=Tahoma;spacingBottom=4;spacingRight=2;fontSize=16;strokeColor=#D3D3D3;fontStyle=1;align=center;" vertex="1" parent="1">
          <mxGeometry x="1201" y="-969" width="26.86" height="26.86" as="geometry" />
        </mxCell>
        <mxCell id="SVzCEJU157vRpgFHD0QC-138" style="vsdxID=780;fillColor=#4D4D4D;shape=stencil(lVjRdtsgDP2avOoAAmw/d9t/9KzpmrOu6Unbrf37kWM7CAmQ/RYcCa6kq2vhA969Pd2/Hg/OvL1fzr+P/04P708H/HZw7vTydLyc3tOvA34/4N3j+XL8dTl/vDzM69f7q+X115/z3+sOn7NfMFcXZ77m5bz6MVv+/LjMpnb+0wWY7GJuqb35dMXya1lGwLAYYGmwLJ0BtPTI59MLAVdiGyaIUw+fKbFNCNGX+GgEyyNrTAkxMIyrQePQwYOZyoPzlvyM9VAKDbkNNsItc5PtG6nkQLODFdVxOZaxRKokx7QB9phVcnByMMZ9paYuy6NxAM/jSWkeROaH0I8pm7T6IGUOBdcGfjhYX55NEaIw2lZ24rBUcQTTr7uH4Eq0qc5rXla06ABdCXcYwWI/VdmkcXgcII7scLLtmpgAnvGOQkRZc2wEXyZrA7F2O2jUjQYm3z/B9x1qXPdlDq8+rIAUySq/Vk+gBdMtYKXRUtIF12WjaV22u8X0/qLAmv2lRkxcLMtjPplnmtQDhRFuYobs7J32fgIXdypBSC9EpypBmADHfjmzyXYloNu2lYBCbBNZBK819oY+VRw0JfAOrKI1vu+wQQmSj2MFrCjB1SroOUxW3RpWxCCwUaeiBCGKwwV7bibb9YBu25SEwOYXqQdq0FIPaDabkkAL05QEhSKyxXfao10njpYkRAhlcDisL7ysCKmmPDoDUZkNsklLEVJNeWbJtqsi4A2hkwjbZBaha/29oV0Vh+7NCr0ikBWKZ58Oxd14G9rbLFdvB5Ll1kHg1ycC8XbF03pba22qGFZs2tY0iq9NAzXwiqbRjLZljRanEbqoefeGJKxLPqW5OQyFw2i11BKX9dEEgXeYAcuHNzn6j05eVbTpf/Rg2QeD+vQ/sEs5RYnSCjfGT33sLYyJzxwEZX7Ea1uJf9RammbWyp2drJKTKFFateJnbwOdMBrDooO9BEtj0sATLAlWmSgrCVaHygrB6kMlJxhF2SaYFn6FX9GLeazCrxjE67MSfrbazi+6c5tfFGWbXzx8jV7cXmOX1z60VOiVXrpG16/KeFLJrzqhVOhVm1AkvSjKNr3U+Cv88vmC1OGXjzDq7ZWttvOL7tzmF0XZ5peIXyOYcEg/8oftx9Pz8/xdnP7PP4SnR/NHdPz+Hw==);strokeWidth=0;shadow=0;spacingTop=-3;spacingBottom=-3;spacingLeft=-3;spacingRight=-3;labelBackgroundColor=none;rounded=0;html=1;whiteSpace=wrap;fontSize=19;fontStyle=0" vertex="1" parent="1">
          <mxGeometry x="311" y="-410.06" width="41" height="56.53" as="geometry" />
        </mxCell>
        <mxCell id="SVzCEJU157vRpgFHD0QC-139" value="" style="rounded=0;whiteSpace=wrap;html=1;strokeWidth=2;strokeColor=none;" vertex="1" parent="1">
          <mxGeometry x="467.62" y="-704.1000000000001" width="120.75" height="252.83" as="geometry" />
        </mxCell>
        <mxCell id="SVzCEJU157vRpgFHD0QC-140" style="edgeStyle=orthogonalEdgeStyle;rounded=0;orthogonalLoop=1;jettySize=auto;html=1;strokeWidth=2;exitX=0.513;exitY=0.01;exitDx=0;exitDy=0;exitPerimeter=0;" edge="1" parent="1" source="SVzCEJU157vRpgFHD0QC-141">
          <mxGeometry relative="1" as="geometry">
            <mxPoint x="527.2670588235292" y="-616.2379310344827" as="targetPoint" />
            <mxPoint x="527.3999999999999" y="-568.6048275862071" as="sourcePoint" />
            <Array as="points">
              <mxPoint x="527" y="-563" />
              <mxPoint x="527" y="-578" />
              <mxPoint x="527" y="-578" />
            </Array>
          </mxGeometry>
        </mxCell>
        <mxCell id="SVzCEJU157vRpgFHD0QC-141" style="vsdxID=780;shape=stencil(lVjRdtsgDP2avOoAAmw/d9t/9KzpmrOu6Unbrf37kWM7CAmQ/RYcCa6kq2vhA969Pd2/Hg/OvL1fzr+P/04P708H/HZw7vTydLyc3tOvA34/4N3j+XL8dTl/vDzM69f7q+X115/z3+sOn7NfMFcXZ77m5bz6MVv+/LjMpnb+0wWY7GJuqb35dMXya1lGwLAYYGmwLJ0BtPTI59MLAVdiGyaIUw+fKbFNCNGX+GgEyyNrTAkxMIyrQePQwYOZyoPzlvyM9VAKDbkNNsItc5PtG6nkQLODFdVxOZaxRKokx7QB9phVcnByMMZ9paYuy6NxAM/jSWkeROaH0I8pm7T6IGUOBdcGfjhYX55NEaIw2lZ24rBUcQTTr7uH4Eq0qc5rXla06ABdCXcYwWI/VdmkcXgcII7scLLtmpgAnvGOQkRZc2wEXyZrA7F2O2jUjQYm3z/B9x1qXPdlDq8+rIAUySq/Vk+gBdMtYKXRUtIF12WjaV22u8X0/qLAmv2lRkxcLMtjPplnmtQDhRFuYobs7J32fgIXdypBSC9EpypBmADHfjmzyXYloNu2lYBCbBNZBK819oY+VRw0JfAOrKI1vu+wQQmSj2MFrCjB1SroOUxW3RpWxCCwUaeiBCGKwwV7bibb9YBu25SEwOYXqQdq0FIPaDabkkAL05QEhSKyxXfao10njpYkRAhlcDisL7ysCKmmPDoDUZkNsklLEVJNeWbJtqsi4A2hkwjbZBaha/29oV0Vh+7NCr0ikBWKZ58Oxd14G9rbLFdvB5Ll1kHg1ycC8XbF03pba22qGFZs2tY0iq9NAzXwiqbRjLZljRanEbqoefeGJKxLPqW5OQyFw2i11BKX9dEEgXeYAcuHNzn6j05eVbTpf/Rg2QeD+vQ/sEs5RYnSCjfGT33sLYyJzxwEZX7Ea1uJf9RammbWyp2drJKTKFFateJnbwOdMBrDooO9BEtj0sATLAlWmSgrCVaHygrB6kMlJxhF2SaYFn6FX9GLeazCrxjE67MSfrbazi+6c5tfFGWbXzx8jV7cXmOX1z60VOiVXrpG16/KeFLJrzqhVOhVm1AkvSjKNr3U+Cv88vmC1OGXjzDq7ZWttvOL7tzmF0XZ5peIXyOYcEg/8oftx9Pz8/xdnP7PP4SnR/NHdPz+Hw==);strokeWidth=0;shadow=0;spacingTop=-3;spacingBottom=-3;spacingLeft=-3;spacingRight=-3;labelBackgroundColor=none;rounded=0;html=1;whiteSpace=wrap;fillColor=#E1D5E7;strokeColor=#9673A6;fontColor=#E1D5E7;" vertex="1" parent="1">
          <mxGeometry x="502.37" y="-563.604827586207" width="50" height="61.862068965517246" as="geometry" />
        </mxCell>
        <mxCell id="SVzCEJU157vRpgFHD0QC-142" value="&lt;font style=&quot;direction: ltr; letter-spacing: 0px; line-height: 120%; opacity: 1;&quot;&gt;&lt;b&gt;&lt;font style=&quot;font-size: 20px&quot;&gt;Client i&lt;/font&gt;&lt;br&gt;&lt;/b&gt;&lt;/font&gt;" style="verticalAlign=middle;align=center;vsdxID=100;fillColor=none;gradientColor=none;shape=stencil(nZBLDoAgDERP0z3SIyjew0SURgSD+Lu9kMZoXLhwN9O+tukAlrNpJg1SzDH4QW/URgNYgZTkjA4UkwJUgGXng+6DX1zLfmoymdXo17xh5zmRJ6Q42BWCfc2oJfdAr+Yv+AP9Cb7OJ3H/2JG1HNGz/84klThPVCc=);strokeColor=none;labelBackgroundColor=none;rounded=0;html=1;whiteSpace=wrap;fontFamily=Verdana;fontColor=#A680B8;" vertex="1" parent="1">
          <mxGeometry x="461" y="-489.1000000000001" width="130" height="32" as="geometry" />
        </mxCell>
        <mxCell id="SVzCEJU157vRpgFHD0QC-143" value="" style="shape=image;verticalLabelPosition=bottom;labelBackgroundColor=default;verticalAlign=top;aspect=fixed;imageAspect=0;image=data:image/png,iVBORw0KGgoAAAANSUhEUgAAAJYAAACGCAMAAAF/DrPdAAAAAXNSR0IArs4c6QAAAARnQU1BAACxjwv8YQUAAAEUUExURQAAAICAgICAgIWFhYCAgICAgHx8fICAgH19fYCAgH19fYCAgICAgICAgH5+foCAgICAgIGBgYCAgICAgICAgICAgICAgICAgH5+foCAgICAgIGBgYCAgIGBgYCAgICAgH9/f39/f39/f39/f4CAgH5+foCAgH9/f4CAgH9/f39/f35+fn9/f4CAgH9/f4CAgH9/f35+fn9/f35+fn9/f4CAgH9/f39/f39/f39/f39/f39/f35+fn5+fn9/f4CAgH5+fn9/f39/f4CAgH9/f39/f4CAgH9/f39/f39/f39/f35+foCAgH9/f39/f35+fn9/f35+foCAgH9/f4CAgH9/f35+foCAgH9/f35+foCAgH9/f3yWWIkAAABbdFJOUwAIEBcYICcoLzA1OD5AQ0hQVVhgYmRoam9wdnd4fYCEhYePl5qenp+ipaeqq66vsre4uby/wMXHycvP0dLW19ja29/g4eXm5+nt7/Dw8/X29/j4+fr7/Pz9/v7Jqjp4AAAACXBIWXMAABcRAAAXEQHKJvM/AAAO+UlEQVRoQ8VaC3tk2RRNoqLVRHRLCD1akWQIQQRFKATBhMIopj3G+f//w1pr7/O671TSmfVV7j2vfZ77dfbNTsK5vwsE/VpoloUz/KXCwCQeeOG3CGHXi/2tpmHniulVpArHLMPvZvkSLXbO2EwFVq2E+kxA2WuVHVl+bQMamZI7OwdqYPW7qti5QdKnwi4O+dRviZaLcE1SFejPEnwsscgIkKuyBKgxWgNLf2fcveogxd9HlozQkNwUAxehX9hs5sqR6LWm6tUssacdZNjzMgyI6iPWhsvDSLIzC5tE9MKKkFNHHx57G+Rxflb89stWi989zser2fBGXcaO73IOjyvscAhXYX6h4heq02NPrRKYXFgyw/rvxgaVA9WOwOPGyw+8B7EfLNcSJZYX9tZ4mnUI/w0vVfZmCf4B1ME+nvxxyI0aML8/C/feYpmGcQrHnfK5pzBjaqUBkTiKCb2NzvsEsPsEGrEch47MjwO5HWBRArOxiCt9U1c7LkRn0ooEpKrqJgRsx4Zs4cUbmzjzpyza4+PSSdhNSb5GOlBsAZTvWtVL0IJRVIcNA2va9FWpF3NKoHdL7EBQufi4Ty3Zc/L07oPVj7UC7jCKJ4cwX3bwUBOa8qln+qDhbkMSzk64Bh2ZmlfvD7aK65sNdUaxU4IrUKJAFAcxDWsvwndSM5cjcQ656y4ch7mx6QpaSs2UQyLJzCoszlmx0FGjwH5J2AhQQLtYmoCOY5nSVJFRsK7xKPQAZT1SoZXpWtLd5K7UIvYlcbaEEBN4G1u62IooNsI6yNIqmlvRK6jMAMsQRRSKOAStks3uWXht1Ka8TD2HsGahCqBSF+qxhVMUvvEaSWJnqxBOXoVPrIbj9LWCubGqRTixhgWYp6DyJHgcQFRKxgCUA9bZ5qArwM7RiV2VqJGXJYeAQDmKJNkwOUltoIlttQFTiz3whOJps1XubIGk1BNRnePOAdJnSrE4hN9bHdyQOSeotjhbegbh8IpNkN1XsVVmBaQEDttTKWE9LuknEeexBDOyBAyjJ0rEstDhmmWk3vXqhY7D7MYAoOR4dp7rB9qMqa8OmOwDxfFtB/VyenhIpy1u63agFCbjcYuMJ7dBTQ1L6q7DFuC6PCkgu2Vn7Knqi+zX6emMwVwuIGlRiIMheapd2IuE9PkF8ti3Q4CvCKyg306UYJZV5lx1EFJgwurwECoOYAmt8jHpYkaAStg5psphB1SfbULU3PEtoOwVWQk8jWcHd2JWUjPwAFuE7Lx09NlKM8bupBWXQLW/WoRQdKZAHNwNLgY2uTzCDCgOVbBhg5CO49qzBFoQcXhCei+sTWdSh4QLnUSL0LSc590jNbxRibzGCDrJPtxH9JVrQjIPlwPI1uGUeFR0AkWK58paSzZhL2yWmkaD0BHnrIFNHXvD8iyNKNyKF4yHK8IusJbcKD1jRQbmud9884AmgNoPLyzWEhGvVQB5zOZgFCLhlq3hOGUi9UAp+Cr+8v40sW+CYgoFCfnSbC2X5DbKo2wFGYtCKetbERLKOlb0yX/IVOQnqlPBTHdu3iQEeMiRgStu8rImLn3aQkko96hYurlZKO6VIfpleKlZg5CbWTrg/0CZOAc7nbVAAdIQlMuSEFqDirfU4WgBkLuwvc5D8/Nluj+gktzb3HIfA49LzytzKl2H6eOJGeIZAR0EmTjjtpjf2CSkPwrgkGbaUskM+SqQNdmtG0g2+xpKfCQvaRA6KVE4G2IjoLDVXhLjN0AXYSfMk/YMIXEvddaDUPeFo/vQk1sAG1HMvu75waCpNjbT4Sm1PczwCx0m7sFYLJcXUdIfhV3yEzHo505CaZm8aFuoq9vSZdga1CTOnNQLhY55OGDFEj37nXt6G1TrggJ+xMRgMKLVJh61Y7/THTnhMX3R5pZuEX0ATz4UstslvzO/XWfmAlx7jlDBNp2Z21SSWudbdBa7imEHwAtGOyvNFkH9DL/v+3j5Kt0KEyWXNQnd1wPiqbEr6gfTXsnU7MIjY/epsxZhnnx0wxWkMGOfLi4AA47uTKlZm9BKFoe8/tuKZG9omjn52mzhvZs6U3FJKCtdmNO5hUfU0krn9DXdTNLJ0YHCCLQIpUvSarkr2mQ7SC8tIHdGjt1ti1CC0TbNSGHUrrsdKtEBpettk3CWlyKYu81UXZ6Ak6PqsAO0IgGEioN5ltC20//CnnQrK29vUewMEDKUVY2PrPrAO144a6CCG67jtRIDs3URN1Q7UhcXgBUBd+ga0SDUJVg+pcHahAU2N3qYTbcbabEDUBMu2u5HhDuj0Q8zzgW8H6Llt+CZhBNpSPTf2M4XoKTDdH9pfUtCdtxwZSiLOnFpVCa0Ot34Raq7w+fw1+UD2X74Wg5IbkFGOLbsNPK2XQdM9ZyAwxdNQqF2i5D7pWUUb/U2AOhvNAMDSmpCh43g0TElL+UkVwwbtaHxje17RZiQxNQOatevrPFCRagA89GOJXcgE3ZAqh5v7VrjmqKz1MSsaBRoKceNJJ32Ea/vqWQcaMrLiUjbdyVLlOUDODAKPpWIiGYubcIE0G0Ic24OzUd9fZJV0eH0RhEqsGX4H/7msm1xNSw1aye0vxw7TE1ayCYZHuqv9lVMnZGZ2bYiFAppRQ4rOP43kuZ5WRDFYCLA3for/sBXNSHRCP/gIW722ta1Lm7ZbZMQUOdiXk0Y7M5ZFZv7orCPgI6GaBAygVd0SrP/8YvSwamBWhMvoCREe8q6l6QvGjg7PLysAdyc71O828uMUMMU9y9bANgAG1K6vRmohljb+dWE+irjWUL6iW5GtwsQnYC2fQThbXMxyKaPNXo3gHMwSfh7m7BBow0Tp4OoS35jc7ZrEjb6snAZvau4GOBNvov60iX+TcIbbnKhO9Hgt2wF5sKTurMOOSNz5Hr+4ybhgfja8x56E/cc2eHnrx2ARWTc/HYQ2srdmJPwxDdNn/fNh8rha0xopVoyKd81oTF7HcazkcEy30wl/tEuhC/xoQBUF2FsRUQBzu5zdFFsHgbn0S7CdkjQmZbwPGBnXJnMDkIsGAd0U9ocW0FHPL4RiW8TdkJarGymrsbpOsHTKa0yT6Rw3x6Gn9R+Obry1BaA5ixDZ4/qi9RZR8GMpJPfAs1vDlvvFgF616+0lL32dRJ0D8Ha9Oy+iEyHsyzRZ5geADdg/Z80nhSzM3dbifvzxwSjngwHySXIWOcg86cD09wduHoUUz8O8miJ63RwM3MzgMFPuu8SrvzvGsy05xfjWpE/G3xWHbvywnYx3wqeEW5jO+VuZvPq9infLcytTyGAGnZ9iP71M8Idsnylr2G13/XccyEphvIaXsKrn+DjyHTEGDJQulsF4i0a6DnmJ0e6RhKb4iJUoLBGvVN/UryMKtTRNa/dpkF616o16XXC05dNO+PSwMtbQnccdAr2S0dg3fVdcO5Rt3/a6zD6+HeFgjrwUFm4dMVm8caw6ZjY+IhHPmKFmls9sgotafeLU5yW4ieOdXl0d/Dezb1af953dV1r3gkjVhGPEqvksaVJHXvw/NbKO0mvjcwmfZn4sZjYhBFNJQMX6YKydxaZyOa/F0NCyPqNLV9mXldytz5LHfunXTB8VCncRGDCiB7xCKs8jrDrC4KzXE4qillb6vfbqtV0iYS1nNj4iCnq22FF9mwCP48MZIEOo5143ygbu4CG1bfs3T8i5mVH0q0VK/3j0Rfb/83UW4L1YP/rlSZGDI54wg9YQI8iThf/cO3KyaMvk511D/LE882cPjjirZuJPovrbHiTNKZ5nl1xqx7YDuXYyA+UHxvRQrh94QUFfIQLm5gp0PuH3B9MXDx4arqFGB7ROb5n+VGNE2uoafuk0dHl/M35ErhYtKtc2YP6oFQkgyPeRN3SedSFeyJcKczX+LiSFU7EVS34puz/8oFeGUMjQkjdT+m4D+Qdr+Dq3VAKV4HqmlhaqAL9I2rd8duCs09EHPBHev7Bb1nAe94AyBNfLQ6BNzkA6N/3ic/8x8vCyjjZuuwd0f/nbTca/XD7WgIyO0kLvJ+58F3ufPETJQDff7/fhPtKMe7H3twAHqUzft+XcTc2YsR+tC4NaMBdM/WvTcMZGDn126CbuRI+BNydWRofuHF+4biDIxZwb6XAfWRKV4nCx/xgI5yZQi6+1Ge4BH/dXlDptrJ/6RlV8cCINV4slrYDN2eVoBd64mhn142oocc2VtJytVeurFpH34jTkDjZtM08K6Cezjz2B/i3tCSxT3qldZudw6c/tYIqhFwiup4feN6tyXQbPwlfsE6/4tl8Uey507g5INyre89y71vuieCnZmstbq9h3W0es5YDxMi+35uHmNMxpFgaOCM55j/Tq1AzGSb994X/n7jzCaNe2e0KV3FSUJauevyUMtxTp5+x75tUYIurbLcj4Pr0rZ7Cxi59UVWU98TDqEBddcS7ZUa1vQOuhzDgCJh6v07+hE8KmJWuSnVP3GRtfRA7/oYtIwb4R12PYUfAOHzz2cwoBWrlGnFTM5z/j0tY/1EvnfoE12PQEXCD/Cc9iZZDclLuWVifNlVTpfKJ+RTXY8QR+JW/M9zxaKLjnig0nUkscXhEuR6jjkDGqZu2OpgwAl/1UevYBl0P13NDjoCD9tBKtr1iVBMbGnHmpzzuCLgaNB4oXM8xmEhEA53viYMjXruZGHME4u21cU0eR+sSHic2OOLGhxlxBDaZy/1+1dNrE63Wr6J2HR7RT2XcEUjhFVdj0xwUW3Q0T/FrEDE44p3v8hRHIPZe62qgP9bo9sEyJ64WDIMjYiQTyiFHIGty+xhWyBaYp2XzAF9AIbf5SnG1Nz5iTqadTigcgeIb6/lu+aEpS1YDjDX6BRRLSZphLaM+ZcRpjkDhc90fut6eeTdQaYmBi1ijOx4n83TDSaHyaSNOcgTAjqn/X+v5Zz17Y402q9/oCVSWZuKIkxwBoNb7QmXXDB5rLNHS6VNHHHUEDNU9GYvrYtzm1xXewbswbURDnyOQUUp69z24dLPbnN3E+IgTkfViX48fe32T8d41Xtn/cfYYIY819nhm7xLGsiOxxufHhOhmh5C+e4xGNxv/wP5cGIlufgqMZZgYa3x+TI01Pj8mxxqfH4+LNbaws/N/lEy/skWA9XgAAAAASUVORK5CYII=;" vertex="1" parent="1">
          <mxGeometry x="485.94999999999993" y="-693.1000000000001" width="82.84" height="74" as="geometry" />
        </mxCell>
        <mxCell id="SVzCEJU157vRpgFHD0QC-144" value="&lt;span style=&quot;font-size: 19px;&quot;&gt;&lt;b style=&quot;font-size: 19px;&quot;&gt;model&lt;br style=&quot;font-size: 19px;&quot;&gt;poisoning&lt;/b&gt;&lt;/span&gt;" style="text;html=1;align=center;verticalAlign=middle;resizable=0;points=[];autosize=1;fontSize=19;fillColor=none;gradientColor=#ffd966;strokeColor=none;fontColor=#000000;fontStyle=2;fontFamily=Helvetica;" vertex="1" parent="1">
          <mxGeometry x="540.0299999999999" y="-758.0000000000001" width="109" height="58" as="geometry" />
        </mxCell>
        <mxCell id="SVzCEJU157vRpgFHD0QC-145" value="" style="edgeStyle=none;rounded=0;orthogonalLoop=1;jettySize=auto;html=1;strokeColor=#000000;strokeWidth=2;fontFamily=Helvetica;fontSize=16;fontColor=#FF0000;startArrow=none;startFill=0;endArrow=none;endFill=0;fillColor=default;gradientColor=#A9C4EB;exitX=0.988;exitY=0.524;exitDx=0;exitDy=0;exitPerimeter=0;" edge="1" parent="1" source="SVzCEJU157vRpgFHD0QC-70">
          <mxGeometry relative="1" as="geometry">
            <mxPoint x="981" y="-886" as="targetPoint" />
          </mxGeometry>
        </mxCell>
        <mxCell id="SVzCEJU157vRpgFHD0QC-146" value="" style="shape=image;verticalLabelPosition=bottom;labelBackgroundColor=default;verticalAlign=top;aspect=fixed;imageAspect=0;image=data:image/png,iVBORw0KGgoAAAANSUhEUgAAAJYAAACGCAMAAAF/DrPdAAAAAXNSR0IArs4c6QAAAARnQU1BAACxjwv8YQUAAAEUUExURQAAAICAgICAgIWFhYCAgICAgHx8fICAgH19fYCAgH19fYCAgICAgICAgH5+foCAgICAgIGBgYCAgICAgICAgICAgICAgICAgH5+foCAgICAgIGBgYCAgIGBgYCAgICAgH9/f39/f39/f39/f4CAgH5+foCAgH9/f4CAgH9/f39/f35+fn9/f4CAgH9/f4CAgH9/f35+fn9/f35+fn9/f4CAgH9/f39/f39/f39/f39/f39/f35+fn5+fn9/f4CAgH5+fn9/f39/f4CAgH9/f39/f4CAgH9/f39/f39/f39/f35+foCAgH9/f39/f35+fn9/f35+foCAgH9/f4CAgH9/f35+foCAgH9/f35+foCAgH9/f3yWWIkAAABbdFJOUwAIEBcYICcoLzA1OD5AQ0hQVVhgYmRoam9wdnd4fYCEhYePl5qenp+ipaeqq66vsre4uby/wMXHycvP0dLW19ja29/g4eXm5+nt7/Dw8/X29/j4+fr7/Pz9/v7Jqjp4AAAACXBIWXMAABcRAAAXEQHKJvM/AAAO+UlEQVRoQ8VaC3tk2RRNoqLVRHRLCD1akWQIQQRFKATBhMIopj3G+f//w1pr7/O671TSmfVV7j2vfZ77dfbNTsK5vwsE/VpoloUz/KXCwCQeeOG3CGHXi/2tpmHniulVpArHLMPvZvkSLXbO2EwFVq2E+kxA2WuVHVl+bQMamZI7OwdqYPW7qti5QdKnwi4O+dRviZaLcE1SFejPEnwsscgIkKuyBKgxWgNLf2fcveogxd9HlozQkNwUAxehX9hs5sqR6LWm6tUssacdZNjzMgyI6iPWhsvDSLIzC5tE9MKKkFNHHx57G+Rxflb89stWi989zser2fBGXcaO73IOjyvscAhXYX6h4heq02NPrRKYXFgyw/rvxgaVA9WOwOPGyw+8B7EfLNcSJZYX9tZ4mnUI/w0vVfZmCf4B1ME+nvxxyI0aML8/C/feYpmGcQrHnfK5pzBjaqUBkTiKCb2NzvsEsPsEGrEch47MjwO5HWBRArOxiCt9U1c7LkRn0ooEpKrqJgRsx4Zs4cUbmzjzpyza4+PSSdhNSb5GOlBsAZTvWtVL0IJRVIcNA2va9FWpF3NKoHdL7EBQufi4Ty3Zc/L07oPVj7UC7jCKJ4cwX3bwUBOa8qln+qDhbkMSzk64Bh2ZmlfvD7aK65sNdUaxU4IrUKJAFAcxDWsvwndSM5cjcQ656y4ch7mx6QpaSs2UQyLJzCoszlmx0FGjwH5J2AhQQLtYmoCOY5nSVJFRsK7xKPQAZT1SoZXpWtLd5K7UIvYlcbaEEBN4G1u62IooNsI6yNIqmlvRK6jMAMsQRRSKOAStks3uWXht1Ka8TD2HsGahCqBSF+qxhVMUvvEaSWJnqxBOXoVPrIbj9LWCubGqRTixhgWYp6DyJHgcQFRKxgCUA9bZ5qArwM7RiV2VqJGXJYeAQDmKJNkwOUltoIlttQFTiz3whOJps1XubIGk1BNRnePOAdJnSrE4hN9bHdyQOSeotjhbegbh8IpNkN1XsVVmBaQEDttTKWE9LuknEeexBDOyBAyjJ0rEstDhmmWk3vXqhY7D7MYAoOR4dp7rB9qMqa8OmOwDxfFtB/VyenhIpy1u63agFCbjcYuMJ7dBTQ1L6q7DFuC6PCkgu2Vn7Knqi+zX6emMwVwuIGlRiIMheapd2IuE9PkF8ti3Q4CvCKyg306UYJZV5lx1EFJgwurwECoOYAmt8jHpYkaAStg5psphB1SfbULU3PEtoOwVWQk8jWcHd2JWUjPwAFuE7Lx09NlKM8bupBWXQLW/WoRQdKZAHNwNLgY2uTzCDCgOVbBhg5CO49qzBFoQcXhCei+sTWdSh4QLnUSL0LSc590jNbxRibzGCDrJPtxH9JVrQjIPlwPI1uGUeFR0AkWK58paSzZhL2yWmkaD0BHnrIFNHXvD8iyNKNyKF4yHK8IusJbcKD1jRQbmud9884AmgNoPLyzWEhGvVQB5zOZgFCLhlq3hOGUi9UAp+Cr+8v40sW+CYgoFCfnSbC2X5DbKo2wFGYtCKetbERLKOlb0yX/IVOQnqlPBTHdu3iQEeMiRgStu8rImLn3aQkko96hYurlZKO6VIfpleKlZg5CbWTrg/0CZOAc7nbVAAdIQlMuSEFqDirfU4WgBkLuwvc5D8/Nluj+gktzb3HIfA49LzytzKl2H6eOJGeIZAR0EmTjjtpjf2CSkPwrgkGbaUskM+SqQNdmtG0g2+xpKfCQvaRA6KVE4G2IjoLDVXhLjN0AXYSfMk/YMIXEvddaDUPeFo/vQk1sAG1HMvu75waCpNjbT4Sm1PczwCx0m7sFYLJcXUdIfhV3yEzHo505CaZm8aFuoq9vSZdga1CTOnNQLhY55OGDFEj37nXt6G1TrggJ+xMRgMKLVJh61Y7/THTnhMX3R5pZuEX0ATz4UstslvzO/XWfmAlx7jlDBNp2Z21SSWudbdBa7imEHwAtGOyvNFkH9DL/v+3j5Kt0KEyWXNQnd1wPiqbEr6gfTXsnU7MIjY/epsxZhnnx0wxWkMGOfLi4AA47uTKlZm9BKFoe8/tuKZG9omjn52mzhvZs6U3FJKCtdmNO5hUfU0krn9DXdTNLJ0YHCCLQIpUvSarkr2mQ7SC8tIHdGjt1ti1CC0TbNSGHUrrsdKtEBpettk3CWlyKYu81UXZ6Ak6PqsAO0IgGEioN5ltC20//CnnQrK29vUewMEDKUVY2PrPrAO144a6CCG67jtRIDs3URN1Q7UhcXgBUBd+ga0SDUJVg+pcHahAU2N3qYTbcbabEDUBMu2u5HhDuj0Q8zzgW8H6Llt+CZhBNpSPTf2M4XoKTDdH9pfUtCdtxwZSiLOnFpVCa0Ot34Raq7w+fw1+UD2X74Wg5IbkFGOLbsNPK2XQdM9ZyAwxdNQqF2i5D7pWUUb/U2AOhvNAMDSmpCh43g0TElL+UkVwwbtaHxje17RZiQxNQOatevrPFCRagA89GOJXcgE3ZAqh5v7VrjmqKz1MSsaBRoKceNJJ32Ea/vqWQcaMrLiUjbdyVLlOUDODAKPpWIiGYubcIE0G0Ic24OzUd9fZJV0eH0RhEqsGX4H/7msm1xNSw1aye0vxw7TE1ayCYZHuqv9lVMnZGZ2bYiFAppRQ4rOP43kuZ5WRDFYCLA3for/sBXNSHRCP/gIW722ta1Lm7ZbZMQUOdiXk0Y7M5ZFZv7orCPgI6GaBAygVd0SrP/8YvSwamBWhMvoCREe8q6l6QvGjg7PLysAdyc71O828uMUMMU9y9bANgAG1K6vRmohljb+dWE+irjWUL6iW5GtwsQnYC2fQThbXMxyKaPNXo3gHMwSfh7m7BBow0Tp4OoS35jc7ZrEjb6snAZvau4GOBNvov60iX+TcIbbnKhO9Hgt2wF5sKTurMOOSNz5Hr+4ybhgfja8x56E/cc2eHnrx2ARWTc/HYQ2srdmJPwxDdNn/fNh8rha0xopVoyKd81oTF7HcazkcEy30wl/tEuhC/xoQBUF2FsRUQBzu5zdFFsHgbn0S7CdkjQmZbwPGBnXJnMDkIsGAd0U9ocW0FHPL4RiW8TdkJarGymrsbpOsHTKa0yT6Rw3x6Gn9R+Obry1BaA5ixDZ4/qi9RZR8GMpJPfAs1vDlvvFgF616+0lL32dRJ0D8Ha9Oy+iEyHsyzRZ5geADdg/Z80nhSzM3dbifvzxwSjngwHySXIWOcg86cD09wduHoUUz8O8miJ63RwM3MzgMFPuu8SrvzvGsy05xfjWpE/G3xWHbvywnYx3wqeEW5jO+VuZvPq9infLcytTyGAGnZ9iP71M8Idsnylr2G13/XccyEphvIaXsKrn+DjyHTEGDJQulsF4i0a6DnmJ0e6RhKb4iJUoLBGvVN/UryMKtTRNa/dpkF616o16XXC05dNO+PSwMtbQnccdAr2S0dg3fVdcO5Rt3/a6zD6+HeFgjrwUFm4dMVm8caw6ZjY+IhHPmKFmls9sgotafeLU5yW4ieOdXl0d/Dezb1af953dV1r3gkjVhGPEqvksaVJHXvw/NbKO0mvjcwmfZn4sZjYhBFNJQMX6YKydxaZyOa/F0NCyPqNLV9mXldytz5LHfunXTB8VCncRGDCiB7xCKs8jrDrC4KzXE4qillb6vfbqtV0iYS1nNj4iCnq22FF9mwCP48MZIEOo5143ygbu4CG1bfs3T8i5mVH0q0VK/3j0Rfb/83UW4L1YP/rlSZGDI54wg9YQI8iThf/cO3KyaMvk511D/LE882cPjjirZuJPovrbHiTNKZ5nl1xqx7YDuXYyA+UHxvRQrh94QUFfIQLm5gp0PuH3B9MXDx4arqFGB7ROb5n+VGNE2uoafuk0dHl/M35ErhYtKtc2YP6oFQkgyPeRN3SedSFeyJcKczX+LiSFU7EVS34puz/8oFeGUMjQkjdT+m4D+Qdr+Dq3VAKV4HqmlhaqAL9I2rd8duCs09EHPBHev7Bb1nAe94AyBNfLQ6BNzkA6N/3ic/8x8vCyjjZuuwd0f/nbTca/XD7WgIyO0kLvJ+58F3ufPETJQDff7/fhPtKMe7H3twAHqUzft+XcTc2YsR+tC4NaMBdM/WvTcMZGDn126CbuRI+BNydWRofuHF+4biDIxZwb6XAfWRKV4nCx/xgI5yZQi6+1Ge4BH/dXlDptrJ/6RlV8cCINV4slrYDN2eVoBd64mhn142oocc2VtJytVeurFpH34jTkDjZtM08K6Cezjz2B/i3tCSxT3qldZudw6c/tYIqhFwiup4feN6tyXQbPwlfsE6/4tl8Uey507g5INyre89y71vuieCnZmstbq9h3W0es5YDxMi+35uHmNMxpFgaOCM55j/Tq1AzGSb994X/n7jzCaNe2e0KV3FSUJauevyUMtxTp5+x75tUYIurbLcj4Pr0rZ7Cxi59UVWU98TDqEBddcS7ZUa1vQOuhzDgCJh6v07+hE8KmJWuSnVP3GRtfRA7/oYtIwb4R12PYUfAOHzz2cwoBWrlGnFTM5z/j0tY/1EvnfoE12PQEXCD/Cc9iZZDclLuWVifNlVTpfKJ+RTXY8QR+JW/M9zxaKLjnig0nUkscXhEuR6jjkDGqZu2OpgwAl/1UevYBl0P13NDjoCD9tBKtr1iVBMbGnHmpzzuCLgaNB4oXM8xmEhEA53viYMjXruZGHME4u21cU0eR+sSHic2OOLGhxlxBDaZy/1+1dNrE63Wr6J2HR7RT2XcEUjhFVdj0xwUW3Q0T/FrEDE44p3v8hRHIPZe62qgP9bo9sEyJ64WDIMjYiQTyiFHIGty+xhWyBaYp2XzAF9AIbf5SnG1Nz5iTqadTigcgeIb6/lu+aEpS1YDjDX6BRRLSZphLaM+ZcRpjkDhc90fut6eeTdQaYmBi1ijOx4n83TDSaHyaSNOcgTAjqn/X+v5Zz17Y402q9/oCVSWZuKIkxwBoNb7QmXXDB5rLNHS6VNHHHUEDNU9GYvrYtzm1xXewbswbURDnyOQUUp69z24dLPbnN3E+IgTkfViX48fe32T8d41Xtn/cfYYIY819nhm7xLGsiOxxufHhOhmh5C+e4xGNxv/wP5cGIlufgqMZZgYa3x+TI01Pj8mxxqfH4+LNbaws/N/lEy/skWA9XgAAAAASUVORK5CYII=;" vertex="1" parent="1">
          <mxGeometry x="397" y="-799.2" width="51.78" height="46.25" as="geometry" />
        </mxCell>
        <mxCell id="SVzCEJU157vRpgFHD0QC-147" style="vsdxID=756;rotation=270;fillColor=none;gradientColor=none;strokeColor=none;shadow=1;labelBackgroundColor=none;rounded=0;html=1;whiteSpace=wrap;" vertex="1" parent="1">
          <mxGeometry x="995" y="-801.4599999999999" width="28" height="74" as="geometry" />
        </mxCell>
        <mxCell id="SVzCEJU157vRpgFHD0QC-148" style="vsdxID=757;rotation=270;fillColor=#e1d5e7;shape=stencil(vVTbjoMgEP0aHiXIGBee2+5/kC0qKRUzslv798Wg2WK1T41vcznMcE5mhsChb1SnCWe9R3fRN3P2DYEj4dy0jUbjg0XgROBQOdQ1ut/2HP1OjcjRurq/scIQ3+VsfMLZfXaj/x2x1rRPWPkxrMKfkMP5DzkteYTjhC9oUcTIkBaYC8qS5mJCZGowfYbOK29cG/MT2iqsdRbaZZVVdZLqb1p3L+FVMsvmQAXfpiMoFCkboLlM2CzUYXsRWe27QfkTyFQYScWLMF9lIsyGzjtIszVe6xMLlMFyYqUg6cSubsAu4/pu94LxfwwqY228Jc/55fEIoXh44PQA);strokeColor=#9673a6;strokeWidth=2;shadow=1;labelBackgroundColor=none;rounded=0;html=1;whiteSpace=wrap;" vertex="1" parent="SVzCEJU157vRpgFHD0QC-147">
          <mxGeometry x="1.6470588235294117" y="-2.7407407407407405" width="24.705882352941174" height="71.25925925925925" as="geometry" />
        </mxCell>
        <mxCell id="SVzCEJU157vRpgFHD0QC-149" style="vsdxID=758;rotation=270;fillColor=#bfbfbf;gradientColor=none;shape=stencil(vVHLDsIgEPwajiQU4hfU+h8bu7RELM2CFv9eyMZYjCcP3mZ2Zh/ZEaaPM6wotIqJwgU3N6ZZmKPQ2i0zkksFCTMI09tAOFG4LSPzFaqzomu41wmZ+1Tt0OrB7MD0xE6gc5EoN5qi1vsa1Kmvo1SWkF2UFBIkF5ZmqweaUJY10nqYGiluiOuu3P182P/OKuD9Zuu855T2+mcspcSRmuEJ);strokeColor=#000000;strokeWidth=2;shadow=1;labelBackgroundColor=none;rounded=0;html=1;whiteSpace=wrap;" vertex="1" parent="SVzCEJU157vRpgFHD0QC-147">
          <mxGeometry x="-14.176470588235293" y="24.580246913580247" width="14.823529411764705" height="15.530864197530864" as="geometry" />
        </mxCell>
        <mxCell id="SVzCEJU157vRpgFHD0QC-150" style="vsdxID=759;rotation=270;fillColor=#f2f2f2;gradientColor=none;shape=stencil(vVHLDsIgEPwajiQU4hfU+h8bu7RELM2CFv9eyMZYjCcP3mZ2Zh/ZEaaPM6wotIqJwgU3N6ZZmKPQ2i0zkksFCTMI09tAOFG4LSPzFaqzomu41wmZ+1Tt0OrB7MD0xE6gc5EoN5qi1vsa1Kmvo1SWkF2UFBIkF5ZmqweaUJY10nqYGiluiOuu3P182P/OKuD9Zuu855T2+mcspcSRmuEJ);strokeColor=#000000;strokeWidth=2;shadow=1;labelBackgroundColor=none;rounded=0;html=1;whiteSpace=wrap;" vertex="1" parent="SVzCEJU157vRpgFHD0QC-147">
          <mxGeometry x="28" y="24.666666666666664" width="14.823529411764705" height="15.530864197530864" as="geometry" />
        </mxCell>
        <mxCell id="SVzCEJU157vRpgFHD0QC-151" style="vsdxID=760;rotation=270;fillColor=none;gradientColor=none;shape=stencil(nZBLDoAgDERP0z3SIyjew0SURgSD+Lu9kMZoXLhwN9O+tukAlrNpJg1SzDH4QW/URgNYgZTkjA4UkwJUgGXng+6DX1zLfmoymdXo17xh5zmRJ6Q42BWCfc2oJfdAr+Yv+AP9Cb7OJ3H/2JG1HNGz/84klThPVCc=);strokeColor=none;strokeWidth=2;shadow=1;labelBackgroundColor=none;rounded=0;html=1;whiteSpace=wrap;fontSize=11;" vertex="1" parent="SVzCEJU157vRpgFHD0QC-147">
          <mxGeometry x="4.9411764705882355" y="11.790123456790123" width="19.764705882352942" height="29.234567901234566" as="geometry" />
        </mxCell>
        <mxCell id="SVzCEJU157vRpgFHD0QC-152" value="&lt;font style=&quot;font-size: 18px; font-family: SimSun; color: rgb(0, 0, 0); direction: ltr; letter-spacing: 0px; line-height: 120%; opacity: 1;&quot;&gt;...&lt;br style=&quot;font-size: 18px;&quot;&gt;&lt;/font&gt;" style="text;vsdxID=760;rotation=89.43;fillColor=none;gradientColor=none;strokeColor=none;strokeWidth=2;shadow=1;labelBackgroundColor=none;rounded=0;html=1;whiteSpace=wrap;verticalAlign=middle;align=center;horizontal=0;;html=1;fontSize=18;" vertex="1" parent="SVzCEJU157vRpgFHD0QC-151">
          <mxGeometry x="1.647058823529412" y="1.8271604938271604" width="20.44" height="29.718765432098763" as="geometry" />
        </mxCell>
        <mxCell id="SVzCEJU157vRpgFHD0QC-153" style="vsdxID=756;rotation=270;fillColor=none;gradientColor=none;strokeColor=none;shadow=1;labelBackgroundColor=none;rounded=0;html=1;whiteSpace=wrap;" vertex="1" parent="1">
          <mxGeometry x="1277" y="-805" width="28" height="74" as="geometry" />
        </mxCell>
        <mxCell id="SVzCEJU157vRpgFHD0QC-154" style="vsdxID=757;rotation=270;fillColor=#e51400;shape=stencil(vVTbjoMgEP0aHiXIGBee2+5/kC0qKRUzslv798Wg2WK1T41vcznMcE5mhsChb1SnCWe9R3fRN3P2DYEj4dy0jUbjg0XgROBQOdQ1ut/2HP1OjcjRurq/scIQ3+VsfMLZfXaj/x2x1rRPWPkxrMKfkMP5DzkteYTjhC9oUcTIkBaYC8qS5mJCZGowfYbOK29cG/MT2iqsdRbaZZVVdZLqb1p3L+FVMsvmQAXfpiMoFCkboLlM2CzUYXsRWe27QfkTyFQYScWLMF9lIsyGzjtIszVe6xMLlMFyYqUg6cSubsAu4/pu94LxfwwqY228Jc/55fEIoXh44PQA);strokeColor=#B20000;strokeWidth=2;shadow=1;labelBackgroundColor=none;rounded=0;html=1;whiteSpace=wrap;fontColor=#ffffff;" vertex="1" parent="SVzCEJU157vRpgFHD0QC-153">
          <mxGeometry x="1.6470588235294117" y="-2.7407407407407405" width="24.705882352941174" height="71.25925925925925" as="geometry" />
        </mxCell>
        <mxCell id="SVzCEJU157vRpgFHD0QC-155" style="vsdxID=758;rotation=270;fillColor=#bfbfbf;gradientColor=none;shape=stencil(vVHLDsIgEPwajiQU4hfU+h8bu7RELM2CFv9eyMZYjCcP3mZ2Zh/ZEaaPM6wotIqJwgU3N6ZZmKPQ2i0zkksFCTMI09tAOFG4LSPzFaqzomu41wmZ+1Tt0OrB7MD0xE6gc5EoN5qi1vsa1Kmvo1SWkF2UFBIkF5ZmqweaUJY10nqYGiluiOuu3P182P/OKuD9Zuu855T2+mcspcSRmuEJ);strokeColor=#000000;strokeWidth=2;shadow=1;labelBackgroundColor=none;rounded=0;html=1;whiteSpace=wrap;" vertex="1" parent="SVzCEJU157vRpgFHD0QC-153">
          <mxGeometry x="-13.176470588235293" y="25.580246913580247" width="14.823529411764705" height="15.530864197530864" as="geometry" />
        </mxCell>
        <mxCell id="SVzCEJU157vRpgFHD0QC-156" style="vsdxID=759;rotation=270;fillColor=#f2f2f2;gradientColor=none;shape=stencil(vVHLDsIgEPwajiQU4hfU+h8bu7RELM2CFv9eyMZYjCcP3mZ2Zh/ZEaaPM6wotIqJwgU3N6ZZmKPQ2i0zkksFCTMI09tAOFG4LSPzFaqzomu41wmZ+1Tt0OrB7MD0xE6gc5EoN5qi1vsa1Kmvo1SWkF2UFBIkF5ZmqweaUJY10nqYGiluiOuu3P182P/OKuD9Zuu855T2+mcspcSRmuEJ);strokeColor=#000000;strokeWidth=2;shadow=1;labelBackgroundColor=none;rounded=0;html=1;whiteSpace=wrap;" vertex="1" parent="SVzCEJU157vRpgFHD0QC-153">
          <mxGeometry x="28" y="24.666666666666664" width="14.823529411764705" height="15.530864197530864" as="geometry" />
        </mxCell>
        <mxCell id="SVzCEJU157vRpgFHD0QC-157" style="vsdxID=760;rotation=270;fillColor=none;gradientColor=none;shape=stencil(nZBLDoAgDERP0z3SIyjew0SURgSD+Lu9kMZoXLhwN9O+tukAlrNpJg1SzDH4QW/URgNYgZTkjA4UkwJUgGXng+6DX1zLfmoymdXo17xh5zmRJ6Q42BWCfc2oJfdAr+Yv+AP9Cb7OJ3H/2JG1HNGz/84klThPVCc=);strokeColor=none;strokeWidth=2;shadow=1;labelBackgroundColor=none;rounded=0;html=1;whiteSpace=wrap;" vertex="1" parent="SVzCEJU157vRpgFHD0QC-153">
          <mxGeometry x="4.9411764705882355" y="12.790123456790123" width="19.764705882352942" height="29.234567901234566" as="geometry" />
        </mxCell>
        <mxCell id="SVzCEJU157vRpgFHD0QC-158" value="&lt;font style=&quot;font-size: 19px; font-family: SimSun; color: rgb(0, 0, 0); direction: ltr; letter-spacing: 0px; line-height: 120%; opacity: 1;&quot;&gt;...&lt;br style=&quot;font-size: 19px;&quot;&gt;&lt;/font&gt;" style="text;vsdxID=760;rotation=89.43;fillColor=none;gradientColor=none;strokeColor=none;strokeWidth=2;shadow=1;labelBackgroundColor=none;rounded=0;html=1;whiteSpace=wrap;verticalAlign=middle;align=center;horizontal=0;;html=1;fontSize=19;" vertex="1" parent="SVzCEJU157vRpgFHD0QC-157">
          <mxGeometry x="1.647058823529412" y="1.8271604938271604" width="20.44" height="29.718765432098763" as="geometry" />
        </mxCell>
        <mxCell id="SVzCEJU157vRpgFHD0QC-159" value="&lt;font size=&quot;1&quot; style=&quot;&quot;&gt;&lt;span style=&quot;font-size: 22px;&quot;&gt;Logits&lt;/span&gt;&lt;/font&gt;" style="text;html=1;align=center;verticalAlign=middle;resizable=0;points=[];autosize=1;fontSize=20;fontStyle=0" vertex="1" parent="1">
          <mxGeometry x="885.0000000000002" y="-326.0700000000001" width="77" height="38" as="geometry" />
        </mxCell>
        <mxCell id="SVzCEJU157vRpgFHD0QC-160" value="&lt;font size=&quot;1&quot; style=&quot;&quot;&gt;&lt;span style=&quot;font-size: 21px;&quot;&gt;Models&lt;/span&gt;&lt;/font&gt;" style="text;html=1;align=center;verticalAlign=middle;resizable=0;points=[];autosize=1;fontSize=19;fontStyle=0" vertex="1" parent="1">
          <mxGeometry x="620.0000000000002" y="-325.0600000000001" width="86" height="37" as="geometry" />
        </mxCell>
        <mxCell id="SVzCEJU157vRpgFHD0QC-161" value="" style="endArrow=classic;html=1;rounded=1;strokeWidth=2;fontFamily=Helvetica;fontSize=14;shape=flexArrow;fillColor=default;gradientColor=#A9C4EB;strokeColor=#CCCCCC;entryX=0.239;entryY=1.012;entryDx=0;entryDy=0;entryPerimeter=0;" edge="1" parent="1">
          <mxGeometry width="50" height="50" relative="1" as="geometry">
            <mxPoint x="960" y="-711" as="sourcePoint" />
            <mxPoint x="959.884" y="-810.76" as="targetPoint" />
          </mxGeometry>
        </mxCell>
        <mxCell id="SVzCEJU157vRpgFHD0QC-162" style="vsdxID=756;rotation=270;fillColor=none;gradientColor=none;strokeColor=none;shadow=1;labelBackgroundColor=none;rounded=0;html=1;whiteSpace=wrap;fontStyle=0" vertex="1" parent="1">
          <mxGeometry x="852.9999999999999" y="-415.60999999999996" width="58.52000000000021" height="96.6099999999999" as="geometry" />
        </mxCell>
        <mxCell id="SVzCEJU157vRpgFHD0QC-163" style="vsdxID=757;rotation=270;fillColor=#E1D5E7;shape=stencil(vVTbjoMgEP0aHiXIGBee2+5/kC0qKRUzslv798Wg2WK1T41vcznMcE5mhsChb1SnCWe9R3fRN3P2DYEj4dy0jUbjg0XgROBQOdQ1ut/2HP1OjcjRurq/scIQ3+VsfMLZfXaj/x2x1rRPWPkxrMKfkMP5DzkteYTjhC9oUcTIkBaYC8qS5mJCZGowfYbOK29cG/MT2iqsdRbaZZVVdZLqb1p3L+FVMsvmQAXfpiMoFCkboLlM2CzUYXsRWe27QfkTyFQYScWLMF9lIsyGzjtIszVe6xMLlMFyYqUg6cSubsAu4/pu94LxfwwqY228Jc/55fEIoXh44PQA);strokeColor=#C3ABD0;strokeWidth=2;shadow=0;labelBackgroundColor=none;rounded=0;html=1;whiteSpace=wrap;fontStyle=0" vertex="1" parent="SVzCEJU157vRpgFHD0QC-162">
          <mxGeometry x="2.79" y="-0.9329629629629629" width="27.900000000000002" height="72.77111111111111" as="geometry" />
        </mxCell>
        <mxCell id="SVzCEJU157vRpgFHD0QC-164" style="vsdxID=758;rotation=270;fillColor=#bfbfbf;gradientColor=none;shape=stencil(vVHLDsIgEPwajiQU4hfU+h8bu7RELM2CFv9eyMZYjCcP3mZ2Zh/ZEaaPM6wotIqJwgU3N6ZZmKPQ2i0zkksFCTMI09tAOFG4LSPzFaqzomu41wmZ+1Tt0OrB7MD0xE6gc5EoN5qi1vsa1Kmvo1SWkF2UFBIkF5ZmqweaUJY10nqYGiluiOuu3P182P/OKuD9Zuu855T2+mcspcSRmuEJ);strokeColor=#000000;strokeWidth=2;shadow=1;labelBackgroundColor=none;rounded=0;html=1;whiteSpace=wrap;fontStyle=0" vertex="1" parent="SVzCEJU157vRpgFHD0QC-162">
          <mxGeometry x="-13.950000000000001" y="27.988888888888887" width="16.740000000000002" height="15.860370370370369" as="geometry" />
        </mxCell>
        <mxCell id="SVzCEJU157vRpgFHD0QC-165" style="vsdxID=759;rotation=270;fillColor=#f2f2f2;gradientColor=none;shape=stencil(vVHLDsIgEPwajiQU4hfU+h8bu7RELM2CFv9eyMZYjCcP3mZ2Zh/ZEaaPM6wotIqJwgU3N6ZZmKPQ2i0zkksFCTMI09tAOFG4LSPzFaqzomu41wmZ+1Tt0OrB7MD0xE6gc5EoN5qi1vsa1Kmvo1SWkF2UFBIkF5ZmqweaUJY10nqYGiluiOuu3P182P/OKuD9Zuu855T2+mcspcSRmuEJ);strokeColor=#000000;strokeWidth=2;shadow=1;labelBackgroundColor=none;rounded=0;html=1;whiteSpace=wrap;fontStyle=0" vertex="1" parent="SVzCEJU157vRpgFHD0QC-162">
          <mxGeometry x="32.550000000000004" y="27.055925925925923" width="16.740000000000002" height="15.860370370370369" as="geometry" />
        </mxCell>
        <mxCell id="SVzCEJU157vRpgFHD0QC-166" style="vsdxID=760;rotation=270;fillColor=none;gradientColor=none;shape=stencil(nZBLDoAgDERP0z3SIyjew0SURgSD+Lu9kMZoXLhwN9O+tukAlrNpJg1SzDH4QW/URgNYgZTkjA4UkwJUgGXng+6DX1zLfmoymdXo17xh5zmRJ6Q42BWCfc2oJfdAr+Yv+AP9Cb7OJ3H/2JG1HNGz/84klThPVCc=);strokeColor=none;strokeWidth=2;shadow=1;labelBackgroundColor=none;rounded=0;html=1;whiteSpace=wrap;fontStyle=0" vertex="1" parent="SVzCEJU157vRpgFHD0QC-162">
          <mxGeometry x="6.510000000000001" y="14.927407407407406" width="51.16000000000031" height="29.854814814814812" as="geometry" />
        </mxCell>
        <mxCell id="SVzCEJU157vRpgFHD0QC-167" value="&lt;font style=&quot;font-size: 17px; font-family: SimSun; color: rgb(0, 0, 0); direction: ltr; letter-spacing: 0px; line-height: 120%; opacity: 1;&quot;&gt;...&lt;br style=&quot;font-size: 17px;&quot;&gt;&lt;/font&gt;" style="text;vsdxID=760;rotation=89.43;fillColor=none;gradientColor=none;strokeColor=none;strokeWidth=2;shadow=1;labelBackgroundColor=none;rounded=0;html=1;whiteSpace=wrap;verticalAlign=middle;align=center;horizontal=0;;html=1;fontSize=17;fontStyle=0" vertex="1" parent="SVzCEJU157vRpgFHD0QC-166">
          <mxGeometry x="2.07" y="1.067037037037037" width="23.082600000000003" height="30.349285185185185" as="geometry" />
        </mxCell>
        <mxCell id="SVzCEJU157vRpgFHD0QC-168" value="&lt;span style=&quot;font-size: 19px;&quot;&gt;&lt;span style=&quot;font-size: 19px;&quot;&gt;benign&lt;/span&gt;&lt;/span&gt;" style="text;html=1;align=center;verticalAlign=middle;resizable=0;points=[];autosize=1;fontSize=19;fontStyle=0" vertex="1" parent="SVzCEJU157vRpgFHD0QC-162">
          <mxGeometry x="-18.47999999999979" y="60.6099999999999" width="75" height="35" as="geometry" />
        </mxCell>
        <mxCell id="SVzCEJU157vRpgFHD0QC-169" style="vsdxID=756;rotation=270;fillColor=none;gradientColor=none;strokeColor=none;shadow=0;labelBackgroundColor=none;rounded=0;html=1;whiteSpace=wrap;fontStyle=0" vertex="1" parent="1">
          <mxGeometry x="957.35" y="-413.31" width="30.04" height="72.57" as="geometry" />
        </mxCell>
        <mxCell id="SVzCEJU157vRpgFHD0QC-170" style="vsdxID=757;rotation=270;fillColor=#e51400;shape=stencil(vVTbjoMgEP0aHiXIGBee2+5/kC0qKRUzslv798Wg2WK1T41vcznMcE5mhsChb1SnCWe9R3fRN3P2DYEj4dy0jUbjg0XgROBQOdQ1ut/2HP1OjcjRurq/scIQ3+VsfMLZfXaj/x2x1rRPWPkxrMKfkMP5DzkteYTjhC9oUcTIkBaYC8qS5mJCZGowfYbOK29cG/MT2iqsdRbaZZVVdZLqb1p3L+FVMsvmQAXfpiMoFCkboLlM2CzUYXsRWe27QfkTyFQYScWLMF9lIsyGzjtIszVe6xMLlMFyYqUg6cSubsAu4/pu94LxfwwqY228Jc/55fEIoXh44PQA);strokeColor=#B20000;strokeWidth=2;shadow=0;labelBackgroundColor=none;rounded=0;html=1;whiteSpace=wrap;fontColor=#ffffff;fontStyle=0" vertex="1" parent="SVzCEJU157vRpgFHD0QC-169">
          <mxGeometry x="2.6505882352941175" y="-2.6877777777777774" width="26.50588235294118" height="69.88222222222221" as="geometry" />
        </mxCell>
        <mxCell id="SVzCEJU157vRpgFHD0QC-171" style="vsdxID=758;rotation=270;fillColor=#bfbfbf;gradientColor=none;shape=stencil(vVHLDsIgEPwajiQU4hfU+h8bu7RELM2CFv9eyMZYjCcP3mZ2Zh/ZEaaPM6wotIqJwgU3N6ZZmKPQ2i0zkksFCTMI09tAOFG4LSPzFaqzomu41wmZ+1Tt0OrB7MD0xE6gc5EoN5qi1vsa1Kmvo1SWkF2UFBIkF5ZmqweaUJY10nqYGiluiOuu3P182P/OKuD9Zuu855T2+mcspcSRmuEJ);strokeColor=#000000;strokeWidth=2;shadow=1;labelBackgroundColor=none;rounded=0;html=1;whiteSpace=wrap;fontStyle=0" vertex="1" parent="SVzCEJU157vRpgFHD0QC-169">
          <mxGeometry x="-13.25294117647059" y="25.08592592592592" width="15.903529411764707" height="15.230740740740739" as="geometry" />
        </mxCell>
        <mxCell id="SVzCEJU157vRpgFHD0QC-172" style="vsdxID=759;rotation=270;fillColor=#f2f2f2;gradientColor=none;shape=stencil(vVHLDsIgEPwajiQU4hfU+h8bu7RELM2CFv9eyMZYjCcP3mZ2Zh/ZEaaPM6wotIqJwgU3N6ZZmKPQ2i0zkksFCTMI09tAOFG4LSPzFaqzomu41wmZ+1Tt0OrB7MD0xE6gc5EoN5qi1vsa1Kmvo1SWkF2UFBIkF5ZmqweaUJY10nqYGiluiOuu3P182P/OKuD9Zuu855T2+mcspcSRmuEJ);strokeColor=#000000;strokeWidth=2;shadow=1;labelBackgroundColor=none;rounded=0;html=1;whiteSpace=wrap;fontStyle=0" vertex="1" parent="SVzCEJU157vRpgFHD0QC-169">
          <mxGeometry x="30.923529411764708" y="24.189999999999998" width="15.903529411764707" height="15.230740740740739" as="geometry" />
        </mxCell>
        <mxCell id="SVzCEJU157vRpgFHD0QC-173" style="vsdxID=760;rotation=270;fillColor=none;gradientColor=none;shape=stencil(nZBLDoAgDERP0z3SIyjew0SURgSD+Lu9kMZoXLhwN9O+tukAlrNpJg1SzDH4QW/URgNYgZTkjA4UkwJUgGXng+6DX1zLfmoymdXo17xh5zmRJ6Q42BWCfc2oJfdAr+Yv+AP9Cb7OJ3H/2JG1HNGz/84klThPVCc=);strokeColor=none;strokeWidth=2;shadow=1;labelBackgroundColor=none;rounded=0;html=1;whiteSpace=wrap;fontSize=12;fontStyle=0" vertex="1" parent="SVzCEJU157vRpgFHD0QC-169">
          <mxGeometry x="6.184705882352941" y="9.54296296296296" width="21.20470588235294" height="28.669629629629625" as="geometry" />
        </mxCell>
        <mxCell id="SVzCEJU157vRpgFHD0QC-174" value="&lt;font style=&quot;font-size: 16px; font-family: SimSun; color: rgb(0, 0, 0); direction: ltr; letter-spacing: 0px; line-height: 120%; opacity: 1;&quot;&gt;...&lt;br style=&quot;font-size: 16px;&quot;&gt;&lt;/font&gt;" style="text;vsdxID=760;rotation=89.43;fillColor=none;gradientColor=none;strokeColor=none;strokeWidth=2;shadow=1;labelBackgroundColor=none;rounded=0;html=1;whiteSpace=wrap;verticalAlign=middle;align=center;horizontal=0;;html=1;fontSize=16;fontStyle=0" vertex="1" parent="SVzCEJU157vRpgFHD0QC-173">
          <mxGeometry x="3.1164705882352943" y="5.104074074074074" width="21.929199999999998" height="29.144470370370367" as="geometry" />
        </mxCell>
        <mxCell id="SVzCEJU157vRpgFHD0QC-175" value="&lt;span style=&quot;font-size: 19px;&quot;&gt;&lt;span style=&quot;font-size: 19px;&quot;&gt;poisoned&lt;/span&gt;&lt;/span&gt;" style="text;html=1;align=center;verticalAlign=middle;resizable=0;points=[];autosize=1;fontSize=19;fontStyle=0" vertex="1" parent="1">
          <mxGeometry x="928.7900000000001" y="-354.00000000000006" width="95" height="35" as="geometry" />
        </mxCell>
        <mxCell id="SVzCEJU157vRpgFHD0QC-176" value="&lt;span style=&quot;font-size: 18px;&quot;&gt;Global Distilling&lt;/span&gt;" style="text;html=1;align=center;verticalAlign=middle;resizable=0;points=[];autosize=1;fontSize=18;fontStyle=0" vertex="1" parent="1">
          <mxGeometry x="1106.2500000000002" y="-327.00000000000006" width="142" height="34" as="geometry" />
        </mxCell>
        <mxCell id="SVzCEJU157vRpgFHD0QC-177" value="Crafting &lt;br style=&quot;font-size: 19px;&quot;&gt;malicious logits" style="text;html=1;align=center;verticalAlign=middle;resizable=0;points=[];autosize=1;fontSize=19;fillColor=none;gradientColor=#ffd966;strokeColor=none;fontColor=#000000;fontStyle=3;fontFamily=Helvetica;" vertex="1" parent="1">
          <mxGeometry x="1242" y="-757.48" width="162" height="58" as="geometry" />
        </mxCell>
      </root>
    </mxGraphModel>
  </diagram>
</mxfile>
